<svg width="24" height="24" viewBox="0 0 24 24" fill="none" xmlns="http://www.w3.org/2000/svg">
<path d="M9.75195 2.57812C10.9662 1.54336 12.7168 1.47833 13.998 2.38379L14.248 2.57812C14.9936 3.21334 15.9092 3.61262 16.8789 3.72852L17.0732 3.74805C18.6636 3.87497 19.9473 5.06699 20.2129 6.61328L20.252 6.92676C20.3299 7.903 20.6944 8.83297 21.2979 9.60059L21.4219 9.75195C22.4566 10.9662 22.5217 12.7168 21.6162 13.998L21.4219 14.248C20.7867 14.9936 20.3874 15.9092 20.2715 16.8789L20.252 17.0732C20.125 18.6636 18.933 19.9473 17.3867 20.2129L17.0732 20.252C16.097 20.3299 15.167 20.6944 14.3994 21.2979L14.248 21.4219C13.0338 22.4566 11.2832 22.5217 10.002 21.6162L9.75195 21.4219C9.0064 20.7867 8.09078 20.3874 7.12109 20.2715L6.92676 20.252C5.33642 20.125 4.05273 18.933 3.78711 17.3867L3.74805 17.0732C3.67014 16.097 3.30563 15.167 2.70215 14.3994L2.57812 14.248C1.54336 13.0338 1.47833 11.2832 2.38379 10.002L2.57812 9.75195C3.21334 9.0064 3.61262 8.09078 3.72852 7.12109L3.74805 6.92676C3.87497 5.33642 5.06699 4.05273 6.61328 3.78711L6.92676 3.74805C7.903 3.67014 8.83297 3.30563 9.60059 2.70215L9.75195 2.57812Z" stroke="#272727" stroke-width="1.5" stroke-linecap="round" stroke-linejoin="round"/>
<path d="M15 9L9 15" stroke="#272727" stroke-width="1.5" stroke-linecap="round"/>
<circle cx="9" cy="9.19995" r="1" fill="#272727"/>
<circle cx="15" cy="14.8" r="1" fill="#272727"/>
</svg>
