<svg width="24" height="24" viewBox="0 0 24 24" fill="none" xmlns="http://www.w3.org/2000/svg">
<path fill-rule="evenodd" clip-rule="evenodd" d="M3.08362 5.71685C3.08362 4.22964 4.28924 3.02402 5.77645 3.02402H8.73717C9.14481 3.02402 9.54032 3.16275 9.85863 3.41741L10.8733 4.22916C11.3508 4.61114 11.9441 4.81924 12.5555 4.81924H17.4454C19.2406 4.81924 20.1382 6.61446 20.1382 8.40968H8.05065C7.23856 8.40968 6.5276 8.95485 6.3169 9.73913L3.59661 19.8648C3.27393 19.4207 3.08362 18.8743 3.08362 18.2834V5.71685ZM21.1855 10.2049H9.81575C9.01787 10.2049 8.31574 10.7315 8.09233 11.4975L5.6628 19.8273C5.49525 20.4018 5.9261 20.9762 6.52451 20.9762H17.8942C18.6921 20.9762 19.3943 20.4496 19.6177 19.6837L22.0472 11.3539C22.2148 10.7794 21.7839 10.2049 21.1855 10.2049Z" fill="#0C0F0F"/>
</svg>
