<svg width="24" height="24" viewBox="0 0 24 24" fill="none" xmlns="http://www.w3.org/2000/svg">
<path d="M17.532 15.1061C17.2659 15.1059 17.0107 15.0001 16.8226 14.8118C16.6345 14.6235 16.5289 14.3682 16.529 14.1021C16.5291 13.8359 16.635 13.5807 16.8233 13.3926C17.0116 13.2045 17.2669 13.0989 17.533 13.0991C17.7991 13.0991 18.0544 13.2048 18.2426 13.393C18.4308 13.5812 18.5365 13.8364 18.5365 14.1026C18.5365 14.3687 18.4308 14.6239 18.2426 14.8121C18.0544 15.0003 17.7991 15.1061 17.533 15.1061H17.532ZM6.488 15.1061C6.35622 15.106 6.22574 15.08 6.10402 15.0295C5.98229 14.979 5.8717 14.905 5.77856 14.8118C5.59047 14.6235 5.48487 14.3682 5.485 14.1021C5.48513 13.8359 5.59099 13.5807 5.77927 13.3926C5.96756 13.2045 6.22286 13.0989 6.489 13.0991C6.75514 13.0991 7.01039 13.2048 7.19858 13.393C7.38677 13.5812 7.4925 13.8364 7.4925 14.1026C7.4925 14.3687 7.38677 14.6239 7.19858 14.8121C7.01039 15.0003 6.75514 15.1061 6.489 15.1061H6.488ZM17.888 9.08805L19.894 5.62905C19.948 5.53344 19.9618 5.42031 19.9323 5.31453C19.9029 5.20876 19.8326 5.11902 19.737 5.06505C19.6414 5.01108 19.5283 4.9973 19.4225 5.02674C19.3167 5.05619 19.227 5.12644 19.173 5.22205L17.146 8.72205C15.5362 7.98623 13.786 7.60821 12.016 7.61405C10.166 7.61405 8.421 8.01205 6.875 8.71205L4.848 5.21205C4.82128 5.16477 4.7855 5.12323 4.74272 5.08977C4.69994 5.05632 4.65099 5.03163 4.59866 5.0171C4.54634 5.00256 4.49166 4.99848 4.43776 5.00508C4.38385 5.01168 4.33178 5.02883 4.2845 5.05555C4.23722 5.08227 4.19567 5.11805 4.16222 5.16083C4.12877 5.20361 4.10408 5.25256 4.08955 5.30489C4.07501 5.35721 4.07093 5.41189 4.07753 5.46579C4.08413 5.5197 4.10128 5.57177 4.128 5.61905L6.123 9.07705C2.696 10.9471 0.345 14.4171 0 18.5231H24C23.666 14.4271 21.325 10.9581 17.888 9.08805Z" fill="white"/>
</svg>
