<svg width="24" height="24" viewBox="0 0 24 24" fill="none" xmlns="http://www.w3.org/2000/svg">
<path d="M17.532 15.1061C17.2659 15.106 17.0107 15.0001 16.8226 14.8118C16.6345 14.6236 16.5289 14.3683 16.529 14.1021C16.5291 13.836 16.635 13.5808 16.8233 13.3927C17.0116 13.2046 17.2669 13.099 17.533 13.0991C17.7991 13.0991 18.0544 13.2048 18.2426 13.393C18.4308 13.5812 18.5365 13.8365 18.5365 14.1026C18.5365 14.3688 18.4308 14.624 18.2426 14.8122C18.0544 15.0004 17.7991 15.1061 17.533 15.1061H17.532ZM6.488 15.1061C6.35622 15.106 6.22574 15.08 6.10402 15.0295C5.98229 14.979 5.8717 14.9051 5.77856 14.8118C5.59047 14.6236 5.48487 14.3683 5.485 14.1021C5.48513 13.836 5.59099 13.5808 5.77927 13.3927C5.96756 13.2046 6.22286 13.099 6.489 13.0991C6.75514 13.0991 7.01039 13.2048 7.19858 13.393C7.38677 13.5812 7.4925 13.8365 7.4925 14.1026C7.4925 14.3688 7.38677 14.624 7.19858 14.8122C7.01039 15.0004 6.75514 15.1061 6.489 15.1061H6.488ZM17.888 9.08811L19.894 5.62911C19.948 5.5335 19.9618 5.42037 19.9323 5.3146C19.9029 5.20883 19.8326 5.11908 19.737 5.06511C19.6414 5.01114 19.5283 4.99736 19.4225 5.0268C19.3167 5.05625 19.227 5.1265 19.173 5.22211L17.146 8.72211C15.5362 7.98629 13.786 7.60827 12.016 7.61411C10.166 7.61411 8.421 8.01211 6.875 8.71211L4.848 5.21211C4.82128 5.16484 4.7855 5.12329 4.74272 5.08984C4.69994 5.05639 4.65099 5.03169 4.59866 5.01716C4.54634 5.00262 4.49166 4.99854 4.43776 5.00514C4.38385 5.01174 4.33178 5.02889 4.2845 5.05561C4.23722 5.08234 4.19567 5.11811 4.16222 5.16089C4.12877 5.20367 4.10408 5.25262 4.08955 5.30495C4.07501 5.35727 4.07093 5.41195 4.07753 5.46586C4.08413 5.51976 4.10128 5.57184 4.128 5.61911L6.123 9.07711C2.696 10.9471 0.345 14.4171 0 18.5231H24C23.666 14.4271 21.325 10.9581 17.888 9.08811Z" fill="#222727"/>
</svg>
