<svg width="24" height="24" viewBox="0 0 24 24" fill="none" xmlns="http://www.w3.org/2000/svg">
<g clip-path="url(#clip0_1816_120)">
<path d="M23.9326 1.31718L22.6855 0.0700176C22.6384 0.0229551 22.5796 0.00236511 22.5178 0.00236511C22.456 0.00236511 22.3972 0.0258965 22.3501 0.0700176L20.1118 2.30843C19.1387 1.64912 17.9899 1.29761 16.8145 1.29953C15.3085 1.29953 13.8025 1.8731 12.6525 3.02319L9.65523 6.02049C9.61143 6.06471 9.58687 6.12444 9.58687 6.18668C9.58687 6.24892 9.61143 6.30864 9.65523 6.35287L17.6469 14.3447C17.694 14.3917 17.7528 14.4123 17.8146 14.4123C17.8734 14.4123 17.9352 14.3888 17.9822 14.3447L20.9795 11.3474C23.0061 9.31781 23.2443 6.17932 21.6942 3.89091L23.9326 1.6525C24.0238 1.55837 24.0238 1.40836 23.9326 1.31718ZM13.9673 13.021C13.923 12.9773 13.8633 12.9527 13.8011 12.9527C13.7388 12.9527 13.6791 12.9773 13.6349 13.021L11.6759 14.98L9.01989 12.3239L10.9818 10.362C11.073 10.2708 11.073 10.1208 10.9818 10.0296L9.91113 8.95896C9.8669 8.91516 9.80718 8.8906 9.74494 8.8906C9.6827 8.8906 9.62298 8.91516 9.57875 8.95896L7.61686 10.9209L6.35208 9.65607C6.33012 9.63409 6.30396 9.61678 6.27515 9.60515C6.24634 9.59353 6.21548 9.58784 6.18442 9.58842C6.12559 9.58842 6.06383 9.61195 6.01676 9.65607L3.02246 12.6534C0.995862 14.68 0.757612 17.8214 2.30771 20.1098L0.0693339 22.3483C0.0255423 22.3925 0.000976562 22.4522 0.000976562 22.5144C0.000976562 22.5767 0.0255423 22.6364 0.0693339 22.6806L1.31647 23.9278C1.36353 23.9748 1.42236 23.9954 1.48413 23.9954C1.5459 23.9954 1.60472 23.9719 1.65179 23.9278L3.89016 21.6894C4.8814 22.363 6.03441 22.6983 7.18743 22.6983C8.6934 22.6983 10.1994 22.1247 11.3495 20.9746L14.3467 17.9773C14.4379 17.8861 14.4379 17.7361 14.3467 17.6449L13.0819 16.3801L15.0438 14.4182C15.135 14.327 15.135 14.177 15.0438 14.0858L13.9673 13.021Z" fill="black"/>
</g>
<defs>
<clipPath id="clip0_1816_120">
<rect width="24" height="24" fill="white"/>
</clipPath>
</defs>
</svg>
