<svg width="24" height="24" viewBox="0 0 24 24" fill="none" xmlns="http://www.w3.org/2000/svg">
<g clip-path="url(#clip0_2278_63)">
<path d="M10.3448 9.86566L8.45011 11.7604" stroke="#272727" stroke-width="1.32638" stroke-linecap="round"/>
<path d="M5.36836 18.6316C7.28682 20.55 10.3973 20.55 12.3157 18.6316L13.1648 17.7824C13.4633 17.484 13.4633 17.0002 13.1648 16.7017L7.29818 10.8351C6.99975 10.5367 6.51591 10.5367 6.21748 10.8351L5.36836 11.6843C3.44989 13.6027 3.44989 16.7131 5.36836 18.6316ZM5.36836 18.6316L3.47365 20.5262" stroke="#272727" stroke-width="1.32638" stroke-linecap="round"/>
<path d="M18.6317 5.36846C20.5501 7.28691 20.5501 10.3973 18.6317 12.3158L17.7825 13.1649C17.4841 13.4633 17.0003 13.4633 16.7018 13.1649L10.8352 7.29827C10.5367 6.99985 10.5367 6.516 10.8352 6.21758L11.6843 5.36846C13.6028 3.45002 16.7132 3.45002 18.6317 5.36846ZM18.6317 5.36846L20.5264 3.47377" stroke="#272727" stroke-width="1.32638" stroke-linecap="round"/>
<path d="M13.9258 13.4465L12.031 15.3412" stroke="#272727" stroke-width="1.32638" stroke-linecap="round"/>
</g>
<defs>
<clipPath id="clip0_2278_63">
<rect width="24" height="24" fill="white"/>
</clipPath>
</defs>
</svg>
