<svg width="24" height="24" viewBox="0 0 24 24" fill="none" xmlns="http://www.w3.org/2000/svg">
<g clip-path="url(#clip0_1746_167)">
<path d="M23.9326 1.31716L22.6855 0.0700024C22.6384 0.0229398 22.5796 0.00234985 22.5178 0.00234985C22.456 0.00234985 22.3972 0.0258812 22.3501 0.0700024L20.1118 2.30841C19.1387 1.64911 17.9899 1.29759 16.8145 1.29951C15.3085 1.29951 13.8025 1.87309 12.6525 3.02318L9.65523 6.02047C9.61143 6.0647 9.58687 6.12442 9.58687 6.18666C9.58687 6.2489 9.61143 6.30863 9.65523 6.35285L17.6469 14.3447C17.694 14.3917 17.7528 14.4123 17.8146 14.4123C17.8734 14.4123 17.9352 14.3888 17.9822 14.3447L20.9795 11.3474C23.0061 9.31779 23.2443 6.17931 21.6942 3.89089L23.9326 1.65248C24.0238 1.55836 24.0238 1.40834 23.9326 1.31716ZM13.9673 13.021C13.923 12.9772 13.8633 12.9527 13.8011 12.9527C13.7388 12.9527 13.6791 12.9772 13.6349 13.021L11.6759 14.98L9.01989 12.3239L10.9818 10.362C11.073 10.2708 11.073 10.1208 10.9818 10.0296L9.91113 8.95894C9.8669 8.91515 9.80718 8.89058 9.74494 8.89058C9.6827 8.89058 9.62298 8.91515 9.57875 8.95894L7.61686 10.9209L6.35208 9.65605C6.33012 9.63408 6.30396 9.61676 6.27515 9.60514C6.24634 9.59351 6.21548 9.58782 6.18442 9.5884C6.12559 9.5884 6.06383 9.61193 6.01676 9.65605L3.02246 12.6534C0.995862 14.68 0.757612 17.8214 2.30771 20.1098L0.0693339 22.3482C0.0255423 22.3925 0.000976562 22.4522 0.000976562 22.5144C0.000976562 22.5767 0.0255423 22.6364 0.0693339 22.6806L1.31647 23.9278C1.36353 23.9748 1.42236 23.9954 1.48413 23.9954C1.5459 23.9954 1.60472 23.9719 1.65179 23.9278L3.89016 21.6894C4.8814 22.3629 6.03441 22.6983 7.18743 22.6983C8.6934 22.6983 10.1994 22.1247 11.3495 20.9746L14.3467 17.9773C14.4379 17.8861 14.4379 17.7361 14.3467 17.6449L13.0819 16.3801L15.0438 14.4182C15.135 14.327 15.135 14.177 15.0438 14.0858L13.9673 13.021Z" fill="#222727"/>
</g>
<defs>
<clipPath id="clip0_1746_167">
<rect width="24" height="24" fill="white"/>
</clipPath>
</defs>
</svg>
