<svg width="24" height="24" viewBox="0 0 24 24" fill="none" xmlns="http://www.w3.org/2000/svg">
<path fill-rule="evenodd" clip-rule="evenodd" d="M2.77997 11.2501H7.28229C7.48347 8.2342 8.53193 5.34338 10.296 2.90674C6.2409 3.66186 3.11597 7.06257 2.77997 11.2501ZM12 3.14885C10.1266 5.45664 9.00431 8.28438 8.78597 11.2501H15.214C14.9957 8.28438 13.8734 5.45664 12 3.14885ZM15.214 12.7501C14.9957 15.7159 13.8734 18.5436 12 20.8514C10.1266 18.5436 9.00431 15.7159 8.78597 12.7501H15.214ZM7.28229 12.7501H2.77997C3.11597 16.9377 6.2409 20.3384 10.296 21.0935C8.53193 18.6569 7.48347 15.766 7.28229 12.7501ZM13.704 21.0935C15.4681 18.6569 16.5165 15.766 16.7177 12.7501H21.22C20.884 16.9377 17.7591 20.3384 13.704 21.0935ZM21.22 11.2501H16.7177C16.5165 8.2342 15.4681 5.34338 13.704 2.90674C17.7591 3.66186 20.884 7.06257 21.22 11.2501ZM1.25 12.0001C1.25 6.06306 6.06294 1.25012 12 1.25012C17.9371 1.25012 22.75 6.06306 22.75 12.0001C22.75 17.9372 17.9371 22.7501 12 22.7501C6.06294 22.7501 1.25 17.9372 1.25 12.0001Z" fill="#0C0F0F"/>
</svg>
