<svg width="24" height="24" viewBox="0 0 24 24" fill="none" xmlns="http://www.w3.org/2000/svg">
<path fill-rule="evenodd" clip-rule="evenodd" d="M13.833 2.71232V8.33248C13.833 9.34501 14.6538 10.1658 15.6664 10.1658H21.0267C22.0922 10.1658 22.9004 9.25739 22.565 8.24608C22.1483 6.98959 21.3416 5.29922 19.7914 3.7491C18.2346 2.19236 16.6637 1.51267 15.526 1.21796C14.5925 0.976134 13.833 1.74793 13.833 2.71232ZM7.57322 2.22855C6.95083 2.49169 6.35171 2.81407 5.78452 3.19306C4.01409 4.37601 2.63422 6.0574 1.81938 8.02459C1.00454 9.99178 0.791344 12.1564 1.20674 14.2448C1.62214 16.3331 2.64749 18.2514 4.15311 19.757C5.65873 21.2627 7.57701 22.288 9.66537 22.7034C11.7537 23.1188 13.9184 22.9056 15.8856 22.0908C17.8527 21.2759 19.5341 19.896 20.7171 18.1256C21.0961 17.5584 21.4185 16.9593 21.6816 16.3369C22.3202 14.8266 22.6394 14.0714 22.0007 13.1079C21.362 12.1445 20.3164 12.1445 18.2251 12.1445H16.072H16.072C14.042 12.1445 13.027 12.1445 12.3963 11.5138C11.7657 10.8832 11.7657 9.86818 11.7657 7.83816V5.68501C11.7657 3.59374 11.7657 2.5481 10.8022 1.90941C9.83873 1.27071 9.08356 1.58999 7.57323 2.22855L7.57322 2.22855Z" fill="#0C0F0F"/>
</svg>
