<svg width="24" height="24" viewBox="0 0 24 24" fill="none" xmlns="http://www.w3.org/2000/svg">
<path d="M7 12.9003H5C3.34315 12.9003 2 11.5571 2 9.90027V6.50012C2 4.84327 3.34315 3.50012 5 3.50012H19C20.6569 3.50012 22 4.84327 22 6.50012V9.90027C22 11.5571 20.6569 12.9003 19 12.9003H17" stroke="#222727" stroke-width="1.5"/>
<path d="M6.7998 8.07666L6.7998 19.2163C6.7998 20.3209 7.69524 21.2163 8.7998 21.2163H15.2C16.3045 21.2163 17.2 20.3209 17.2 19.2163V8.07666" stroke="#222727" stroke-width="1.5"/>
<path d="M13.4597 12.3431C13.2728 12.0962 13.0072 11.9038 12.6965 11.7901C12.3857 11.6765 12.0438 11.6468 11.7139 11.7047C11.384 11.7626 11.0809 11.9056 10.8431 12.1156C10.6052 12.3255 10.4433 12.593 10.3776 12.8843C10.312 13.1755 10.3457 13.4774 10.4744 13.7517C10.6031 14.026 10.8211 14.2605 11.1008 14.4255C11.3805 14.5904 11.7017 14.6166 12.0456 14.6785C12.6973 14.7958 13.2495 15.011 13.5259 15.6C13.6546 15.8743 13.6883 16.1762 13.6226 16.4674C13.557 16.7586 13.395 17.0261 13.1572 17.2361C12.9194 17.4461 12.6163 17.5891 12.2864 17.647C11.9565 17.7049 11.6146 17.6752 11.3038 17.5616C10.9931 17.4479 10.7275 17.2555 10.5406 17.0086" stroke="#222727" stroke-width="1.5" stroke-linecap="round" stroke-linejoin="round"/>
<path d="M12.145 10.7565L12.145 11.663" stroke="#222727" stroke-width="1.5" stroke-linecap="round"/>
<path d="M12.145 18.1758L12.145 18.5363" stroke="#222727" stroke-width="1.5" stroke-linecap="round"/>
<path d="M5.35486 8.2002L18.6451 8.20019" stroke="#272727" stroke-width="1.5" stroke-linecap="round"/>
</svg>
