<svg width="24" height="24" viewBox="0 0 24 24" fill="none" xmlns="http://www.w3.org/2000/svg">
<path d="M10.0048 21.75H14.0048M12.0048 3.75V2.25M4.15583 10.4167V15.2288C4.15583 15.7848 4.04262 16.335 3.82309 16.8458C3.43589 17.7468 4.09667 18.75 5.07731 18.75H18.9319C19.9096 18.75 20.5659 17.7466 20.1741 16.8509C19.9492 16.3369 19.8332 15.782 19.8332 15.2209V10.4167C19.8332 8.64856 18.9682 6.95286 17.4286 5.70262C15.8889 4.45238 14.1719 3.75 11.9945 3.75C9.81713 3.75 8.10007 4.45238 6.56043 5.70262C5.02079 6.95286 4.15583 8.64856 4.15583 10.4167Z" stroke="#272727" stroke-width="1.5" stroke-linecap="round"/>
</svg>
