<svg width="24" height="24" viewBox="0 0 24 24" fill="none" xmlns="http://www.w3.org/2000/svg">
<path d="M16.5 8.25C18.2116 8.25 19.7251 8.57166 20.7822 9.05957C21.9029 9.57685 22.25 10.1405 22.25 10.5C22.25 10.8595 21.9029 11.4231 20.7822 11.9404C19.7251 12.4283 18.2116 12.75 16.5 12.75C14.7884 12.75 13.2749 12.4283 12.2178 11.9404C11.0971 11.4231 10.75 10.8595 10.75 10.5C10.75 10.1405 11.0971 9.57685 12.2178 9.05957C13.2749 8.57166 14.7884 8.25 16.5 8.25Z" stroke="#272727" stroke-width="1.5" stroke-linecap="round" stroke-linejoin="round"/>
<path d="M10.8 10.5V14.8514C10.8 16.3142 13.6187 17.5 16.55 17.5C19.4814 17.5 22.3 16.3142 22.3 14.8514V10.5" stroke="#272727" stroke-width="1.5" stroke-linecap="round" stroke-linejoin="round"/>
<path d="M10.8 14.5V19.5169C10.8 20.8883 13.6187 22 16.55 22C19.4814 22 22.3 20.8883 22.3 19.5169V14.5" stroke="#272727" stroke-width="1.5" stroke-linecap="round" stroke-linejoin="round"/>
<path d="M7.5 2.75C9.21165 2.75 10.7251 3.07166 11.7822 3.55957C12.9029 4.07685 13.25 4.64048 13.25 5C13.25 5.35952 12.9029 5.92315 11.7822 6.44043C10.7251 6.92834 9.21165 7.25 7.5 7.25C5.78835 7.25 4.2749 6.92834 3.21777 6.44043C2.09712 5.92315 1.75 5.35952 1.75 5C1.75 4.64048 2.09712 4.07685 3.21777 3.55957C4.2749 3.07166 5.78835 2.75 7.5 2.75Z" stroke="#272727" stroke-width="1.5" stroke-linecap="round" stroke-linejoin="round"/>
<path d="M7.69995 17C4.38624 17 1.69995 15.9927 1.69995 14.75V5" stroke="#272727" stroke-width="1.5" stroke-linecap="round" stroke-linejoin="round"/>
<path d="M1.69995 9.5C1.69995 10.8807 4.16238 12 7.19995 12C7.62363 12 8.03611 11.9782 8.43229 11.937" stroke="#272727" stroke-width="1.5" stroke-linecap="round"/>
</svg>
