<svg width="24" height="24" viewBox="0 0 24 24" fill="none" xmlns="http://www.w3.org/2000/svg">
<path fill-rule="evenodd" clip-rule="evenodd" d="M10.7528 1.9041C11.1448 0.700099 12.8538 0.700099 13.2478 1.9041H13.2468L15.2388 8.0191H21.6858C22.9568 8.0191 23.4848 9.6411 22.4568 10.3861L20.2298 12.0001H12.9998C12.7346 12.0001 12.4802 12.1055 12.2927 12.293C12.1051 12.4805 11.9998 12.7349 11.9998 13.0001V17.9641L6.78479 21.7451C5.75579 22.4901 4.37379 21.4881 4.76579 20.2821L6.75779 14.1671L1.54379 10.3871C0.51479 9.6421 1.04379 8.0201 2.31379 8.0201H8.75979L10.7528 1.9041ZM14.1462 14.1466C14.0524 14.2403 13.9998 14.3675 13.9998 14.5001V16.5001C13.9998 16.6327 14.0524 16.7599 14.1462 16.8537C14.24 16.9474 14.3671 17.0001 14.4998 17.0001H22.4998C22.6324 17.0001 22.7595 16.9474 22.8533 16.8537C22.9471 16.7599 22.9998 16.6327 22.9998 16.5001V14.5001C22.9998 14.3675 22.9471 14.2403 22.8533 14.1466C22.7595 14.0528 22.6324 14.0001 22.4998 14.0001H14.4998C14.3671 14.0001 14.24 14.0528 14.1462 14.1466ZM14.1462 19.1466C14.0524 19.2403 13.9998 19.3675 13.9998 19.5001V21.5001C13.9998 21.6327 14.0524 21.7599 14.1462 21.8537C14.24 21.9474 14.3671 22.0001 14.4998 22.0001H22.4998C22.6324 22.0001 22.7595 21.9474 22.8533 21.8537C22.9471 21.7599 22.9998 21.6327 22.9998 21.5001V19.5001C22.9998 19.3675 22.9471 19.2403 22.8533 19.1466C22.7595 19.0528 22.6324 19.0001 22.4998 19.0001H14.4998C14.3671 19.0001 14.24 19.0528 14.1462 19.1466Z" fill="#0C0F0F"/>
</svg>
