<svg width="24" height="24" viewBox="0 0 24 24" fill="none" xmlns="http://www.w3.org/2000/svg">
<path d="M8.25 2.70013C8.25 2.28592 7.91421 1.95013 7.5 1.95013C7.08579 1.95013 6.75 2.28592 6.75 2.70013H8.25ZM6.75 5.20013C6.75 5.61435 7.08579 5.95013 7.5 5.95013C7.91421 5.95013 8.25 5.61435 8.25 5.20013H6.75ZM17.25 2.70013C17.25 2.28592 16.9142 1.95013 16.5 1.95013C16.0858 1.95013 15.75 2.28592 15.75 2.70013H17.25ZM15.75 5.20013C15.75 5.61435 16.0858 5.95013 16.5 5.95013C16.9142 5.95013 17.25 5.61435 17.25 5.20013H15.75ZM12.0979 14.8053L12.2295 14.067H12.2295L12.0979 14.8053ZM11.0989 14.5405L10.7207 15.1881L10.7207 15.1881L11.0989 14.5405ZM10.4367 13.8352L9.75894 14.1564H9.75894L10.4367 13.8352ZM10.3344 12.9273L9.60306 12.7608L10.3344 12.9273ZM10.8265 12.1227L10.3329 11.5579L10.8265 12.1227ZM11.7471 11.6926L11.8756 12.4315V12.4315L11.7471 11.6926ZM12.9972 12.8163C13.2487 13.1454 13.7194 13.2082 14.0485 12.9566C14.3776 12.705 14.4404 12.2343 14.1888 11.9053L12.9972 12.8163ZM13.6629 15.7699L14.3407 15.4486L13.6629 15.7699ZM13.7653 16.6778L13.034 16.5114V16.5114L13.7653 16.6778ZM13.2732 17.4824L12.7796 16.9177L12.7796 16.9177L13.2732 17.4824ZM12.3525 17.9125L12.4809 18.6514L12.4809 18.6514L12.3525 17.9125ZM11.3136 17.8231L11.0583 18.5283L11.0583 18.5283L11.3136 17.8231ZM11.1024 16.7888C10.8509 16.4597 10.3802 16.3969 10.0511 16.6485C9.72204 16.9001 9.65924 17.3708 9.91082 17.6998L11.1024 16.7888ZM12.9529 10.7001C12.9529 10.2859 12.6171 9.95013 12.2029 9.95013C11.7887 9.95013 11.4529 10.2859 11.4529 10.7001H12.9529ZM11.4529 11.649C11.4529 12.0633 11.7887 12.399 12.2029 12.399C12.6171 12.399 12.9529 12.0633 12.9529 11.649H11.4529ZM12.9529 18.4662C12.9529 18.0519 12.6171 17.7162 12.2029 17.7162C11.7887 17.7162 11.4529 18.0519 11.4529 18.4662H12.9529ZM11.4529 18.8434C11.4529 19.2576 11.7887 19.5934 12.2029 19.5934C12.6171 19.5934 12.9529 19.2576 12.9529 18.8434H11.4529ZM3.3042 8.60175H20.6939V7.10175H3.3042V8.60175ZM6 4.95013H7.5V3.45013H6V4.95013ZM7.5 4.95013H16.5V3.45013H7.5V4.95013ZM16.5 4.95013H18V3.45013H16.5V4.95013ZM20.25 7.20013V18.3001H21.75V7.20013H20.25ZM18 20.5501H6V22.0501H18V20.5501ZM3.75 18.3001V7.20014H2.25V18.3001H3.75ZM6 20.5501C4.75736 20.5501 3.75 19.5428 3.75 18.3001H2.25C2.25 20.3712 3.92893 22.0501 6 22.0501V20.5501ZM20.25 18.3001C20.25 19.5428 19.2426 20.5501 18 20.5501V22.0501C20.0711 22.0501 21.75 20.3712 21.75 18.3001H20.25ZM18 4.95013C19.2426 4.95013 20.25 5.95749 20.25 7.20013H21.75C21.75 5.12907 20.0711 3.45013 18 3.45013V4.95013ZM6 3.45013C3.92893 3.45013 2.25 5.12907 2.25 7.20014H3.75C3.75 5.95749 4.75736 4.95013 6 4.95013V3.45013ZM6.75 2.70013V4.20013H8.25V2.70013H6.75ZM6.75 4.20013V5.20013H8.25V4.20013H6.75ZM15.75 2.70013V4.20013H17.25V2.70013H15.75ZM15.75 4.20013V5.20013H17.25V4.20013H15.75ZM12.2295 14.067C11.7626 13.9837 11.6229 13.9779 11.4771 13.8928L10.7207 15.1881C11.1664 15.4484 11.7059 15.4973 11.9663 15.5437L12.2295 14.067ZM11.4771 13.8928C11.3013 13.7901 11.1807 13.654 11.1144 13.514L9.75894 14.1564C9.96481 14.5908 10.3052 14.9455 10.7207 15.1881L11.4771 13.8928ZM11.1144 13.514C11.0491 13.3761 11.0343 13.2317 11.0657 13.0937L9.60306 12.7608C9.4957 13.2325 9.55211 13.7201 9.75894 14.1564L11.1144 13.514ZM11.0657 13.0937C11.0974 12.9543 11.1792 12.8104 11.32 12.6874L10.3329 11.5579C9.97073 11.8745 9.71008 12.2906 9.60306 12.7608L11.0657 13.0937ZM11.32 12.6874C11.4617 12.5635 11.6537 12.4701 11.8756 12.4315L11.6187 10.9537C11.143 11.0364 10.6941 11.2423 10.3329 11.5579L11.32 12.6874ZM11.8756 12.4315C12.0975 12.3929 12.3266 12.4133 12.5307 12.4872L13.0413 11.0768C12.5883 10.9128 12.0944 10.871 11.6187 10.9537L11.8756 12.4315ZM12.5307 12.4872C12.7347 12.5611 12.8934 12.6806 12.9972 12.8163L14.1888 11.9053C13.8974 11.5242 13.4945 11.2409 13.0413 11.0768L12.5307 12.4872ZM12.9852 16.0911C13.0506 16.229 13.0654 16.3734 13.034 16.5114L14.4966 16.8443C14.6039 16.3726 14.5475 15.885 14.3407 15.4486L12.9852 16.0911ZM13.034 16.5114C13.0022 16.6508 12.9204 16.7947 12.7796 16.9177L13.7667 18.0472C14.1289 17.7306 14.3895 17.3145 14.4966 16.8443L13.034 16.5114ZM12.7796 16.9177C12.6379 17.0416 12.446 17.135 12.224 17.1736L12.4809 18.6514C12.9566 18.5687 13.4055 18.3628 13.7667 18.0472L12.7796 16.9177ZM12.224 17.1736C12.0021 17.2122 11.773 17.1917 11.5689 17.1179L11.0583 18.5283C11.5114 18.6923 12.0053 18.7341 12.4809 18.6514L12.224 17.1736ZM11.5689 17.1179C11.3649 17.044 11.2063 16.9245 11.1024 16.7888L9.91082 17.6998C10.2022 18.0809 10.6051 18.3642 11.0583 18.5283L11.5689 17.1179ZM11.9663 15.5437C12.6014 15.6569 12.8572 15.8211 12.9852 16.0911L14.3407 15.4486C13.8842 14.4856 12.9725 14.1994 12.2295 14.067L11.9663 15.5437ZM11.4529 10.7001V11.649H12.9529V10.7001H11.4529ZM11.4529 18.4662V18.8434H12.9529V18.4662H11.4529Z" fill="#272727"/>
</svg>
