<svg width="24" height="24" viewBox="0 0 24 24" fill="none" xmlns="http://www.w3.org/2000/svg">
<path d="M20.9954 11.5556V14.3111C20.9954 16.3024 20.9954 17.2981 20.603 18.0586C20.2578 18.7277 19.7071 19.2716 19.0297 19.6125C18.2596 20 17.2515 20 15.2354 20H8.75536C6.73917 20 5.73108 20 4.961 19.6125C4.28361 19.2716 3.73288 18.7277 3.38774 18.0586C2.99536 17.2981 2.99536 16.3024 2.99536 14.3111V9.68889C2.99536 7.69759 2.99536 6.70194 3.38774 5.94137C3.73288 5.27235 4.28361 4.72842 4.961 4.38753C5.73108 4 6.73917 4 8.75536 4H12.4454" stroke="#272727" stroke-width="1.5" stroke-linecap="round" stroke-linejoin="round"/>
<path d="M16 6H18.4956M18.4956 6H21M18.4956 6V8.5M18.4956 6V3.5" stroke="#272727" stroke-width="1.5" stroke-linecap="round" stroke-linejoin="round"/>
<circle cx="11.9954" cy="12" r="3.5" stroke="#272727" stroke-width="1.5" stroke-linejoin="round"/>
</svg>
