<svg width="24" height="24" viewBox="0 0 24 24" fill="none" xmlns="http://www.w3.org/2000/svg">
<path d="M3 4.92869C3 3.86357 3.86345 3.00012 4.92857 3.00012H8.78571C9.85083 3.00012 10.7143 3.86357 10.7143 4.92869V8.78584C10.7143 9.85096 9.85083 10.7144 8.78571 10.7144H4.92857C3.86345 10.7144 3 9.85096 3 8.78584V4.92869Z" fill="#0C0F0F"/>
<path d="M13.2857 15.343C13.2857 14.2069 14.2067 13.2858 15.3429 13.2858H18.9429C20.079 13.2858 21 14.2069 21 15.343V18.943C21 20.0791 20.079 21.0001 18.9429 21.0001H15.3429C14.2067 21.0001 13.2857 20.0791 13.2857 18.943V15.343Z" fill="#0C0F0F"/>
<path d="M3 15.2144C3 14.1493 3.86345 13.2858 4.92857 13.2858H8.78571C9.85083 13.2858 10.7143 14.1493 10.7143 15.2144V19.0716C10.7143 20.1367 9.85083 21.0001 8.78571 21.0001H4.92857C3.86345 21.0001 3 20.1367 3 19.0716V15.2144Z" fill="#0C0F0F"/>
<path d="M14.0192 3.88425C14.3309 2.86577 15.4093 2.29285 16.4277 2.60459L20.116 3.7335C21.1345 4.04524 21.7074 5.12359 21.3956 6.14207L20.2667 9.83031C19.955 10.8488 18.8766 11.4217 17.8582 11.11L14.1699 9.98107C13.1514 9.66933 12.5785 8.59097 12.8903 7.57249L14.0192 3.88425Z" fill="#00DDD3"/>
</svg>
