<svg width="24" height="24" viewBox="0 0 24 24" fill="none" xmlns="http://www.w3.org/2000/svg">
<path d="M6.7998 13.6396H7.31152C8.17615 13.6396 8.75706 13.6412 9.19434 13.6943C9.50915 13.7326 9.69265 13.7916 9.81641 13.8633L9.92285 13.9395C9.94774 13.9607 9.97199 13.9827 9.99512 14.0059L10.0615 14.0781C10.1664 14.201 10.2557 14.3871 10.3066 14.8066C10.3597 15.244 10.3604 15.8248 10.3604 16.6895V17.2002C10.3604 18.0651 10.3598 18.6466 10.3066 19.084C10.2684 19.3984 10.2083 19.5813 10.1367 19.7051L10.0615 19.8125C10.0404 19.8372 10.0181 19.8608 9.99512 19.8838L9.92285 19.9512C9.79998 20.0561 9.61388 20.1443 9.19434 20.1953C8.75706 20.2484 8.17615 20.25 7.31152 20.25H6.7998C5.93503 20.25 5.35431 20.2484 4.91699 20.1953C4.60212 20.1571 4.41871 20.0981 4.29492 20.0264L4.18848 19.9512C4.1635 19.9298 4.13941 19.907 4.11621 19.8838L4.0498 19.8125C3.94487 19.6896 3.8557 19.5035 3.80469 19.084C3.75156 18.6466 3.75 18.0651 3.75 17.2002V16.6895C3.75 15.8247 3.75159 15.244 3.80469 14.8066C3.84294 14.4917 3.90289 14.3084 3.97461 14.1846L4.0498 14.0781C4.07103 14.0533 4.09313 14.029 4.11621 14.0059L4.18848 13.9395C4.31138 13.8345 4.49712 13.7453 4.91699 13.6943C5.35431 13.6412 5.93503 13.6396 6.7998 13.6396ZM6.7998 3.75H7.31152C8.17615 3.75 8.75706 3.75157 9.19434 3.80469C9.50944 3.84298 9.69264 3.90281 9.81641 3.97461L9.92285 4.0498C9.94774 4.07107 9.97199 4.09308 9.99512 4.11621L10.0615 4.18848C10.1664 4.31138 10.2557 4.49728 10.3066 4.91699C10.3598 5.35431 10.3604 5.93507 10.3604 6.7998V7.31152C10.3604 8.17615 10.3598 8.75706 10.3066 9.19434C10.2684 9.50936 10.2085 9.69264 10.1367 9.81641L10.0615 9.92285C10.0403 9.94774 10.0182 9.97199 9.99512 9.99512L9.92285 10.0615C9.79997 10.1665 9.61407 10.2556 9.19434 10.3066C8.75706 10.3598 8.17615 10.3604 7.31152 10.3604H6.7998C5.93507 10.3604 5.35431 10.3598 4.91699 10.3066C4.60201 10.2684 4.41871 10.2085 4.29492 10.1367L4.18848 10.0615C4.16363 10.0403 4.1393 10.0182 4.11621 9.99512L4.0498 9.92285C3.94485 9.79997 3.8557 9.61404 3.80469 9.19434C3.75157 8.75706 3.75 8.17615 3.75 7.31152V6.7998C3.75 5.93505 3.75157 5.35431 3.80469 4.91699C3.84296 4.60192 3.90284 4.41872 3.97461 4.29492L4.0498 4.18848C4.07106 4.16359 4.09308 4.13934 4.11621 4.11621L4.18848 4.0498C4.31138 3.94484 4.49713 3.85569 4.91699 3.80469C5.35431 3.75157 5.93505 3.75 6.7998 3.75ZM16.6885 3.75H17.2002C18.065 3.75 18.6457 3.75157 19.083 3.80469C19.3981 3.84296 19.5813 3.90284 19.7051 3.97461L19.8115 4.0498C19.8364 4.07107 19.8607 4.09308 19.8838 4.11621L19.9502 4.18848C20.0552 4.31138 20.1443 4.49714 20.1953 4.91699C20.2484 5.35431 20.25 5.93505 20.25 6.7998V7.31152C20.25 8.17615 20.2484 8.75706 20.1953 9.19434C20.157 9.50943 20.0972 9.69264 20.0254 9.81641L19.9502 9.92285C19.9289 9.94774 19.9069 9.97199 19.8838 9.99512L19.8115 10.0615C19.6886 10.1664 19.5027 10.2557 19.083 10.3066C18.6457 10.3598 18.0649 10.3604 17.2002 10.3604H16.6885C15.8238 10.3604 15.2429 10.3598 14.8057 10.3066C14.4906 10.2684 14.3074 10.2085 14.1836 10.1367L14.0771 10.0615C14.0523 10.0403 14.028 10.0182 14.0049 9.99512L13.9385 9.92285C13.8335 9.79997 13.7444 9.61407 13.6934 9.19434C13.6402 8.75706 13.6396 8.17615 13.6396 7.31152V6.7998C13.6396 5.93507 13.6402 5.35431 13.6934 4.91699C13.7316 4.60201 13.7915 4.41871 13.8633 4.29492L13.9385 4.18848C13.9597 4.16363 13.9818 4.1393 14.0049 4.11621L14.0771 4.0498C14.2 3.94485 14.3859 3.85569 14.8057 3.80469C15.2429 3.75157 15.8238 3.75 16.6885 3.75Z" stroke="#222727" stroke-width="1.50056"/>
<path d="M20 13.8977V19.981M14.5364 13.8977V19.981" stroke="#222727" stroke-width="1.50056" stroke-linecap="round" stroke-linejoin="round"/>
</svg>
