<svg width="24" height="24" viewBox="0 0 24 24" fill="none" xmlns="http://www.w3.org/2000/svg">
<path d="M11.9956 15.6H12.0046M12.2184 13.3706V13.1028C12.2184 12.5021 12.745 12.0373 13.2435 11.7021C13.5469 11.4979 13.7834 11.2078 13.9231 10.8684C14.0627 10.529 14.0993 10.1555 14.0281 9.79519C13.9569 9.43487 13.7811 9.10389 13.5231 8.84411C13.265 8.58433 12.9363 8.40741 12.5783 8.33574C12.2204 8.26407 11.8494 8.30085 11.5122 8.44145C11.1751 8.58204 10.8869 8.82012 10.6842 9.12559C10.5946 9.26059 10.5234 9.40607 10.4719 9.55811" stroke="#272727" stroke-width="1.50056" stroke-linecap="round" stroke-linejoin="round"/>
<path d="M12 21C16.9706 21 21 16.9706 21 12C21 7.02944 16.9706 3 12 3C7.02944 3 3 7.02944 3 12C3 16.9706 7.02944 21 12 21Z" stroke="#272727" stroke-width="1.5" stroke-linecap="round" stroke-linejoin="round"/>
</svg>
