<svg width="24" height="24" viewBox="0 0 24 24" fill="none" xmlns="http://www.w3.org/2000/svg">
<path d="M13.2998 3.75H8.7002C7.41234 3.75 6.51398 3.75189 5.83008 3.83496C5.24687 3.90582 4.89722 4.02872 4.64258 4.20898L4.53906 4.28906C4.49425 4.32733 4.45082 4.36754 4.40918 4.40918L4.28906 4.53906C4.06441 4.80219 3.9159 5.16392 3.83496 5.83008C3.75189 6.51398 3.75 7.41234 3.75 8.7002V13.2998C3.75 14.5877 3.75189 15.486 3.83496 16.1699C3.90582 16.7531 4.02872 17.1028 4.20898 17.3574L4.28906 17.4609C4.32733 17.5057 4.36754 17.5492 4.40918 17.5908L4.53906 17.7109C4.80219 17.9356 5.16392 18.0841 5.83008 18.165C6.51398 18.2481 7.41234 18.25 8.7002 18.25H13.2998C14.5877 18.25 15.486 18.2481 16.1699 18.165C16.7531 18.0942 17.1028 17.9713 17.3574 17.791L17.4609 17.7109C17.5057 17.6727 17.5492 17.6325 17.5908 17.5908L17.7109 17.4609C17.9356 17.1978 18.0841 16.8361 18.165 16.1699C18.2481 15.486 18.25 14.5877 18.25 13.2998V8.7002C18.25 7.41234 18.2481 6.51398 18.165 5.83008C18.0942 5.24687 17.9713 4.89722 17.791 4.64258L17.7109 4.53906C17.6727 4.49425 17.6325 4.45082 17.5908 4.40918L17.4609 4.28906C17.1978 4.06441 16.8361 3.9159 16.1699 3.83496C15.486 3.75189 14.5877 3.75 13.2998 3.75Z" stroke="#222727" stroke-width="1.50056"/>
<path d="M21.5 13V13.86C21.5 17.2824 21.5 18.9935 20.5211 20.1216C20.3975 20.264 20.264 20.3975 20.1216 20.5211C18.9935 21.5 17.2824 21.5 13.86 21.5H12.8106" stroke="#222727" stroke-width="1.50056" stroke-linecap="round"/>
<path d="M8 12L10 14L14.5 9.5" stroke="#272727" stroke-width="1.5" stroke-linecap="round" stroke-linejoin="round"/>
</svg>
