<svg width="24" height="24" viewBox="0 0 24 24" fill="none" xmlns="http://www.w3.org/2000/svg">
<path d="M12 0.00012207C5.37321 0.00012207 0 5.37334 0 12.0001C0 18.6269 5.37321 24.0001 12 24.0001C18.6268 24.0001 24 18.6269 24 12.0001C24 5.37334 18.6268 0.00012207 12 0.00012207ZM17.183 8.08137L11.542 15.9028C11.4631 16.0128 11.3592 16.1025 11.2388 16.1644C11.1184 16.2262 10.9849 16.2585 10.8496 16.2585C10.7142 16.2585 10.5808 16.2262 10.4603 16.1644C10.3399 16.1025 10.236 16.0128 10.1571 15.9028L6.81696 11.2742C6.71518 11.1323 6.81696 10.9341 6.99107 10.9341H8.24732C8.52054 10.9341 8.78036 11.0653 8.94107 11.2903L10.8482 13.9367L15.0589 8.09744C15.2196 7.87512 15.4768 7.74119 15.7527 7.74119H17.0089C17.183 7.74119 17.2848 7.93941 17.183 8.08137Z" fill="#00DDD3"/>
</svg>
