<svg width="24" height="24" viewBox="0 0 24 24" fill="none" xmlns="http://www.w3.org/2000/svg">
<g clip-path="url(#clip0_20_104)">
<path d="M12 0.00012207C5.37321 0.00012207 0 5.37334 0 12.0001C0 18.6269 5.37321 24.0001 12 24.0001C18.6268 24.0001 24 18.6269 24 12.0001C24 5.37334 18.6268 0.00012207 12 0.00012207ZM16.4304 16.5591L14.6625 16.551L12 13.3769L9.34018 16.5483L7.56964 16.5564C7.45179 16.5564 7.35536 16.4626 7.35536 16.3421C7.35536 16.2912 7.37411 16.243 7.40625 16.2028L10.8911 12.051L7.40625 7.90191C7.37388 7.86265 7.35592 7.8135 7.35536 7.76262C7.35536 7.64476 7.45179 7.54834 7.56964 7.54834L9.34018 7.55637L12 10.7305L14.6598 7.55905L16.4277 7.55101C16.5455 7.55101 16.642 7.64476 16.642 7.7653C16.642 7.81619 16.6232 7.86441 16.5911 7.90459L13.1116 12.0537L16.5938 16.2055C16.6259 16.2457 16.6446 16.2939 16.6446 16.3448C16.6446 16.4626 16.5482 16.5591 16.4304 16.5591Z" fill="#F74A4C"/>
</g>
<defs>
<clipPath id="clip0_20_104">
<rect width="24" height="24" fill="white"/>
</clipPath>
</defs>
</svg>
