<svg width="24" height="24" viewBox="0 0 24 24" fill="none" xmlns="http://www.w3.org/2000/svg">
<path d="M22.9312 17.2352C22.5677 20.1659 20.1658 22.5678 17.2351 22.9314C15.4612 23.1517 13.8085 22.6669 12.5195 21.7194C11.7813 21.1795 11.9576 20.0337 12.839 19.7693C16.1553 18.7667 18.7665 16.1444 19.7802 12.8281C20.0446 11.9577 21.1904 11.7814 21.7303 12.5086C22.6668 13.8087 23.1516 15.4613 22.9312 17.2352Z" fill="#0C0F0F"/>
<path d="M9.78707 0.984009C4.92824 0.984009 0.983887 4.92836 0.983887 9.78718C0.983887 14.646 4.92824 18.5903 9.78707 18.5903C14.6459 18.5903 18.5903 14.646 18.5903 9.78718C18.5792 4.92836 14.6459 0.984009 9.78707 0.984009ZM8.7514 8.55319L11.4067 9.47868C12.3652 9.82023 12.828 10.4923 12.828 11.528C12.828 12.7179 11.8804 13.6985 10.7236 13.6985H10.6244V13.7536C10.6244 14.2053 10.2498 14.5799 9.79809 14.5799C9.34636 14.5799 8.97176 14.2053 8.97176 13.7536V13.6875C7.74879 13.6324 6.76821 12.6077 6.76821 11.3297C6.76821 10.8779 7.14281 10.5033 7.59454 10.5033C8.04627 10.5033 8.42087 10.8779 8.42087 11.3297C8.42087 11.7263 8.70733 12.0458 9.0599 12.0458H10.7126C10.966 12.0458 11.1643 11.8144 11.1643 11.528C11.1643 11.1424 11.0982 11.1203 10.8448 11.0322L8.1895 10.1067C7.24197 9.77616 6.76821 9.10408 6.76821 8.05739C6.76821 6.86748 7.71573 5.8869 8.8726 5.8869H8.97176V5.84283C8.97176 5.3911 9.34636 5.0165 9.79809 5.0165C10.2498 5.0165 10.6244 5.3911 10.6244 5.84283V5.90893C11.8474 5.96402 12.828 6.98867 12.828 8.26673C12.828 8.71845 12.4534 9.09306 12.0016 9.09306C11.5499 9.09306 11.1753 8.71845 11.1753 8.26673C11.1753 7.87009 10.8888 7.55058 10.5363 7.55058H8.88361C8.63021 7.55058 8.43189 7.78195 8.43189 8.06841C8.42087 8.44301 8.48698 8.46505 8.7514 8.55319Z" fill="#0C0F0F"/>
</svg>
