<svg width="24" height="24" viewBox="0 0 24 24" fill="none" xmlns="http://www.w3.org/2000/svg">
<path d="M13 11H17.8C18.9201 11 19.4802 11 19.908 11.218C20.2843 11.4097 20.5903 11.7157 20.782 12.092C21 12.5198 21 13.0799 21 14.2L21 21M3 21L3 6.2C3 5.0799 3 4.51984 3.21799 4.09202C3.40973 3.71569 3.71569 3.40973 4.09202 3.21799C4.51984 3 5.0799 3 6.2 3L9.8 3C10.9201 3 11.4802 3 11.908 3.21799C12.2843 3.40973 12.5903 3.71569 12.782 4.09202C13 4.51984 13 5.0799 13 6.2L13 21M2 21L22 21M9.5 7H6.5M9.5 11H6.5M9.5 15H6.5" stroke="#0C0F0F" stroke-width="1.5" stroke-linecap="round"/>
</svg>
