<svg width="24" height="24" viewBox="0 0 24 24" fill="none" xmlns="http://www.w3.org/2000/svg">
<path d="M10.2 17.0924V19.1996C10.2 20.1937 11.0059 20.9996 12 20.9996C12.9941 20.9996 13.8 20.1937 13.8 19.1996V17.0924M12 2.99963V3.89963M3.9 11.9996H3M6.15 6.14963L5.60991 5.60955M17.85 6.14963L18.3902 5.60955M21 11.9996H20.1M17.4 11.9996C17.4 14.982 14.9823 17.3996 12 17.3996C9.01766 17.3996 6.6 14.982 6.6 11.9996C6.6 9.0173 9.01766 6.59963 12 6.59963C14.9823 6.59963 17.4 9.0173 17.4 11.9996Z" stroke="#222727" stroke-width="1.5" stroke-linecap="round"/>
</svg>
