<svg width="24" height="24" viewBox="0 0 24 24" fill="none" xmlns="http://www.w3.org/2000/svg">
<path d="M13.2954 3.75012H8.6958C7.40794 3.75012 6.50959 3.75201 5.82568 3.83508C5.24247 3.90594 4.89282 4.02884 4.63818 4.20911L4.53467 4.28918C4.48986 4.32746 4.44642 4.36767 4.40479 4.4093L4.28467 4.53918C4.06001 4.80232 3.9115 5.16404 3.83057 5.8302C3.74749 6.51411 3.74561 7.41246 3.74561 8.70032V13.2999C3.74561 14.5878 3.74749 15.4861 3.83057 16.17C3.90142 16.7533 4.02432 17.1029 4.20459 17.3575L4.28467 17.4611C4.32294 17.5059 4.36315 17.5493 4.40479 17.5909L4.53467 17.7111C4.7978 17.9357 5.15953 18.0842 5.82568 18.1652C6.50959 18.2482 7.40794 18.2501 8.6958 18.2501H13.2954C14.5833 18.2501 15.4816 18.2482 16.1655 18.1652C16.7487 18.0943 17.0984 17.9714 17.353 17.7911L17.4565 17.7111C17.5014 17.6728 17.5448 17.6326 17.5864 17.5909L17.7065 17.4611C17.9312 17.1979 18.0797 16.8362 18.1606 16.17C18.2437 15.4861 18.2456 14.5878 18.2456 13.2999V8.70032C18.2456 7.41246 18.2437 6.51411 18.1606 5.8302C18.0898 5.24699 17.9669 4.89734 17.7866 4.6427L17.7065 4.53918C17.6683 4.49438 17.6281 4.45094 17.5864 4.4093L17.4565 4.28918C17.1934 4.06453 16.8317 3.91602 16.1655 3.83508C15.4816 3.75201 14.5833 3.75012 13.2954 3.75012Z" stroke="#222727" stroke-width="1.50056"/>
<path d="M21.4956 13.0001V13.8601C21.4956 17.2825 21.4956 18.9937 20.5167 20.1217C20.3931 20.2641 20.2596 20.3977 20.1172 20.5212C18.9892 21.5001 17.278 21.5001 13.8556 21.5001H12.8062" stroke="#222727" stroke-width="1.50056" stroke-linecap="round"/>
</svg>
