<svg width="24" height="24" viewBox="0 0 24 24" fill="none" xmlns="http://www.w3.org/2000/svg">
<path d="M1.99561 7.45448C1.99561 5.44617 3.62366 3.81812 5.63197 3.81812H18.3592C20.3675 3.81812 21.9956 5.44617 21.9956 7.45448V9.42785C20.9363 9.80224 20.1774 10.8125 20.1774 11.9999C20.1774 13.1874 20.9363 14.1976 21.9956 14.572V16.5454C21.9956 18.5537 20.3675 20.1818 18.3592 20.1818H5.63197C3.62366 20.1818 1.99561 18.5537 1.99561 16.5454V14.572C3.05487 14.1976 3.81379 13.1874 3.81379 11.9999C3.81379 10.8125 3.05487 9.80224 1.99561 9.42785V7.45448Z" stroke="#272727" stroke-width="1.5" stroke-linecap="round"/>
<path d="M13.4802 9.36403C13.2714 9.09858 12.9746 8.89168 12.6274 8.7695C12.2802 8.64733 11.8981 8.61536 11.5295 8.67765C11.1609 8.73993 10.8223 8.89367 10.5566 9.11942C10.2908 9.34517 10.1098 9.63279 10.0365 9.94592C9.96319 10.259 10.0008 10.5836 10.1446 10.8786C10.2885 11.1735 10.532 11.4256 10.8445 11.603C11.157 11.7804 11.5159 11.8085 11.9002 11.875C12.6284 12.0012 13.2453 12.2325 13.5541 12.8658C13.6979 13.1608 13.7356 13.4853 13.6622 13.7985C13.5889 14.1116 13.4079 14.3992 13.1422 14.625C12.8764 14.8507 12.5379 15.0044 12.1692 15.0667C11.8006 15.129 11.4186 15.097 11.0714 14.9749C10.7241 14.8527 10.4274 14.6458 10.2186 14.3803M12.0112 7.6582V8.63292M12.0112 15.6354V16.0229" stroke="#272727" stroke-width="1.5" stroke-linecap="round" stroke-linejoin="round"/>
</svg>
