<svg width="24" height="24" viewBox="0 0 24 24" fill="none" xmlns="http://www.w3.org/2000/svg">
<path d="M12 7.39997V8.28371M12 15.7838V16.5001M12.8125 11.8746H10V8.84573C10 8.65455 10.155 8.49958 10.3462 8.49958H12.8125C13.7445 8.49958 14.5 9.2551 14.5 10.1871C14.5 11.1191 13.7445 11.8746 12.8125 11.8746ZM12.8125 11.8746L10.3462 11.8745C10.155 11.8745 10 12.0295 10 12.2207V14.9034C10 15.0946 10.155 15.2496 10.3462 15.2496H12.8125C13.7445 15.2496 14.5 14.494 14.5 13.562C14.5 12.63 13.7445 11.8746 12.8125 11.8746ZM22 12C22 17.5228 17.5228 22 12 22C6.47715 22 2 17.5228 2 12C2 6.47715 6.47715 2 12 2C17.5228 2 22 6.47715 22 12Z" stroke="#272727" stroke-width="1.5" stroke-linecap="round" stroke-linejoin="round"/>
</svg>
