<svg width="24" height="24" viewBox="0 0 24 24" fill="none" xmlns="http://www.w3.org/2000/svg">
<path d="M21 7.99905C21.5304 7.99905 22.0391 8.20976 22.4142 8.58483C22.7893 8.95991 23 9.46861 23 9.99905V13.999C23 14.5295 22.7893 15.0382 22.4142 15.4133C22.0391 15.7883 21.5304 15.999 21 15.999H19.938C19.6942 17.9323 18.7533 19.7102 17.2917 20.999C15.8302 22.2879 13.9486 22.999 12 22.999V20.999C13.5913 20.999 15.1174 20.3669 16.2426 19.2417C17.3679 18.1165 18 16.5903 18 14.999V8.99905C18 7.40775 17.3679 5.88162 16.2426 4.75641C15.1174 3.63119 13.5913 2.99905 12 2.99905C10.4087 2.99905 8.88258 3.63119 7.75736 4.75641C6.63214 5.88162 6 7.40775 6 8.99905V15.999H3C2.46957 15.999 1.96086 15.7883 1.58579 15.4133C1.21071 15.0382 1 14.5295 1 13.999V9.99905C1 9.46861 1.21071 8.95991 1.58579 8.58483C1.96086 8.20976 2.46957 7.99905 3 7.99905H4.062C4.30603 6.06594 5.24708 4.28832 6.70857 2.99972C8.17007 1.71112 10.0516 1.00012 12 1.00012C13.9484 1.00012 15.8299 1.71112 17.2914 2.99972C18.7529 4.28832 19.694 6.06594 19.938 7.99905H21Z" fill="black"/>
<path d="M8.82 14.088L7.76 15.784C9.03074 16.5801 10.5005 17.0013 12 16.999C13.4995 17.0013 14.9693 16.5801 16.24 15.784L15.18 14.088C14.2269 14.685 13.1246 15.0008 12 14.999C10.8754 15.0008 9.77308 14.685 8.82 14.088Z" fill="black"/>
</svg>
