<svg width="24" height="24" viewBox="0 0 24 24" fill="none" xmlns="http://www.w3.org/2000/svg">
<path fill-rule="evenodd" clip-rule="evenodd" d="M12 24.0001C18.6274 24.0001 24 18.6275 24 12.0001C24 5.3727 18.6274 0.00012207 12 0.00012207C5.37258 0.00012207 0 5.3727 0 12.0001C0 18.6275 5.37258 24.0001 12 24.0001ZM6.69665 8.81823C6.11086 8.23244 6.11086 7.28269 6.69665 6.69691C7.28243 6.11112 8.23218 6.11112 8.81797 6.69691L12 9.87898L15.1823 6.69677C15.768 6.11098 16.7178 6.11098 17.3036 6.69677C17.8894 7.28256 17.8894 8.2323 17.3036 8.81809L14.1214 12.0003L17.3032 15.1822C17.889 15.768 17.889 16.7177 17.3032 17.3035C16.7175 17.8893 15.7677 17.8893 15.1819 17.3035L12 14.1216L8.8183 17.3034C8.23251 17.8892 7.28276 17.8892 6.69698 17.3034C6.11119 16.7176 6.11119 15.7678 6.69698 15.182L9.87872 12.0003L6.69665 8.81823Z" fill="#787B7B"/>
</svg>
