<svg width="24" height="24" viewBox="0 0 24 24" fill="none" xmlns="http://www.w3.org/2000/svg">
<rect y="0.00012207" width="24" height="24" rx="12" fill="white"/>
<path d="M17.9006 6.58885C16.8002 6.08024 15.6235 5.71058 14.3934 5.50012C14.2423 5.76994 14.0658 6.13285 13.9441 6.42156C12.6364 6.22729 11.3408 6.22729 10.0572 6.42156C9.93548 6.13285 9.75497 5.76994 9.60254 5.50012C8.37106 5.71058 7.19307 6.08159 6.09264 6.59155C3.87304 9.90496 3.27134 13.1361 3.57219 16.3213C5.04434 17.4073 6.47104 18.0671 7.87366 18.4988C8.21997 18.0279 8.52884 17.5274 8.79493 16.9999C8.28816 16.8097 7.80279 16.5749 7.34417 16.3024C7.46584 16.2134 7.58485 16.1203 7.69984 16.0245C10.4971 17.317 13.5363 17.317 16.3001 16.0245C16.4164 16.1203 16.5354 16.2134 16.6558 16.3024C16.1958 16.5763 15.7091 16.811 15.2023 17.0013C15.4684 17.5274 15.776 18.0293 16.1236 18.5001C17.5276 18.0684 18.9556 17.4087 20.4277 16.3213C20.7807 12.6288 19.8247 9.42737 17.9006 6.58885ZM9.176 14.3624C8.3363 14.3624 7.64769 13.588 7.64769 12.645C7.64769 11.702 8.32159 10.9262 9.176 10.9262C10.0304 10.9262 10.719 11.7006 10.7043 12.645C10.7057 13.588 10.0304 14.3624 9.176 14.3624ZM14.8239 14.3624C13.9842 14.3624 13.2956 13.588 13.2956 12.645C13.2956 11.702 13.9695 10.9262 14.8239 10.9262C15.6783 10.9262 16.367 11.7006 16.3522 12.645C16.3522 13.588 15.6783 14.3624 14.8239 14.3624Z" fill="#5562E9"/>
</svg>
