<svg width="24" height="24" viewBox="0 0 24 24" fill="none" xmlns="http://www.w3.org/2000/svg">
<path d="M3.6001 4.80011L20.4001 4.80011" stroke="#222727" stroke-width="1.5" stroke-linecap="round" stroke-linejoin="round"/>
<path d="M3.6001 12.0001L9.6001 12.0001" stroke="#222727" stroke-width="1.5" stroke-linecap="round" stroke-linejoin="round"/>
<path d="M12.1192 16.0493C12.0899 15.9598 12.0753 15.9151 12.0581 15.7803C12.0484 15.7045 12.0484 15.4959 12.0581 15.42C12.0752 15.2852 12.0899 15.2405 12.1192 15.1511C12.7163 13.3294 14.5861 12.0001 16.8003 12.0001C19.0144 12.0001 20.8841 13.3294 21.4813 15.151C21.5106 15.2404 21.5252 15.2851 21.5424 15.4199C21.5521 15.4958 21.5521 15.7044 21.5424 15.7802C21.5252 15.915 21.5106 15.9597 21.4813 16.0491C20.8842 17.8708 19.0144 19.2001 16.8002 19.2001C14.5861 19.2001 12.7164 17.8709 12.1192 16.0493Z" stroke="#222727" stroke-width="1.5" stroke-linecap="round" stroke-linejoin="round"/>
<circle cx="16.8001" cy="15.6001" r="1.2" fill="#222727"/>
<path d="M3.6001 20.4001L9.6001 20.4001" stroke="#222727" stroke-width="1.5" stroke-linecap="round" stroke-linejoin="round"/>
</svg>
