<svg width="24" height="24" viewBox="0 0 24 24" fill="none" xmlns="http://www.w3.org/2000/svg">
<path fill-rule="evenodd" clip-rule="evenodd" d="M2.8501 4.80011C2.8501 4.3859 3.18588 4.05011 3.6001 4.05011H20.4001C20.8143 4.05011 21.1501 4.3859 21.1501 4.80011C21.1501 5.21432 20.8143 5.55011 20.4001 5.55011L3.6001 5.55011C3.18588 5.55011 2.8501 5.21432 2.8501 4.80011ZM2.8501 12.0001C2.8501 11.5859 3.18588 11.2501 3.6001 11.2501L9.6001 11.2501C10.0143 11.2501 10.3501 11.5859 10.3501 12.0001C10.3501 12.4143 10.0143 12.7501 9.6001 12.7501L3.6001 12.7501C3.18588 12.7501 2.8501 12.4143 2.8501 12.0001ZM12.8319 15.3847C13.3178 13.9024 14.8761 12.7501 16.8003 12.7501C18.7243 12.7501 20.2827 13.9023 20.7686 15.3846C20.7846 15.4335 20.786 15.4391 20.7874 15.4446C20.7881 15.4475 20.7915 15.4617 20.7975 15.5073L20.7984 15.5264C20.7992 15.5465 20.7997 15.5723 20.7997 15.6001C20.7997 15.6278 20.7992 15.6536 20.7984 15.6738L20.7975 15.6929C20.7915 15.7385 20.7881 15.7526 20.7874 15.7555C20.786 15.7611 20.7846 15.7667 20.7686 15.8155C20.2827 17.2979 18.7244 18.4501 16.8002 18.4501C14.8761 18.4501 13.3178 17.2979 12.8319 15.8156C12.8159 15.7668 12.8145 15.7611 12.8131 15.7556C12.8124 15.7527 12.809 15.7386 12.803 15.693L12.8021 15.6739C12.8013 15.6537 12.8008 15.6279 12.8008 15.6002C12.8008 15.5724 12.8013 15.5466 12.8021 15.5265L12.803 15.5074C12.809 15.4618 12.8124 15.4476 12.8131 15.4447C12.8144 15.4392 12.8159 15.4336 12.8319 15.3847ZM16.8003 11.2501C14.2961 11.2501 12.1149 12.7565 11.4065 14.9175C11.3676 15.0362 11.3391 15.1292 11.3141 15.3253C11.3027 15.4145 11.3008 15.5273 11.3008 15.6002C11.3008 15.6731 11.3027 15.7858 11.3141 15.8751C11.3391 16.0712 11.3676 16.1641 11.4065 16.2829C12.1149 18.4439 14.2961 19.9501 16.8002 19.9501C19.3044 19.9501 21.4856 18.4438 22.194 16.2828C22.2329 16.164 22.2614 16.071 22.2864 15.875C22.2978 15.7857 22.2997 15.673 22.2997 15.6001C22.2996 15.5271 22.2978 15.4144 22.2864 15.3251C22.2614 15.1291 22.2329 15.0361 22.1939 14.9174C21.4856 12.7564 19.3044 11.2501 16.8003 11.2501ZM18.0001 15.6001C18.0001 16.2628 17.4628 16.8001 16.8001 16.8001C16.1374 16.8001 15.6001 16.2628 15.6001 15.6001C15.6001 14.9373 16.1374 14.4001 16.8001 14.4001C17.4628 14.4001 18.0001 14.9373 18.0001 15.6001ZM3.6001 19.6501C3.18588 19.6501 2.8501 19.9859 2.8501 20.4001C2.8501 20.8143 3.18588 21.1501 3.6001 21.1501H9.6001C10.0143 21.1501 10.3501 20.8143 10.3501 20.4001C10.3501 19.9859 10.0143 19.6501 9.6001 19.6501L3.6001 19.6501Z" fill="#222727"/>
</svg>
