<svg width="24" height="24" viewBox="0 0 24 24" fill="none" xmlns="http://www.w3.org/2000/svg">
<path d="M19.5134 7.86029H15.7192C14.8908 7.86029 14.2192 7.18872 14.2192 6.36029V3.5" stroke="#272727" stroke-width="1.5" stroke-linecap="round" stroke-linejoin="round"/>
<path d="M8.01782 11.2354H12.0239M8.01782 15.2058H15.9956" stroke="#272727" stroke-width="1.5" stroke-linecap="round" stroke-linejoin="round"/>
<path d="M8.6 21H15.4C17.1852 21 18.0778 21 18.7596 20.7057C19.3594 20.4469 19.847 20.0338 20.1526 19.5258C20.5 18.9482 20.5 18.1921 20.5 16.68V8.4L14.125 3H8.6C6.81483 3 5.92225 3 5.24041 3.29428C4.64064 3.55314 4.15301 3.96619 3.84742 4.47423C3.5 5.05179 3.5 5.80786 3.5 7.32V16.68C3.5 18.1921 3.5 18.9482 3.84742 19.5258C4.15301 20.0338 4.64064 20.4469 5.24041 20.7057C5.92225 21 6.81483 21 8.6 21Z" stroke="#272727" stroke-width="1.5" stroke-linecap="round" stroke-linejoin="round"/>
</svg>
