<svg width="24" height="24" viewBox="0 0 24 24" fill="none" xmlns="http://www.w3.org/2000/svg">
<path d="M12 0.00012207C5.37321 0.00012207 0 5.37334 0 12.0001C0 18.6269 5.37321 24.0001 12 24.0001C18.6268 24.0001 24 18.6269 24 12.0001C24 5.37334 18.6268 0.00012207 12 0.00012207ZM11.1429 6.21441C11.1429 6.09655 11.2393 6.00012 11.3571 6.00012H12.6429C12.7607 6.00012 12.8571 6.09655 12.8571 6.21441V13.5001C12.8571 13.618 12.7607 13.7144 12.6429 13.7144H11.3571C11.2393 13.7144 11.1429 13.618 11.1429 13.5001V6.21441ZM12 18.0001C11.6636 17.9933 11.3432 17.8548 11.1077 17.6144C10.8722 17.374 10.7403 17.0509 10.7403 16.7144C10.7403 16.3779 10.8722 16.0548 11.1077 15.8144C11.3432 15.574 11.6636 15.4356 12 15.4287C12.3364 15.4356 12.6568 15.574 12.8923 15.8144C13.1278 16.0548 13.2597 16.3779 13.2597 16.7144C13.2597 17.0509 13.1278 17.374 12.8923 17.6144C12.6568 17.8548 12.3364 17.9933 12 18.0001Z" fill="#FF801A"/>
</svg>
