<svg width="24" height="24" viewBox="0 0 24 24" fill="none" xmlns="http://www.w3.org/2000/svg">
<path d="M3 7.56667C3 5.79317 3 4.90642 3.36785 4.22903C3.69143 3.63318 4.20774 3.14875 4.84278 2.84515C5.56473 2.5 6.50982 2.5 8.4 2.5H15.6C17.4902 2.5 18.4353 2.5 19.1572 2.84515C19.7923 3.14875 20.3086 3.63318 20.6321 4.22903C21 4.90642 21 5.79317 21 7.56667V21.5L18.8525 20.0346C18.5121 19.8023 18.3418 19.6861 18.1581 19.6439C17.9957 19.6066 17.8267 19.6104 17.6662 19.655C17.4845 19.7055 17.3197 19.8292 16.9901 20.0766L15.0938 21.5L12.9018 20.0043C12.5764 19.7822 12.4137 19.6712 12.2372 19.6281C12.0814 19.59 11.9186 19.59 11.7628 19.6281C11.5863 19.6712 11.4236 19.7822 11.0982 20.0043L8.90625 21.5L7.00989 20.0766C6.6803 19.8292 6.51551 19.7055 6.3338 19.655C6.17333 19.6104 6.00426 19.6066 5.84195 19.6439C5.65815 19.6861 5.48795 19.8023 5.14754 20.0346L3 21.5V7.56667Z" stroke="#272727" stroke-width="1.5" stroke-linecap="round" stroke-linejoin="round"/>
<path d="M7 8.7865H17M7 13.5488H17" stroke="#272727" stroke-width="1.5" stroke-linecap="round" stroke-linejoin="round"/>
</svg>
