<svg width="24" height="24" viewBox="0 0 24 24" fill="none" xmlns="http://www.w3.org/2000/svg">
<path d="M1.85459 13.234C1.70851 12.8389 1.63547 12.6414 1.61837 12.1053C1.6171 12.0655 1.6171 11.9347 1.61837 11.895C1.63545 11.3589 1.70849 11.1613 1.85456 10.7662C3.20064 7.12511 7.01163 4.5 11.5027 4.5C15.9937 4.5 19.8046 7.125 21.1508 10.766C21.2969 11.1611 21.3699 11.3586 21.387 11.8947C21.3883 11.9345 21.3883 12.0653 21.387 12.105C21.3699 12.6411 21.2969 12.8387 21.1508 13.2338C19.8047 16.8749 15.9937 19.5 11.5027 19.5C7.01168 19.5 3.20074 16.875 1.85459 13.234Z" stroke="#272727" stroke-width="1.50056"/>
<circle cx="11.5027" cy="12" r="3" stroke="#272727" stroke-width="1.50056"/>
</svg>
