<svg width="24" height="24" viewBox="0 0 24 24" fill="none" xmlns="http://www.w3.org/2000/svg">
<path d="M2.99561 7.00012V6.56395C2.99561 4.97721 2.99561 4.18384 3.44501 3.65765C3.50883 3.58293 3.57842 3.51334 3.65313 3.44953C4.17932 3.00012 4.97269 3.00012 6.55943 3.00012H6.99561M20.9956 17.0001V17.4363C20.9956 19.023 20.9956 19.8164 20.5462 20.3426C20.4824 20.4173 20.4128 20.4869 20.3381 20.5507C19.8119 21.0001 19.0185 21.0001 17.4318 21.0001H16.9956M7.08657 21.0001H6.5595C4.97276 21.0001 4.17939 21.0001 3.6532 20.5507C3.57848 20.4869 3.5089 20.4173 3.44508 20.3426C2.99567 19.8164 2.99567 19.023 2.99567 17.4363L2.99567 16.9092M16.9956 3.00012H18.1446C19.414 3.00012 20.0487 3.00012 20.4696 3.35965C20.5294 3.4107 20.5851 3.46637 20.6361 3.52615C20.9956 3.9471 20.9956 4.58179 20.9956 5.85118V7.00012M8.49561 15.5001C8.49561 15.5001 9.49561 17.0001 11.9956 17.0001C14.4956 17.0001 15.4956 15.5001 15.4956 15.5001M7.99121 7.60022V9.10022M16.9912 7.60022V9.10022M12.4956 7.50012V10.419C12.4956 11.3632 11.8914 12.2015 10.9956 12.5001" stroke="#272727" stroke-width="1.5" stroke-linecap="round" stroke-linejoin="round"/>
</svg>
