<svg width="24" height="24" viewBox="0 0 24 24" fill="none" xmlns="http://www.w3.org/2000/svg">
<path fill-rule="evenodd" clip-rule="evenodd" d="M17.5126 20.7352C18.0158 19.864 18.7081 19.0002 18.7081 19.0002C18.7081 19.0002 19.4004 19.864 19.9036 20.7352C20.1908 21.2324 20.4163 21.7321 20.4163 22.0749C20.4163 23.0183 19.6515 23.7831 18.7081 23.7831C17.7647 23.7831 16.9999 23.0183 16.9999 22.0749C16.9999 21.7321 17.2255 21.2324 17.5126 20.7352Z" fill="#0C0F0F"/>
<path fill-rule="evenodd" clip-rule="evenodd" d="M5.7002 1.00016C5.7002 0.558337 6.05837 0.200165 6.5002 0.200165H12.5002C12.942 0.200165 13.3002 0.558337 13.3002 1.00016C13.3002 1.44199 12.942 1.80016 12.5002 1.80016H10.3002V3.70016H11.1459C12.0594 3.70016 12.8 4.44073 12.8 5.35426V7.20016H17C19.6509 7.20016 21.7999 9.3492 21.7999 12.0002V17.1461C21.7999 18.0596 21.0594 18.8002 20.1459 18.8002H16.7971C15.8836 18.8002 15.143 18.0596 15.143 17.1461V15.075C15.143 14.9646 15.0535 14.875 14.943 14.875H12.99L6.99494 14.8002L5.24217 14.8002L3.22106 16.1476C2.35714 16.7235 1.19995 16.1042 1.19995 15.0659V6.93876C1.19995 5.89819 2.36164 5.27935 3.22522 5.85988L5.21896 7.20016H6.19995V5.35426C6.19995 4.44073 6.94052 3.70016 7.85405 3.70016H8.7002V1.80016H6.5002C6.05837 1.80016 5.7002 1.44199 5.7002 1.00016ZM7.85405 5.30016C7.82417 5.30016 7.79995 5.32438 7.79995 5.35426V7.50016C7.79995 8.21813 7.21792 8.80017 6.49995 8.80017H5.1275C4.86914 8.80017 4.61664 8.72318 4.40223 8.57904L2.79995 7.50192V14.5054L4.43023 13.4185C4.64377 13.2761 4.89469 13.2002 5.15135 13.2002L7.00993 13.2002L13.005 13.275H14.943C15.9371 13.275 16.743 14.0809 16.743 15.075V17.1461C16.743 17.1759 16.7672 17.2002 16.7971 17.2002H20.1459C20.1757 17.2002 20.2 17.1759 20.2 17.1461V12.0002C20.2 10.2329 18.7673 8.80017 17 8.80017H12.5C11.782 8.80017 11.2 8.21814 11.2 7.50016V5.35426C11.2 5.32438 11.1757 5.30016 11.1459 5.30016H7.85405Z" fill="#0C0F0F"/>
</svg>
