<svg width="24" height="24" viewBox="0 0 24 24" fill="none" xmlns="http://www.w3.org/2000/svg">
<g clip-path="url(#clip0_1207_72)">
<path d="M11.7842 1.86133C11.8686 1.71646 12.0621 1.69799 12.1738 1.80664L12.2158 1.86133L15.0098 6.65723C15.2261 7.02863 15.5703 7.30541 15.9746 7.43848L16.1514 7.48633L21.5762 8.66113C21.74 8.69671 21.817 8.87582 21.748 9.01562L21.709 9.07227L18.0117 13.2109C17.7254 13.5314 17.5681 13.9445 17.5664 14.3701L17.5752 14.5537L18.1348 20.0752C18.1517 20.2421 18.0049 20.3711 17.8506 20.3486L17.7852 20.3291L12.7061 18.0918C12.3127 17.9185 11.8711 17.8964 11.4658 18.0264L11.2939 18.0918L6.21484 20.3291C6.06152 20.3965 5.89474 20.2979 5.86816 20.1445L5.86523 20.0752L6.4248 14.5537C6.4681 14.1261 6.35226 13.6998 6.10352 13.3545L5.98828 13.2109L2.29102 9.07227C2.17926 8.9472 2.22138 8.75716 2.35938 8.68457L2.42383 8.66113L7.84863 7.48633C8.26865 7.39536 8.63813 7.15384 8.88965 6.81055L8.99023 6.65723L11.7842 1.86133Z" stroke="#272727" stroke-width="1.5"/>
</g>
<defs>
<clipPath id="clip0_1207_72">
<rect width="24" height="24" fill="white"/>
</clipPath>
</defs>
</svg>
