<svg width="24" height="24" viewBox="0 0 24 24" fill="none" xmlns="http://www.w3.org/2000/svg">
<g clip-path="url(#clip0_2015_236)">
<path d="M11.1359 1.48371C11.5216 0.821443 12.4784 0.821443 12.8641 1.48371L15.6576 6.27983C15.7989 6.52243 16.0357 6.69445 16.3101 6.75387L21.7347 7.92855C22.4837 8.09076 22.7794 9.00068 22.2687 9.57219L18.5706 13.711C18.3835 13.9204 18.2931 14.1987 18.3214 14.4781L18.8805 20.0002C18.9577 20.7627 18.1836 21.325 17.4823 21.016L12.4032 18.7778C12.1463 18.6646 11.8537 18.6646 11.5968 18.7778L6.51769 21.016C5.81635 21.325 5.04232 20.7627 5.11953 20.0002L5.67864 14.4781C5.70692 14.1987 5.61648 13.9204 5.42941 13.711L1.73127 9.57219C1.22062 9.00068 1.51627 8.09076 2.26532 7.92855L7.68993 6.75387C7.96433 6.69445 8.2011 6.52243 8.3424 6.27983L11.1359 1.48371Z" fill="#FFE05A"/>
</g>
<defs>
<clipPath id="clip0_2015_236">
<rect width="24" height="24" fill="white"/>
</clipPath>
</defs>
</svg>
