<svg width="24" height="24" viewBox="0 0 24 24" fill="none" xmlns="http://www.w3.org/2000/svg">
<path d="M12.685 4.10579C12.3921 4.39868 12.3921 4.87355 12.685 5.16645C12.9779 5.45934 13.4528 5.45934 13.7457 5.16645L12.685 4.10579ZM14.6244 4.28777C14.9173 3.99488 14.9173 3.52001 14.6244 3.22711C14.3315 2.93422 13.8566 2.93422 13.5637 3.22711L14.6244 4.28777ZM9.24358 3.24275C9.24358 3.65696 9.57936 3.99275 9.99358 3.99275C10.4078 3.99275 10.7436 3.65697 10.7436 3.24275L9.24358 3.24275ZM10.7436 2.00013C10.7436 1.58591 10.4078 1.25012 9.99359 1.25012C9.57938 1.25012 9.24359 1.5859 9.24359 2.00012L10.7436 2.00013ZM5.34285 8.64349C5.75706 8.64348 6.09285 8.30769 6.09285 7.89348C6.09284 7.47927 5.75706 7.14348 5.34284 7.14349L5.34285 8.64349ZM4.10022 7.14349C3.686 7.14349 3.35022 7.47928 3.35022 7.8935C3.35022 8.30771 3.68601 8.64349 4.10022 8.64349L4.10022 7.14349ZM14.6443 7.14344C14.23 7.14344 13.8943 7.47923 13.8943 7.89344C13.8943 8.30766 14.2301 8.64344 14.6443 8.64344L14.6443 7.14344ZM15.8869 8.64343C16.3011 8.64343 16.6369 8.30764 16.6369 7.89343C16.6369 7.47921 16.3011 7.14343 15.8869 7.14343L15.8869 8.64343ZM6.24145 5.16648C6.53434 5.45937 7.00922 5.45937 7.30211 5.16648C7.595 4.87359 7.595 4.39871 7.30211 4.10582L6.24145 5.16648ZM6.42345 3.22715C6.13055 2.93426 5.65568 2.93426 5.36279 3.22715C5.06989 3.52005 5.06989 3.99492 5.36279 4.28781L6.42345 3.22715ZM19.8996 20.7329L20.6443 20.8219C20.6478 20.7924 20.6496 20.7627 20.6496 20.7329H19.8996ZM19.6794 21.191L19.0706 20.753L19.0699 20.754L19.6794 21.191ZM18.0909 21.9981V21.2481H18.0907L18.0909 21.9981ZM10.7493 22.0001V22.7501H10.7495L10.7493 22.0001ZM8.99224 21.1553L9.5781 20.687L9.57775 20.6866L8.99224 21.1553ZM4.96644 16.1261L4.38079 16.5946L4.38093 16.5948L4.96644 16.1261ZM4.76416 14.6863L5.45174 14.9859L5.45196 14.9854L4.76416 14.6863ZM6.6422 14.3393L6.94913 13.6549L6.94263 13.6521L6.6422 14.3393ZM8.41911 16.1638L7.7176 16.4291C7.84549 16.7672 8.1964 16.966 8.55218 16.9019C8.90796 16.8377 9.16735 16.5289 9.1691 16.1674L8.41911 16.1638ZM8.46274 7.12463L9.21273 7.12825L9.21273 7.12796L8.46274 7.12463ZM9.02397 5.98234L9.4798 6.57793L9.48073 6.57721L9.02397 5.98234ZM10.4558 5.90699L10.9181 5.31642L10.917 5.31555L10.4558 5.90699ZM11.0012 7.03936L11.7512 7.03679L11.7512 7.03598L11.0012 7.03936ZM11.017 11.6819L10.267 11.6844L10.267 11.685L11.017 11.6819ZM11.021 12.6457L10.271 12.6488C10.2723 12.9725 10.4813 13.2589 10.7892 13.359C11.0971 13.459 11.4345 13.3502 11.6259 13.0891L11.021 12.6457ZM14.2099 12.7845L13.6265 13.2559C13.7808 13.4467 14.0186 13.5501 14.2633 13.5326C14.5081 13.5151 14.7288 13.379 14.8543 13.1682L14.2099 12.7845ZM17.3215 12.8876L16.7351 13.3552C16.8939 13.5544 17.1431 13.6594 17.3966 13.6339C17.6501 13.6083 17.8733 13.4559 17.9892 13.229L17.3215 12.8876ZM19.3919 12.2768L19.9655 11.7935L19.9591 11.7861L19.3919 12.2768ZM13.7457 5.16645L14.6244 4.28777L13.5637 3.22711L12.685 4.10579L13.7457 5.16645ZM10.7436 3.24275L10.7436 2.00013L9.24359 2.00012L9.24358 3.24275L10.7436 3.24275ZM5.34284 7.14349L4.10022 7.14349L4.10022 8.64349L5.34285 8.64349L5.34284 7.14349ZM14.6443 8.64344L15.8869 8.64343L15.8869 7.14343L14.6443 7.14344L14.6443 8.64344ZM7.30211 4.10582L6.42345 3.22715L5.36279 4.28781L6.24145 5.16648L7.30211 4.10582ZM19.1496 13.6809V20.7329H20.6496V13.6809H19.1496ZM19.8996 20.7329C19.1549 20.6439 19.1549 20.6435 19.1549 20.6432C19.155 20.6431 19.155 20.6428 19.155 20.6426C19.1551 20.6421 19.1551 20.6417 19.1552 20.6413C19.1553 20.6404 19.1554 20.6396 19.1555 20.6388C19.1557 20.6371 19.1559 20.6355 19.1561 20.6339C19.1565 20.6308 19.157 20.6278 19.1574 20.625C19.1582 20.6193 19.1591 20.6143 19.1598 20.6098C19.1614 20.601 19.1628 20.5946 19.1638 20.5905C19.1658 20.5823 19.166 20.5837 19.1622 20.5936C19.155 20.6127 19.1311 20.669 19.0706 20.753L20.2882 21.629C20.4261 21.4374 20.5122 21.2646 20.5655 21.1236C20.592 21.0534 20.6101 20.9919 20.6223 20.9409C20.6284 20.9154 20.6331 20.8926 20.6366 20.8727C20.6384 20.8628 20.6399 20.8535 20.6412 20.8451C20.6418 20.8408 20.6423 20.8368 20.6429 20.8329C20.6431 20.831 20.6434 20.8291 20.6436 20.8273C20.6437 20.8264 20.6438 20.8255 20.6439 20.8246C20.644 20.8241 20.644 20.8237 20.6441 20.8233C20.6441 20.823 20.6442 20.8227 20.6442 20.8226C20.6442 20.8223 20.6443 20.8219 19.8996 20.7329ZM19.0699 20.754C18.8481 21.0634 18.4851 21.2481 18.0909 21.2481V22.7481C18.9541 22.7481 19.777 22.3419 20.2889 21.628L19.0699 20.754ZM18.0907 21.2481L10.7491 21.2501L10.7495 22.7501L18.0911 22.7481L18.0907 21.2481ZM10.7493 21.2501C10.2932 21.2501 9.86222 21.0425 9.5781 20.687L8.40637 21.6236C8.97501 22.335 9.83706 22.7501 10.7493 22.7501V21.2501ZM9.57775 20.6866L5.55196 15.6574L4.38093 16.5948L8.40672 21.624L9.57775 20.6866ZM5.55209 15.6576C5.39243 15.458 5.35984 15.1968 5.45173 14.9859L4.07659 14.3868C3.75202 15.1317 3.88998 15.9811 4.38079 16.5946L5.55209 15.6576ZM5.45196 14.9854C5.4831 14.9137 5.512 14.886 5.52582 14.8758C5.53274 14.8708 5.54307 14.8646 5.56134 14.8589C5.58026 14.853 5.61524 14.8453 5.67244 14.8453V13.3453C5.27771 13.3453 4.92636 13.4553 4.6386 13.6664C4.35841 13.8719 4.18404 14.1396 4.07636 14.3873L5.45196 14.9854ZM5.67244 14.8453C5.79479 14.8453 6.00726 14.8802 6.34177 15.0265L6.94263 13.6521C6.48785 13.4533 6.06572 13.3453 5.67244 13.3453V14.8453ZM6.33529 15.0236C6.83897 15.2495 7.18877 15.6043 7.41663 15.9151C7.52975 16.0694 7.60895 16.2077 7.65845 16.304C7.68306 16.3519 7.69994 16.3887 7.70967 16.4109C7.71453 16.4219 7.71757 16.4293 7.71887 16.4325C7.71952 16.4341 7.71973 16.4346 7.71952 16.4341C7.71941 16.4338 7.7192 16.4332 7.71888 16.4324C7.71872 16.432 7.71853 16.4315 7.71832 16.431C7.71821 16.4307 7.7181 16.4304 7.71798 16.4301C7.71792 16.4299 7.71783 16.4297 7.7178 16.4296C7.7177 16.4293 7.7176 16.4291 8.41911 16.1638C9.12061 15.8984 9.12051 15.8982 9.12041 15.8979C9.12037 15.8978 9.12026 15.8975 9.12019 15.8973C9.12004 15.8969 9.11988 15.8965 9.11972 15.8961C9.11939 15.8952 9.11903 15.8943 9.11864 15.8933C9.11787 15.8913 9.11696 15.8889 9.11593 15.8863C9.11386 15.881 9.11129 15.8746 9.10819 15.867C9.102 15.8518 9.09371 15.8319 9.08321 15.808C9.06223 15.7602 9.03232 15.6957 8.99261 15.6184C8.91344 15.4644 8.79383 15.2566 8.62634 15.0282C8.29297 14.5735 7.75431 14.0161 6.94911 13.6549L6.33529 15.0236ZM9.21273 7.12796C9.21371 6.90679 9.31501 6.70404 9.4798 6.57793L8.56813 5.38676C8.02295 5.80402 7.71573 6.45006 7.71274 7.1213L9.21273 7.12796ZM9.48073 6.57721C9.63858 6.45601 9.75492 6.42099 9.81921 6.42099V4.92099C9.28855 4.92099 8.85358 5.16758 8.5672 5.38748L9.48073 6.57721ZM9.81921 6.42099C9.83726 6.42099 9.85722 6.4237 9.88163 6.43238C9.90647 6.44122 9.9445 6.45935 9.9946 6.49842L10.917 5.31555C10.5781 5.05129 10.2017 4.92099 9.81921 4.92099V6.42099ZM9.99348 6.49754C10.1513 6.62107 10.2502 6.82074 10.2512 7.04273L11.7512 7.03598C11.7482 6.37746 11.4544 5.73628 10.9181 5.31643L9.99348 6.49754ZM10.267 11.685L10.271 12.6488L11.771 12.6426L11.767 11.6788L10.267 11.685ZM11.021 12.6457C11.6259 13.0891 11.6257 13.0893 11.6256 13.0895C11.6255 13.0895 11.6254 13.0897 11.6253 13.0899C11.6251 13.0901 11.625 13.0904 11.6248 13.0906C11.6244 13.091 11.6241 13.0914 11.6239 13.0918C11.6234 13.0925 11.623 13.093 11.6227 13.0934C11.6222 13.0941 11.6222 13.094 11.6228 13.0933C11.6239 13.0919 11.6271 13.0877 11.6323 13.0813C11.6428 13.0683 11.661 13.0465 11.6863 13.0188C11.7377 12.9625 11.8138 12.8866 11.909 12.8116C12.1094 12.6539 12.3313 12.5489 12.552 12.5489V11.0489C11.8624 11.0489 11.3188 11.3673 10.9813 11.6329C10.8075 11.7697 10.6716 11.9055 10.5781 12.0079C10.531 12.0596 10.4936 12.1039 10.4666 12.1373C10.4531 12.154 10.442 12.1681 10.4336 12.179C10.4294 12.1845 10.4258 12.1892 10.4229 12.1931C10.4215 12.1951 10.4202 12.1968 10.419 12.1983C10.4185 12.1991 10.4179 12.1998 10.4174 12.2005C10.4172 12.2008 10.417 12.2011 10.4167 12.2014C10.4166 12.2016 10.4165 12.2018 10.4164 12.2019C10.4163 12.2021 10.4161 12.2023 11.021 12.6457ZM12.552 12.5489C12.7528 12.5489 13.1251 12.6352 13.6265 13.2559L14.7933 12.3131C14.0929 11.4464 13.3269 11.0489 12.552 11.0489V12.5489ZM14.2099 12.7845C14.8543 13.1682 14.8542 13.1684 14.8541 13.1686C14.854 13.1687 14.8539 13.1689 14.8538 13.169C14.8537 13.1693 14.8535 13.1695 14.8534 13.1698C14.8531 13.1703 14.8528 13.1707 14.8526 13.1711C14.8521 13.1718 14.8518 13.1724 14.8516 13.1727C14.8512 13.1735 14.8512 13.1734 14.8517 13.1725C14.8528 13.1708 14.8557 13.1662 14.8605 13.159C14.87 13.1446 14.8866 13.1206 14.9096 13.0901C14.9564 13.0281 15.0253 12.9458 15.1116 12.8654C15.2958 12.6939 15.4843 12.5985 15.6636 12.5985V11.0985C14.9464 11.0985 14.4081 11.471 14.0895 11.7675C13.9245 11.9212 13.798 12.0729 13.7124 12.1863C13.6692 12.2436 13.6351 12.2927 13.6107 12.3295C13.5985 12.348 13.5886 12.3634 13.581 12.3754C13.5773 12.3815 13.5741 12.3866 13.5715 12.3909C13.5702 12.393 13.569 12.3949 13.568 12.3966C13.5675 12.3974 13.5671 12.3982 13.5666 12.3989C13.5664 12.3992 13.5662 12.3996 13.566 12.3999C13.5659 12.4001 13.5658 12.4003 13.5657 12.4004C13.5656 12.4006 13.5655 12.4008 14.2099 12.7845ZM15.6636 12.5985C15.8249 12.5985 16.1936 12.6762 16.7351 13.3552L17.9078 12.42C17.2 11.5324 16.4423 11.0985 15.6636 11.0985V12.5985ZM17.3215 12.8876C17.9892 13.229 17.9892 13.2292 17.9891 13.2294C17.989 13.2294 17.989 13.2296 17.9889 13.2297C17.9888 13.2299 17.9887 13.2301 17.9886 13.2303C17.9884 13.2307 17.9883 13.231 17.9881 13.2312C17.9879 13.2317 17.9878 13.2319 17.9878 13.2319C17.9878 13.2319 17.9882 13.231 17.9892 13.2293C17.991 13.2258 17.9947 13.2189 18.0002 13.2092C18.0112 13.1897 18.0289 13.1591 18.0526 13.1213C18.101 13.044 18.1695 12.9446 18.2518 12.8488C18.4523 12.6155 18.5774 12.5826 18.5946 12.5826V11.0826C17.8782 11.0826 17.3667 11.5772 17.114 11.8714C16.9697 12.0394 16.8575 12.2037 16.7818 12.3243C16.7435 12.3853 16.7134 12.4372 16.692 12.4754C16.6812 12.4945 16.6726 12.5103 16.6663 12.5222C16.6631 12.5282 16.6604 12.5333 16.6583 12.5373C16.6573 12.5393 16.6563 12.541 16.6556 12.5425C16.6552 12.5433 16.6548 12.5439 16.6545 12.5446C16.6544 12.5449 16.6542 12.5452 16.6541 12.5454C16.654 12.5456 16.6539 12.5458 16.6539 12.5458C16.6538 12.546 16.6537 12.5462 17.3215 12.8876ZM18.5946 12.5826C18.5949 12.5826 18.5962 12.5825 18.5998 12.5834C18.6035 12.5844 18.6136 12.5874 18.6303 12.5962C18.6645 12.6144 18.7316 12.6599 18.8247 12.7675L19.9591 11.7861C19.5816 11.3498 19.1203 11.0826 18.5946 11.0826V12.5826ZM18.8183 12.7601C19.0307 13.0121 19.1496 13.3396 19.1496 13.6809H20.6496C20.6496 12.9949 20.4114 12.3228 19.9654 11.7935L18.8183 12.7601ZM9.1691 16.1674L9.21273 7.12825L7.71274 7.12101L7.66911 16.1601L9.1691 16.1674ZM10.2512 7.04192L10.267 11.6844L11.767 11.6793L11.7512 7.03679L10.2512 7.04192Z" fill="black"/>
</svg>
