<svg width="24" height="24" viewBox="0 0 24 24" fill="none" xmlns="http://www.w3.org/2000/svg">
<path d="M11.6221 2.87808C12.7479 2.8244 13.844 3.24816 14.641 4.04511L19.9442 9.34826C21.5063 10.9104 21.5063 13.443 19.9442 15.0051L14.9944 19.9549C13.4323 21.517 10.8997 21.517 9.33755 19.9549L4.05586 14.6732C3.24643 13.8637 2.82258 12.7463 2.89156 11.6037L3.23239 5.95795C3.3247 4.42897 4.55404 3.21508 6.08406 3.14213L11.6221 2.87808Z" stroke="#272727" stroke-width="1.5"/>
<path d="M13.3194 10.5324C13.3194 11.9131 12.2001 13.0324 10.8194 13.0324C9.4387 13.0324 8.31941 11.9131 8.31941 10.5324C8.31941 9.15165 9.4387 8.03236 10.8194 8.03236C12.2001 8.03236 13.3194 9.15165 13.3194 10.5324Z" stroke="#272727" stroke-width="1.5"/>
</svg>
