<svg width="24" height="24" viewBox="0 0 24 24" fill="none" xmlns="http://www.w3.org/2000/svg">
<path d="M3.28058 5.59536C3 6.02474 3 6.57598 3 7.67847V12.441C3 16.5051 5.81796 20.0587 9.86132 21.0934L10.8713 21.3519C11.6474 21.5506 12.4635 21.5493 13.239 21.3484L14.1442 21.1138C18.187 20.0663 21 16.5077 21 12.441V7.66922C21 6.57069 21 6.02143 20.721 5.59291C20.6808 5.5311 20.6366 5.47181 20.5887 5.41537C20.2568 5.02414 19.7198 4.85295 18.6459 4.51057L18.6459 4.51056L13.115 2.74714C12.6177 2.58858 12.369 2.5093 12.1122 2.50097C12.0744 2.49975 12.0365 2.49968 11.9987 2.50077C11.7419 2.50819 11.4929 2.58659 10.995 2.74339L5.36592 4.51605L5.36591 4.51605C4.28689 4.85585 3.74738 5.02575 3.41361 5.41754C3.36547 5.47404 3.32104 5.53343 3.28058 5.59536Z" stroke="#272727" stroke-width="1.5" stroke-linecap="round" stroke-linejoin="round"/>
<path d="M13.4802 9.36403C13.2714 9.09858 12.9746 8.89168 12.6274 8.7695C12.2802 8.64733 11.8981 8.61536 11.5295 8.67765C11.1609 8.73993 10.8223 8.89367 10.5566 9.11942C10.2908 9.34517 10.1098 9.63279 10.0365 9.94592C9.96319 10.259 10.0008 10.5836 10.1446 10.8786C10.2885 11.1735 10.532 11.4256 10.8445 11.603C11.157 11.7804 11.5159 11.8085 11.9002 11.875C12.6284 12.0012 13.2453 12.2325 13.5541 12.8658C13.6979 13.1608 13.7356 13.4853 13.6622 13.7985C13.5889 14.1116 13.4079 14.3992 13.1422 14.625C12.8764 14.8507 12.5379 15.0044 12.1692 15.0667C11.8006 15.129 11.4186 15.097 11.0714 14.9749C10.7241 14.8527 10.4274 14.6458 10.2186 14.3803M12.0112 7.6582V8.64938M12.0112 15.0876V16.0229" stroke="#272727" stroke-width="1.5" stroke-linecap="round" stroke-linejoin="round"/>
</svg>
