<svg width="24" height="24" viewBox="0 0 24 24" fill="none" xmlns="http://www.w3.org/2000/svg">
<g clip-path="url(#clip0_1816_165)">
<g clip-path="url(#clip1_1816_165)">
<path fill-rule="evenodd" clip-rule="evenodd" d="M17.3271 15.6675C17.3271 15.6675 17.327 15.6675 17.327 15.6675V15.6674L14.8305 13.1834L17.3271 15.6675ZM18.2057 15.1849L17.5017 14.4307L15.0044 11.9457L17.5058 9.41946L18.2795 8.70403C20.5057 9.9309 22.1686 10.8425 22.5113 11.022C23.7194 11.6718 23.1056 12.5083 22.5113 12.8243C22.3848 12.8873 21.3446 13.4592 19.7957 14.3109C19.3113 14.5772 18.7772 14.8708 18.2057 15.1849ZM13.5919 11.951L17.327 8.17883L13.5919 11.9509L13.5919 11.951Z" fill="white"/>
<path fill-rule="evenodd" clip-rule="evenodd" d="M1.69897 23.9377C1.97813 23.9746 2.29328 23.9006 2.66484 23.6964C2.79416 23.6256 3.12927 23.4424 3.62397 23.1721C6.11359 21.8114 12.6449 18.2419 17.3269 15.6689L14.3005 12.6568L3.5485 22.0736L1.69897 23.9377ZM13.2265 12.3196L13.5919 11.9515L13.5919 11.9514L13.2265 12.3196Z" fill="white"/>
<path fill-rule="evenodd" clip-rule="evenodd" d="M1.70032 0.0172882C1.69372 0.0183461 1.68712 0.0194522 1.68054 0.0206063L13.5429 11.9024L1.70032 0.0172882ZM13.5919 11.9514L13.5919 11.9514L13.5921 11.9512L13.5919 11.9514ZM14.3385 11.2011L17.327 8.19786C17.327 8.19786 3.50139 0.652665 2.66489 0.207263C2.60113 0.169499 2.53581 0.137106 2.46956 0.109916L13.5907 10.535L14.3385 11.2011Z" fill="white"/>
<path fill-rule="evenodd" clip-rule="evenodd" d="M1.68052 0.0206299L13.5919 11.9514L13.5223 12.0216L12.8875 12.6611L0.965546 23.4186C0.848611 23.1797 0.788574 22.8738 0.788574 22.5254V1.43295C0.788574 0.559491 1.1971 0.132396 1.68052 0.0206299ZM1.60472 23.9426C1.63533 23.9486 1.66675 23.9531 1.699 23.9562L3.66547 21.9712L3.54833 22.0738L1.699 23.9377L1.60472 23.9426Z" fill="white"/>
</g>
</g>
<defs>
<clipPath id="clip0_1816_165">
<rect width="24" height="24" fill="white"/>
</clipPath>
<clipPath id="clip1_1816_165">
<rect width="22.4234" height="24" fill="white" transform="translate(0.788574 0.00012207)"/>
</clipPath>
</defs>
</svg>
