<svg width="24" height="24" viewBox="0 0 24 24" fill="none" xmlns="http://www.w3.org/2000/svg">
<g clip-path="url(#clip0_1746_153)">
<g clip-path="url(#clip1_1746_153)">
<path d="M17.3712 8.4884C19.9778 9.92611 22.0004 11.0355 22.3927 11.2413V11.2423C22.6694 11.3911 22.8162 11.5374 22.8888 11.6603C22.9578 11.7773 22.9678 11.8864 22.9435 11.9913C22.8897 12.2225 22.6582 12.463 22.3937 12.6036C22.17 12.7172 20.0988 13.8591 17.3702 15.3575L13.9454 11.9493L17.3712 8.4884Z" fill="#222727" stroke="white" stroke-width="0.5"/>
<path d="M16.9128 15.6096C14.1609 17.1215 10.8316 18.9465 8.06421 20.4602L2.54468 23.4768C2.51914 23.4908 2.49314 23.5033 2.46851 23.5159L13.5925 12.304L16.9128 15.6096Z" fill="#222727" stroke="white" stroke-width="0.5"/>
<path d="M2.3407 0.328262C2.40737 0.353362 2.47383 0.38403 2.53796 0.422012L2.53699 0.422989L2.54773 0.427872C2.96563 0.650403 6.62886 2.64676 10.1903 4.589C11.9707 5.55993 13.7249 6.5173 15.0341 7.23158C15.6884 7.58858 16.2316 7.88478 16.6112 8.09193C16.728 8.15564 16.8297 8.21098 16.9139 8.25697L13.5917 11.5968L2.3407 0.328262Z" fill="#222727" stroke="white" stroke-width="0.5"/>
<path d="M13.2388 11.9523L1.61377 23.6866C1.45585 23.6448 1.32962 23.5463 1.23389 23.3898C1.11216 23.1906 1.03859 22.8962 1.03857 22.5255V1.43272L1.04248 1.28917C1.06203 0.968113 1.14723 0.740784 1.25732 0.585068C1.35287 0.450016 1.47438 0.358528 1.60986 0.303818L13.2388 11.9523Z" fill="#222727" stroke="white" stroke-width="0.5"/>
</g>
</g>
<defs>
<clipPath id="clip0_1746_153">
<rect width="24" height="24" fill="white"/>
</clipPath>
<clipPath id="clip1_1746_153">
<rect width="22.4234" height="24" fill="white" transform="translate(0.788574 0.00012207)"/>
</clipPath>
</defs>
</svg>
