<svg width="24" height="24" viewBox="0 0 24 24" fill="none" xmlns="http://www.w3.org/2000/svg">
<g clip-path="url(#clip0_516_41)">
<g clip-path="url(#clip1_516_41)">
<path d="M17.3267 15.668C20.1699 14.1069 22.3252 12.9173 22.511 12.8248C23.1053 12.5087 23.7191 11.6723 22.511 11.0225C22.121 10.8182 20.021 9.66563 17.3267 8.17929L13.5916 11.9514L17.3267 15.6679V15.668Z" fill="#FFD900"/>
<path d="M13.5916 11.9514L1.69873 23.9377C1.97788 23.9746 2.29304 23.9006 2.6646 23.6964C3.44469 23.2693 11.7144 18.7532 17.3267 15.6689L13.5916 11.9514Z" fill="#F43249"/>
<path d="M13.5917 11.9514L17.3267 8.19786C17.3267 8.19786 3.50114 0.652665 2.66465 0.207264C2.34949 0.020607 1.99633 -0.0348383 1.6803 0.020607L13.5917 11.9514Z" fill="#00EE76"/>
<path d="M13.5916 11.9514L1.68027 0.0206299C1.19686 0.132396 0.78833 0.559491 0.78833 1.43295V22.5254C0.78833 23.3248 1.10445 23.9006 1.69875 23.9562L13.5916 11.9514Z" fill="#00D3FF"/>
</g>
</g>
<defs>
<clipPath id="clip0_516_41">
<rect width="24" height="24" fill="white"/>
</clipPath>
<clipPath id="clip1_516_41">
<rect width="22.4234" height="24" fill="white" transform="translate(0.78833 0.00012207)"/>
</clipPath>
</defs>
</svg>
