<svg width="24" height="24" viewBox="0 0 24 24" fill="none" xmlns="http://www.w3.org/2000/svg">
<path d="M9.18828 2.50012C5.0433 3.59084 1.98682 7.35951 1.98682 11.841C1.98682 17.1756 6.31767 21.5001 11.66 21.5001C15.9214 21.5001 19.5392 18.7487 20.8288 14.9278" stroke="#272727" stroke-width="1.5" stroke-linecap="round"/>
<path d="M21.3868 12C21.7182 12 21.9887 11.7311 21.9688 11.4004C21.9023 10.2922 21.6515 9.2014 21.2256 8.17317C20.7231 6.95991 19.9865 5.85752 19.0579 4.92893C18.1293 4.00035 17.0269 3.26375 15.8137 2.76121C14.7854 2.3353 13.6946 2.08457 12.5865 2.018C12.2557 1.99813 11.9868 2.26863 11.9868 2.6V10.8C11.9868 11.4627 12.5241 12 13.1868 12H21.3868Z" stroke="#272727" stroke-width="1.5"/>
</svg>
