<svg width="24" height="24" viewBox="0 0 24 24" fill="none" xmlns="http://www.w3.org/2000/svg">
<path d="M18.032 9.62637H17.972C17.6431 9.62637 17.3192 9.70683 17.0285 9.86075C16.6827 9.14825 15.9766 8.69661 15.1846 8.69661H15.1251C14.827 8.69677 14.5326 8.76296 14.2631 8.89044C13.9638 8.08372 13.1964 7.53481 12.3374 7.53481H12.2777C12.0285 7.53481 11.7801 7.58169 11.5476 7.67192V6.1452C11.5476 4.98926 10.6244 4.04895 9.48978 4.04895H9.43283C8.29822 4.04895 7.37502 4.98926 7.37502 6.1452V12.8024C7.37502 12.8394 7.36119 12.8746 7.33635 12.9008C7.3115 12.9271 7.27822 12.9421 7.24283 12.9428C7.20791 12.9428 7.17369 12.9299 7.14791 12.9046L6.41103 12.1808C6.39228 12.1623 6.3726 12.1438 6.35291 12.126C5.95799 11.7679 5.4501 11.5879 4.92205 11.6188C4.3926 11.65 3.90697 11.8895 3.55494 12.2936L3.37541 12.4998C3.06931 12.8511 2.88861 13.303 2.86611 13.772C2.84385 14.241 2.98095 14.7083 3.25213 15.0882L7.11627 20.4983C8.05166 21.8087 9.55963 22.5913 11.1506 22.5915H15.0993C17.8511 22.5915 20.0899 20.309 20.0899 17.5032V11.7226C20.0899 10.5667 19.1667 9.62637 18.032 9.62637Z" fill="#222727"/>
<path d="M12.8446 6.32751C12.5106 6.32751 12.2385 6.05189 12.2385 5.71298C12.2385 4.11595 10.9646 2.81658 9.39855 2.81658C7.8327 2.81658 6.55863 4.11595 6.55863 5.71298C6.55863 5.93142 6.44309 6.13509 6.25676 6.24478C6.06926 6.35517 5.83605 6.35517 5.64855 6.24478C5.46223 6.13509 5.34668 5.93142 5.34668 5.71298C5.34668 3.43814 7.16449 1.58728 9.39879 1.58728C11.6331 1.58728 13.4509 3.43814 13.4509 5.71298C13.4507 6.05189 13.1788 6.32751 12.8446 6.32751Z" fill="#222727"/>
</svg>
