<svg width="24" height="24" viewBox="0 0 24 24" fill="none" xmlns="http://www.w3.org/2000/svg">
<path d="M4.68311 15.6543V10.5189V9.8C4.68311 5.76832 7.95143 2.5 11.9831 2.5V2.5C16.0148 2.5 19.2831 5.76832 19.2831 9.8V10.5189V16.4812C19.2831 19.253 17.0361 21.5 14.2644 21.5V21.5H12.0492" stroke="#222727" stroke-width="1.5" stroke-linecap="round" stroke-linejoin="round"/>
<path d="M2.3501 9.4043H4.69971V15.6543C4.69971 15.7924 4.58778 15.9043 4.44971 15.9043H2.3501C1.65974 15.9043 1.1001 15.3447 1.1001 14.6543V10.6543C1.1001 9.96394 1.65974 9.4043 2.3501 9.4043ZM21.6499 9.4043C22.3403 9.4043 22.8999 9.96394 22.8999 10.6543V14.6543C22.8999 15.3447 22.3403 15.9043 21.6499 15.9043H19.5503C19.4122 15.9043 19.3003 15.7924 19.3003 15.6543V9.4043H21.6499Z" stroke="#272727" stroke-width="1.5"/>
</svg>
