<svg width="24" height="24" viewBox="0 0 24 24" fill="none" xmlns="http://www.w3.org/2000/svg">
<path d="M6.18677 3.00012C3.97763 3.00012 2.18677 3.99506 2.18677 5.22236L2.19123 8.88377C2.2907 10.0619 4.04151 11.0001 6.18677 11.0001C8.33202 11.0001 10.0828 10.0619 10.1823 8.88377L10.1868 5.22236C10.1868 3.99506 8.39591 3.00012 6.18677 3.00012ZM6.18677 3.00012C8.39591 3.00012 10.1868 3.89553 10.1868 5.0001C10.1868 6.10466 8.39591 7.0001 6.18677 7.0001C3.97763 7.0001 2.18677 6.10466 2.18677 5.0001C2.18677 3.89553 3.97763 3.00012 6.18677 3.00012Z" stroke="#272727" stroke-width="1.5"/>
<path d="M19.7368 12.7501C19.7368 13.9928 18.7295 15.0001 17.4868 15.0001C16.2442 15.0001 15.2368 13.9928 15.2368 12.7501C15.2368 11.5075 16.2442 10.5001 17.4868 10.5001C18.7295 10.5001 19.7368 11.5075 19.7368 12.7501Z" stroke="#272727" stroke-width="1.5" stroke-linecap="round" stroke-linejoin="round"/>
<path d="M17.4956 15.3002C15.3241 15.3002 13.5119 16.9701 13.0889 19.1916C12.9856 19.7342 13.4433 20.1859 13.9956 20.1859H20.9956C21.5479 20.1859 22.0057 19.7342 21.9024 19.1916C21.4793 16.9701 19.6671 15.3002 17.4956 15.3002Z" stroke="#272727" stroke-width="1.5" stroke-linecap="round" stroke-linejoin="round"/>
<path d="M2.98682 15.0001V15.0703C2.98682 17.793 5.19398 20.0001 7.91666 20.0001V20.0001C7.9523 20.0001 7.97844 19.9666 7.9698 19.9321L7.48682 18.0001" stroke="#272727" stroke-width="1.5" stroke-linecap="round"/>
<path d="M20.9868 9.00012V9.00012C20.9868 6.2387 18.7482 4.00012 15.9868 4.00012V4.00012L16.4868 6.00012" stroke="#272727" stroke-width="1.5" stroke-linecap="round" stroke-linejoin="round"/>
</svg>
