<svg width="24" height="24" viewBox="0 0 24 24" fill="none" xmlns="http://www.w3.org/2000/svg">
<path fill-rule="evenodd" clip-rule="evenodd" d="M11.6954 0.442952C11.8974 0.415378 12.1025 0.415378 12.3045 0.442952C12.5374 0.474737 12.7551 0.5523 12.9389 0.617836C12.9551 0.623604 12.971 0.629279 12.9867 0.634821L19.0187 2.77116C19.0673 2.78836 19.1153 2.80532 19.163 2.82211C19.8612 3.06838 20.4568 3.27849 20.9173 3.66176C21.3229 3.99934 21.641 4.42999 21.8384 4.91982C22.0648 5.48178 22.0638 6.10804 22.0626 6.80572C22.0625 6.85552 22.0625 6.90569 22.0625 6.95622V12.0375C22.0625 15.0636 20.3215 17.5737 18.4596 19.4057C16.5811 21.2539 14.4326 22.5587 13.2979 23.1839C13.2833 23.192 13.2684 23.2002 13.2533 23.2086C13.0434 23.3249 12.7863 23.4674 12.4468 23.5361C12.1712 23.5919 11.8287 23.5919 11.5532 23.5361C11.2137 23.4674 10.9565 23.3249 10.7466 23.2086C10.7315 23.2002 10.7166 23.192 10.702 23.1839C9.56727 22.5587 7.41878 21.2539 5.54032 19.4057C3.67839 17.5737 1.93746 15.0636 1.93746 12.0375V6.95622C1.93746 6.90569 1.93738 6.85552 1.93729 6.80572C1.93615 6.10804 1.93513 5.48178 2.16155 4.91982C2.35891 4.42999 2.67703 3.99934 3.08261 3.66176C3.54309 3.27849 4.13876 3.06838 4.83696 2.82211C4.88457 2.80532 4.93265 2.78836 4.9812 2.77116L11.0132 0.634821C11.0289 0.629278 11.0448 0.623603 11.061 0.617834C11.2449 0.552298 11.4625 0.474737 11.6954 0.442952ZM11.989 2.54774C11.984 2.54906 11.9748 2.5516 11.9604 2.55608C11.9118 2.5711 11.8472 2.59379 11.7226 2.6379L5.69063 4.77425C4.76684 5.10142 4.57079 5.18787 4.44203 5.29504C4.29935 5.4138 4.19513 5.55873 4.13258 5.71397C4.08095 5.8421 4.06246 6.0157 4.06246 6.95622V12.0375C4.06246 14.2267 5.33313 16.2207 7.03069 17.8909C8.71172 19.5449 10.6706 20.7404 11.7275 21.3227C11.7917 21.3581 11.8387 21.384 11.8797 21.4058C11.9199 21.4272 11.9446 21.4394 11.961 21.4469C11.966 21.4493 11.9699 21.4509 11.9727 21.4521C11.9799 21.4526 11.9893 21.453 12 21.453C12.0107 21.453 12.02 21.4526 12.0272 21.4521C12.03 21.4509 12.0339 21.4493 12.0389 21.4469C12.0553 21.4394 12.08 21.4272 12.1202 21.4058C12.1613 21.384 12.2083 21.3581 12.2725 21.3227C13.3293 20.7404 15.2882 19.5449 16.9692 17.8909C18.6668 16.2207 19.9375 14.2267 19.9375 12.0375V6.95622C19.9375 6.0157 19.919 5.8421 19.8673 5.71397C19.8048 5.55873 19.7006 5.4138 19.5579 5.29504C19.4291 5.18787 19.2331 5.10142 18.3093 4.77425L12.2773 2.6379C12.1527 2.59379 12.0881 2.5711 12.0396 2.55608C12.0251 2.5516 12.0159 2.54906 12.0109 2.54774C12.0036 2.54711 11.9963 2.54711 11.989 2.54774Z" fill="#78808D"/>
<path fill-rule="evenodd" clip-rule="evenodd" d="M16.71 8.12062C17.1129 8.54724 17.0937 9.2197 16.667 9.62261L11.6045 14.4039C11.1951 14.7906 10.5549 14.7906 10.1455 14.4039L7.89547 12.2789C7.46885 11.8759 7.44964 11.2035 7.85255 10.7769C8.25546 10.3503 8.92793 10.331 9.35454 10.734L10.875 12.17L15.208 8.07771C15.6346 7.6748 16.307 7.69401 16.71 8.12062Z" fill="#00D5C8"/>
</svg>
