<svg width="24" height="24" viewBox="0 0 24 24" fill="none" xmlns="http://www.w3.org/2000/svg">
<path d="M11.9956 7.40027V21.4003M11.9421 5.91398L9.20836 3.29472C7.68551 1.83564 5.00879 2.82853 5.00879 4.85248C5.00879 6.09387 6.10136 7.10022 7.44912 7.10022H11.9421V5.91398ZM12.4417 5.91398L15.1754 3.29472C16.6983 1.83564 19.375 2.82853 19.375 4.85248C19.375 6.09387 18.2824 7.10022 16.9347 7.10022H12.4417V5.91398ZM3.89429 12.2759H20.0303V19.4003C20.0303 20.5048 19.1348 21.4003 18.0303 21.4003H5.89429C4.78972 21.4003 3.89429 20.5048 3.89429 19.4003V12.2759ZM4.58347 12.2759H19.1565C20.5858 12.2759 21.7444 11.1173 21.7444 9.68808C21.7444 8.25884 20.5858 7.10022 19.1565 7.10022H4.58347C3.15423 7.10022 1.99561 8.25884 1.99561 9.68808C1.99561 11.1173 3.15423 12.2759 4.58347 12.2759Z" stroke="#272727" stroke-width="1.5" stroke-linecap="round" stroke-linejoin="round"/>
</svg>
