<svg width="24" height="24" viewBox="0 0 24 24" fill="none" xmlns="http://www.w3.org/2000/svg">
<path d="M8.99121 21.5424C4.9341 20.2681 1.99121 16.4779 1.99121 12.0002C1.99121 6.5958 6.2784 2.19271 11.6374 2.00635C11.7928 2.00095 11.8895 2.1698 11.8095 2.30311L10.4912 4.50021M15.1224 2.50021C19.1116 3.81429 21.9912 7.57096 21.9912 12.0002C21.9912 17.4046 17.704 21.8077 12.345 21.9941C12.1897 21.9995 12.093 21.8306 12.173 21.6973L13.4912 19.5002M15.1732 10.2827L13.759 8.86849C12.7827 7.89217 11.1998 7.89217 10.2234 8.86849L8.80924 10.2827C7.83292 11.259 7.83292 12.8419 8.80924 13.8182L10.2234 15.2324C11.1998 16.2088 12.7827 16.2088 13.759 15.2324L15.1732 13.8182C16.1495 12.8419 16.1495 11.259 15.1732 10.2827Z" stroke="#272727" stroke-width="1.5" stroke-linecap="round"/>
</svg>
