<svg width="24" height="24" viewBox="0 0 24 24" fill="none" xmlns="http://www.w3.org/2000/svg">
<path d="M8 12.5717H16M12 21.0001V13.2607M8.5 19.0001H6.5C3.46243 19.0001 1 16.5377 1 13.5001C1 10.4626 3.46243 8.00012 6.5 8.00012V8.00012C6.77614 8.00012 6.99737 7.77562 7.02462 7.50082C7.27516 4.97383 9.40709 3.00012 12 3.00012C14.5929 3.00012 16.7248 4.97383 16.9754 7.50082C17.0026 7.77562 17.2239 8.00012 17.5 8.00012V8.00012C20.5376 8.00012 23 10.4626 23 13.5001C23 16.5377 20.5376 19.0001 17.5 19.0001H15.5" stroke="#272727" stroke-width="1.5" stroke-linecap="round"/>
</svg>
