<svg width="24" height="24" viewBox="0 0 24 24" fill="none" xmlns="http://www.w3.org/2000/svg">
<path fill-rule="evenodd" clip-rule="evenodd" d="M12 3.00012C7.02944 3.00012 3 7.02956 3 12.0001C3 16.9707 7.02944 21.0001 12 21.0001C16.9706 21.0001 21 16.9707 21 12.0001C21 7.02956 16.9706 3.00012 12 3.00012ZM1 12.0001C1 5.92499 5.92487 1.00012 12 1.00012C18.0751 1.00012 23 5.92499 23 12.0001C23 18.0753 18.0751 23.0001 12 23.0001C5.92487 23.0001 1 18.0753 1 12.0001Z" fill="#78808D"/>
<path d="M8 13.7501C8 13.7501 9.5 15.7501 12 15.7501C14.5 15.7501 16 13.7501 16 13.7501" fill="white"/>
<path d="M15.5 8.75012C15.5 9.02626 15.2761 9.25012 15 9.25012C14.7239 9.25012 14.5 9.02626 14.5 8.75012C14.5 8.47398 14.7239 8.25012 15 8.25012C15.2761 8.25012 15.5 8.47398 15.5 8.75012Z" fill="white"/>
<path fill-rule="evenodd" clip-rule="evenodd" d="M13.5001 8.75012C13.5001 7.92169 14.1716 7.25012 15.0001 7.25012C15.8285 7.25012 16.5001 7.92169 16.5001 8.75012C16.5001 9.57855 15.8285 10.2501 15.0001 10.2501C14.1716 10.2501 13.5001 9.57855 13.5001 8.75012ZM7.00006 8.75012C7.00006 8.19784 7.44777 7.75012 8.00006 7.75012H10.0001C10.5523 7.75012 11.0001 8.19784 11.0001 8.75012C11.0001 9.30241 10.5523 9.75012 10.0001 9.75012H8.00006C7.44777 9.75012 7.00006 9.30241 7.00006 8.75012ZM8.79692 13.146C8.46474 12.7077 7.84049 12.6198 7.40006 12.9501C6.95823 13.2815 6.86869 13.9083 7.20006 14.3501L8.00006 13.7501C7.20006 14.3501 7.2003 14.3504 7.20055 14.3508L7.20107 14.3515L7.20222 14.353L7.20496 14.3566L7.21217 14.366L7.23347 14.3933C7.25071 14.4151 7.27407 14.444 7.30342 14.4789C7.36207 14.5488 7.44506 14.6434 7.55151 14.7545C7.76358 14.9758 8.07349 15.2673 8.47439 15.5589C9.27233 16.1392 10.4745 16.7501 12.0001 16.7501C13.5256 16.7501 14.7278 16.1392 15.5257 15.5589C15.9266 15.2673 16.2365 14.9758 16.4486 14.7545C16.5551 14.6434 16.6381 14.5488 16.6967 14.4789C16.7261 14.444 16.7494 14.4151 16.7666 14.3933L16.7879 14.366L16.7952 14.3566L16.7979 14.353L16.799 14.3515L16.7996 14.3508C16.7998 14.3504 16.8001 14.3501 16.0001 13.7501L16.8001 14.3501C17.1314 13.9083 17.0419 13.2815 16.6001 12.9501C16.1596 12.6198 15.5354 12.7077 15.2032 13.146L15.1986 13.1519C15.1926 13.1594 15.1813 13.1735 15.1647 13.1932C15.1316 13.2327 15.0779 13.2943 15.0046 13.3707C14.8573 13.5244 14.636 13.7329 14.3494 13.9414C13.7723 14.3611 12.9745 14.7501 12.0001 14.7501C11.0256 14.7501 10.2278 14.3611 9.65073 13.9414C9.36413 13.7329 9.14278 13.5244 8.99548 13.3707C8.92225 13.2943 8.86852 13.2327 8.83537 13.1932C8.81883 13.1735 8.80751 13.1594 8.80156 13.1519L8.79692 13.146Z" fill="#00D5C8"/>
</svg>
