<svg width="24" height="24" viewBox="0 0 24 24" fill="none" xmlns="http://www.w3.org/2000/svg">
<path d="M3.57727 11.837C3.54306 11.5282 3.5255 11.2144 3.5255 10.8965C3.5255 6.23167 7.3071 2.45007 11.9719 2.45007C16.6368 2.45007 20.4184 6.23167 20.4184 10.8965C20.4184 11.1846 20.4039 11.4694 20.3758 11.7501M17.5676 16.4423L20.459 15.6844C20.7894 15.5978 21.1401 15.7023 21.3693 15.9558C21.7812 16.4112 21.64 17.137 21.0875 17.4053L14.3938 20.6555C13.9072 20.8918 13.3595 20.9694 12.8274 20.8776L3.03998 19.1885C2.74848 19.1382 2.53507 18.8856 2.53318 18.5886L2.51563 15.8265C2.514 15.5684 2.71917 15.3564 2.97625 15.3506L14.4149 15.0919C14.936 15.0802 15.3594 15.5096 15.3423 16.0325C15.3274 16.4864 14.9824 16.861 14.5328 16.9115L10.1802 17.3999M14.4574 11.9249C13.0906 13.2918 10.8745 13.2918 9.5077 11.9249C8.14086 10.5581 8.14086 8.34203 9.5077 6.9752C10.8745 5.60836 13.0906 5.60836 14.4574 6.9752C15.8243 8.34203 15.8243 10.5581 14.4574 11.9249Z" stroke="#272727" stroke-width="1.5" stroke-linecap="round"/>
</svg>
