<svg width="24" height="24" viewBox="0 0 24 24" fill="none" xmlns="http://www.w3.org/2000/svg">
<path d="M14.1912 2.00012C14.7128 2.09472 15.2196 2.2319 15.7078 2.40793M17.4238 3.23035C17.8271 3.47621 18.2106 3.75126 18.5714 4.05258M19.8647 5.3634C20.1428 5.70581 20.3976 6.06795 20.6265 6.4474M21.47 8.24988C21.612 8.66151 21.7265 9.08595 21.8113 9.521M21.9847 11.5692C21.9734 12.0666 21.924 12.5545 21.8391 13.0302M11.9912 2.00012C6.46836 2.00012 1.99121 6.47727 1.99121 12.0001C1.99121 17.523 6.46836 22.0001 11.9912 22.0001C16.1633 22.0001 19.7386 19.4452 21.2379 15.8146C21.2927 15.6819 21.3448 15.5478 21.3939 15.4123" stroke="#272727" stroke-width="1.5" stroke-linecap="round"/>
<path d="M12 7.40003V8.28377" stroke="#272727" stroke-width="1.5" stroke-linecap="round" stroke-linejoin="round"/>
<path d="M12 15.7838V16.5001" stroke="#272727" stroke-width="1.5" stroke-linecap="round" stroke-linejoin="round"/>
<path d="M12.8125 11.8746H10V8.84579C10 8.65461 10.155 8.49963 10.3462 8.49963H12.8125C13.7445 8.49963 14.5 9.25515 14.5 10.1871C14.5 11.1191 13.7445 11.8746 12.8125 11.8746Z" stroke="#272727" stroke-width="1.5" stroke-linecap="round" stroke-linejoin="round"/>
<path d="M12.8125 15.2496H10.3462C10.155 15.2496 10 15.0947 10 14.9035V12.2207C10 12.0295 10.155 11.8746 10.3462 11.8746H12.8125C13.7445 11.8746 14.5 12.6301 14.5 13.5621C14.5 14.4941 13.7445 15.2496 12.8125 15.2496Z" stroke="#272727" stroke-width="1.5" stroke-linecap="round" stroke-linejoin="round"/>
</svg>
