<svg width="24" height="24" viewBox="0 0 24 24" fill="none" xmlns="http://www.w3.org/2000/svg">
<path d="M2.49121 5.50012L3.59882 6.42313C3.63551 6.4537 3.69121 6.42762 3.69121 6.37986V5.80012C3.69121 4.25372 4.94481 3.00012 6.49121 3.00012M22.4912 18.5001L21.3836 17.5771C21.3469 17.5465 21.2912 17.5726 21.2912 17.6204V18.2001C21.2912 19.7465 20.0376 21.0001 18.4912 21.0001M9.83877 5.26172C11.1181 3.87134 12.9529 3.00012 14.9913 3.00012C18.8573 3.00012 21.9913 6.13413 21.9913 10.0001C21.9913 12.1485 21.0234 14.0709 19.4999 15.355M19.7912 13.0585C19.7912 17.4767 16.2095 21.0585 11.7912 21.0585C7.37293 21.0585 3.79121 17.4767 3.79121 13.0585C3.79121 8.64019 7.37293 5.05847 11.7912 5.05847C16.2095 5.05847 19.7912 8.64019 19.7912 13.0585Z" stroke="#272727" stroke-width="1.5" stroke-linecap="round" stroke-linejoin="round"/>
</svg>
