<svg width="24" height="24" viewBox="0 0 24 24" fill="none" xmlns="http://www.w3.org/2000/svg">
<g clip-path="url(#clip0_538_35)">
<path fill-rule="evenodd" clip-rule="evenodd" d="M1 13.0001C1 6.92499 5.92487 2.00012 12 2.00012C18.0751 2.00012 23 6.92499 23 13.0001V17.0001C23 17.5524 22.5523 18.0001 22 18.0001C21.4477 18.0001 21 17.5524 21 17.0001V13.0001C21 8.02956 16.9706 4.00012 12 4.00012C7.02944 4.00012 3 8.02956 3 13.0001V17.0001C3 17.5524 2.55228 18.0001 2 18.0001C1.44772 18.0001 1 17.5524 1 17.0001V13.0001Z" fill="#78808D"/>
<path fill-rule="evenodd" clip-rule="evenodd" d="M4 15.5001C4 13.5671 5.567 12.0001 7.5 12.0001C9.433 12.0001 11 13.5671 11 15.5001V18.5001C11 20.4331 9.433 22.0001 7.5 22.0001C5.567 22.0001 4 20.4331 4 18.5001V15.5001ZM7.5 14.0001C6.67157 14.0001 6 14.6717 6 15.5001V18.5001C6 19.3285 6.67157 20.0001 7.5 20.0001C8.32843 20.0001 9 19.3285 9 18.5001V15.5001C9 14.6717 8.32843 14.0001 7.5 14.0001ZM13 15.5001C13 13.5671 14.567 12.0001 16.5 12.0001C18.433 12.0001 20 13.5671 20 15.5001V18.5001C20 20.4331 18.433 22.0001 16.5 22.0001C14.567 22.0001 13 20.4331 13 18.5001V15.5001ZM16.5 14.0001C15.6716 14.0001 15 14.6717 15 15.5001V18.5001C15 19.3285 15.6716 20.0001 16.5 20.0001C17.3284 20.0001 18 19.3285 18 18.5001V15.5001C18 14.6717 17.3284 14.0001 16.5 14.0001Z" fill="#00D5C8"/>
</g>
<defs>
<clipPath id="clip0_538_35">
<rect width="22" height="20" fill="white" transform="translate(1 2.00012)"/>
</clipPath>
</defs>
</svg>
