<svg width="24" height="24" viewBox="0 0 24 24" fill="none" xmlns="http://www.w3.org/2000/svg">
<path fill-rule="evenodd" clip-rule="evenodd" d="M12 3.00012C7.02944 3.00012 3 7.02956 3 12.0001C3 16.9707 7.02944 21.0001 12 21.0001C16.9706 21.0001 21 16.9707 21 12.0001C21 7.02956 16.9706 3.00012 12 3.00012ZM1 12.0001C1 5.92499 5.92487 1.00012 12 1.00012C18.0751 1.00012 23 5.92499 23 12.0001C23 18.0753 18.0751 23.0001 12 23.0001C5.92487 23.0001 1 18.0753 1 12.0001Z" fill="#78808D"/>
<path fill-rule="evenodd" clip-rule="evenodd" d="M13.388 6.16809C13.8476 6.47444 13.9717 7.09531 13.6654 7.55484L11.3685 11.0001H14.5C14.8688 11.0001 15.2077 11.2031 15.3817 11.5283C15.5557 11.8534 15.5366 12.248 15.3321 12.5548L11.9987 17.5548C11.6924 18.0144 11.0715 18.1385 10.612 17.8322C10.1524 17.5258 10.0283 16.905 10.3346 16.4454L12.6315 13.0001H9.5C9.13121 13.0001 8.79235 12.7972 8.61833 12.472C8.44431 12.1468 8.46338 11.7523 8.66795 11.4454L12.0013 6.44544C12.3076 5.98591 12.9285 5.86173 13.388 6.16809Z" fill="#00D5C8"/>
</svg>
