<svg width="24" height="24" viewBox="0 0 24 24" fill="none" xmlns="http://www.w3.org/2000/svg">
<path d="M3.98682 9.1065L9.79518 3.1832C10.3762 2.59066 11.2209 2.33818 12.0318 2.51468L16.8876 3.57157C18.2805 3.87475 19.3659 4.96706 19.6601 6.36186L20.7193 11.3824C20.8864 12.1743 20.6454 12.9972 20.0776 13.5739L12.5391 21.2311M7.57396 12.0882L3.4375 16.0977M10.4669 16.4445L4.38353 22.8752M16.0827 12.5758C14.6269 14.0489 12.2666 14.0489 10.8108 12.5758C9.35502 11.1027 9.35502 8.71441 10.8108 7.24133C12.2666 5.76825 14.6269 5.76825 16.0827 7.24133C17.5385 8.71441 17.5385 11.1027 16.0827 12.5758Z" stroke="#272727" stroke-width="1.5" stroke-linecap="round"/>
</svg>
