<svg width="24" height="24" viewBox="0 0 24 24" fill="none" xmlns="http://www.w3.org/2000/svg">
<path d="M7.99121 12.5001L10.4279 10.0634C10.464 10.0274 10.5213 10.0242 10.5611 10.056L12.9213 11.9442C12.9611 11.976 13.0185 11.9729 13.0545 11.9368L15.8205 9.17083C15.8835 9.10784 15.8389 9.00012 15.7498 9.00012H13.9912M11.9912 20.2001V17.5001M7.99121 20.4H15.9912M6.99121 17.0001H16.9912C19.2003 17.0001 20.9912 15.2093 20.9912 13.0001V7.50012C20.9912 5.29098 19.2003 3.50012 16.9912 3.50012H6.99121C4.78207 3.50012 2.99121 5.29098 2.99121 7.50012V13.0001C2.99121 15.2093 4.78207 17.0001 6.99121 17.0001Z" stroke="#272727" stroke-width="1.5" stroke-linecap="round"/>
</svg>
