<svg width="24" height="24" viewBox="0 0 24 24" fill="none" xmlns="http://www.w3.org/2000/svg">
<path d="M7.48682 6.00012L7.9698 4.06818C7.97844 4.03361 7.9523 4.00012 7.91666 4.00012C5.19398 4.00012 2.98682 6.20729 2.98682 8.92997V9.00012M16.4868 18.0001L16.0038 19.9321C15.9952 19.9666 16.0213 20.0001 16.057 20.0001C18.7797 20.0001 20.9868 17.793 20.9868 15.0703V15.0001M10.9868 16.0001C10.9868 18.2093 9.19596 20.0001 6.98682 20.0001C4.77768 20.0001 2.98682 18.2093 2.98682 16.0001C2.98682 13.791 4.77768 12.0001 6.98682 12.0001C9.19596 12.0001 10.9868 13.791 10.9868 16.0001ZM20.9868 7.00012C20.9868 9.20926 19.196 11.0001 16.9868 11.0001C14.7777 11.0001 12.9868 9.20926 12.9868 7.00012C12.9868 4.79098 14.7777 3.00012 16.9868 3.00012C19.196 3.00012 20.9868 4.79098 20.9868 7.00012Z" stroke="#272727" stroke-width="1.5" stroke-linecap="round"/>
</svg>
