<svg width="24" height="24" viewBox="0 0 24 24" fill="none" xmlns="http://www.w3.org/2000/svg">
<path d="M7.25 19.0001L7.73298 20.9321C7.74163 20.9666 7.71548 21.0001 7.67984 21.0001C4.95717 21.0001 2.75 18.793 2.75 16.0703V16.0001M16.25 7.00012L15.8121 5.24863C15.7806 5.1224 15.8761 5.00001 16.0061 5.00657C18.6485 5.13987 20.75 7.32458 20.75 10.0001M8.2776 5.03568C8.2776 6.15988 7.36625 7.07123 6.24205 7.07123C5.11784 7.07123 4.20649 6.15988 4.20649 5.03568C4.20649 3.91147 5.11784 3.00012 6.24205 3.00012C7.36625 3.00012 8.2776 3.91147 8.2776 5.03568ZM2.26326 10.8632C2.64596 8.85345 4.28548 7.34271 6.25 7.34271C8.21452 7.34271 9.85404 8.85345 10.2367 10.8632C10.3302 11.3541 9.91606 11.7628 9.41642 11.7628H3.08358C2.58394 11.7628 2.16979 11.3541 2.26326 10.8632ZM19.7776 14.0357C19.7776 15.1599 18.8663 16.0712 17.742 16.0712C16.6178 16.0712 15.7065 15.1599 15.7065 14.0357C15.7065 12.9115 16.6178 12.0001 17.742 12.0001C18.8663 12.0001 19.7776 12.9115 19.7776 14.0357ZM13.7633 19.8632C14.146 17.8534 15.7855 16.3427 17.75 16.3427C19.7145 16.3427 21.354 17.8534 21.7367 19.8632C21.8302 20.3541 21.4161 20.7628 20.9164 20.7628H14.5836C14.0839 20.7628 13.6698 20.3541 13.7633 19.8632Z" stroke="#272727" stroke-width="1.5" stroke-linecap="round" stroke-linejoin="round"/>
</svg>
