<svg width="24" height="24" viewBox="0 0 24 24" fill="none" xmlns="http://www.w3.org/2000/svg">
<rect y="0.00012207" width="24" height="24" rx="12" fill="#0C0F0F"/>
<path d="M10.0028 12.0308C10.0028 10.9253 10.8985 10.0289 12.0037 10.0289C13.1089 10.0289 14.005 10.9253 14.005 12.0308C14.005 13.1364 13.1089 14.0328 12.0037 14.0328C10.8985 14.0328 10.0028 13.1364 10.0028 12.0308ZM8.92088 12.0308C8.92088 13.734 10.301 15.1145 12.0037 15.1145C13.7063 15.1145 15.0864 13.734 15.0864 12.0308C15.0864 10.3277 13.7063 8.94718 12.0037 8.94718C10.301 8.94718 8.92088 10.3277 8.92088 12.0308ZM14.488 8.82491C14.488 8.96744 14.5302 9.10678 14.6093 9.22533C14.6884 9.34387 14.8009 9.43628 14.9325 9.49087C15.0641 9.54547 15.209 9.5598 15.3487 9.53205C15.4885 9.5043 15.6169 9.43571 15.7177 9.33497C15.8185 9.23423 15.8872 9.10585 15.915 8.96607C15.9429 8.82629 15.9287 8.68139 15.8742 8.54969C15.8197 8.41799 15.7274 8.3054 15.609 8.22617C15.4905 8.14694 15.3513 8.10462 15.2088 8.10456H15.2085C15.0175 8.10465 14.8343 8.18056 14.6993 8.31563C14.5642 8.45069 14.4882 8.63386 14.488 8.82491ZM9.57821 16.919C8.99288 16.8924 8.67474 16.7949 8.46331 16.7125C8.18302 16.6033 7.98303 16.4733 7.77276 16.2633C7.56249 16.0532 7.43233 15.8534 7.32369 15.573C7.24127 15.3616 7.14377 15.0433 7.11716 14.4578C7.08806 13.8248 7.08225 13.6346 7.08225 12.0309C7.08225 10.4272 7.08854 10.2376 7.11716 9.60402C7.14382 9.01852 7.24204 8.70082 7.32369 8.4888C7.43281 8.20843 7.56277 8.00838 7.77276 7.79805C7.98274 7.58772 8.18254 7.45752 8.46331 7.34885C8.67464 7.26641 8.99288 7.16888 9.57821 7.14226C10.211 7.11315 10.4011 7.10734 12.0037 7.10734C13.6062 7.10734 13.7965 7.11363 14.4298 7.14226C15.0152 7.16893 15.3328 7.26718 15.5447 7.34885C15.825 7.45752 16.025 7.588 16.2353 7.79805C16.4456 8.00809 16.5752 8.20843 16.6844 8.4888C16.7668 8.70019 16.8643 9.01852 16.8909 9.60402C16.92 10.2376 16.9258 10.4272 16.9258 12.0309C16.9258 13.6346 16.92 13.8242 16.8909 14.4578C16.8642 15.0433 16.7662 15.3615 16.6844 15.573C16.5752 15.8534 16.4453 16.0534 16.2353 16.2633C16.0253 16.4731 15.825 16.6033 15.5447 16.7125C15.3334 16.7949 15.0152 16.8924 14.4298 16.919C13.797 16.9482 13.6069 16.954 12.0037 16.954C10.4004 16.954 10.2108 16.9482 9.57821 16.919ZM9.5285 6.06188C8.88938 6.09099 8.45265 6.19236 8.07126 6.34082C7.67627 6.49412 7.34189 6.69979 7.00775 7.0335C6.67362 7.3672 6.46853 7.7022 6.31527 8.0973C6.16687 8.47905 6.06552 8.91566 6.03642 9.55497C6.00683 10.1953 6.00006 10.4 6.00006 12.0308C6.00006 13.6617 6.00683 13.8664 6.03642 14.5067C6.06552 15.1461 6.16687 15.5826 6.31527 15.9644C6.46853 16.3592 6.67366 16.6946 7.00775 17.0282C7.34184 17.3618 7.67627 17.5671 8.07126 17.7209C8.45337 17.8693 8.88938 17.9707 9.5285 17.9998C10.169 18.0289 10.3733 18.0362 12.0037 18.0362C13.634 18.0362 13.8387 18.0294 14.4788 17.9998C15.118 17.9707 15.5544 17.8693 15.9361 17.7209C16.3308 17.5671 16.6654 17.3619 16.9996 17.0282C17.3337 16.6945 17.5384 16.3592 17.692 15.9644C17.8405 15.5826 17.9423 15.146 17.9709 14.5067C18 13.8659 18.0068 13.6617 18.0068 12.0308C18.0068 10.4 18 10.1953 17.9709 9.55497C17.9418 8.91562 17.8405 8.47881 17.692 8.0973C17.5384 7.70244 17.3332 7.36773 16.9996 7.0335C16.666 6.69926 16.3308 6.49412 15.9365 6.34082C15.5544 6.19236 15.1179 6.09051 14.4793 6.06188C13.8392 6.03277 13.6345 6.02551 12.0041 6.02551C10.3738 6.02551 10.169 6.03229 9.5285 6.06188Z" fill="white"/>
</svg>
