<svg width="24" height="24" viewBox="0 0 24 24" fill="none" xmlns="http://www.w3.org/2000/svg">
<path d="M20.1032 7.3963L19.4239 8.07559M5.54102 15.8623L9.97533 11.428C10.1733 11.23 10.2723 11.131 10.3865 11.0939C10.4869 11.0613 10.5951 11.0613 10.6955 11.0939C10.8097 11.131 10.9087 11.23 11.1067 11.428L12.9753 13.2967C13.1733 13.4947 13.2723 13.5937 13.3865 13.6308C13.4869 13.6634 13.5951 13.6634 13.6955 13.6308C13.8097 13.5937 13.9087 13.4947 14.1067 13.2967M18.1824 9.22093L17.5031 9.90022M15.4653 11.9381L16.1446 11.2588" stroke="#222727" stroke-width="1.5" stroke-linecap="round" stroke-linejoin="round"/>
<path d="M17 6.62933H21V10.6293" stroke="#222727" stroke-width="1.5" stroke-linecap="round" stroke-linejoin="round"/>
<path d="M3.03882 7.06357V16.2636C3.03882 17.9437 3.03882 18.7838 3.3658 19.4255C3.65342 19.99 4.11236 20.449 4.67685 20.7366C5.31858 21.0636 6.15866 21.0636 7.83882 21.0636H19.0388" stroke="#222727" stroke-width="1.5" stroke-linecap="round" stroke-linejoin="round"/>
</svg>
