<svg width="24" height="24" viewBox="0 0 24 24" fill="none" xmlns="http://www.w3.org/2000/svg">
<g clip-path="url(#clip0_1746_156)">
<path d="M16.4722 0.00012207C15.191 0.0844086 13.7578 0.880448 12.883 1.9512C12.0888 2.91893 11.366 4.35181 11.6235 5.75658C13.0226 5.79404 14.4713 4.98864 15.3089 3.90228C16.0906 2.89084 16.6893 1.46109 16.4722 0.00012207ZM7.84192 5.55991C6.01163 5.55991 4.03555 6.7649 2.80088 8.68164C1.05746 11.3726 1.34286 16.358 4.15963 20.6815C5.17094 22.2237 6.56692 23.9812 8.32896 23.9999C9.88936 24.0155 10.274 23.0353 12.399 23.0228C14.524 23.0104 14.9025 24.0155 16.4722 23.9999C18.228 23.9812 19.7295 22.1269 20.7346 20.5848C21.3429 19.6605 21.8622 18.68 22.2857 17.6566C18.2063 16.1051 17.4773 10.2206 21.5101 7.99798C20.2817 6.45585 18.5848 5.56303 16.9561 5.56303C14.8001 5.56303 13.8974 6.63379 12.399 6.63379C10.8541 6.63379 9.70943 5.55991 7.84192 5.55991Z" fill="black"/>
</g>
<defs>
<clipPath id="clip0_1746_156">
<rect width="24" height="24" fill="white"/>
</clipPath>
</defs>
</svg>
