<svg width="24" height="24" viewBox="0 0 24 24" fill="none" xmlns="http://www.w3.org/2000/svg">
<g clip-path="url(#clip0_516_42)">
<path d="M16.4722 0.00012207C15.191 0.0844086 13.7578 0.880448 12.883 1.9512C12.0889 2.91893 11.3661 4.35181 11.6235 5.75658C13.0226 5.79404 14.4713 4.98864 15.3089 3.90228C16.0907 2.89084 16.6894 1.46109 16.4722 0.00012207ZM7.84198 5.55991C6.0117 5.55991 4.03561 6.7649 2.80094 8.68164C1.05752 11.3726 1.34292 16.358 4.15969 20.6815C5.171 22.2237 6.56698 23.9812 8.32902 23.9999C9.88942 24.0155 10.2741 23.0353 12.3991 23.0228C14.5241 23.0104 14.9025 24.0155 16.4722 23.9999C18.2281 23.9812 19.7295 22.1269 20.7346 20.5848C21.3429 19.6605 21.8623 18.68 22.2857 17.6566C18.2064 16.1051 17.4773 10.2206 21.5102 7.99798C20.2817 6.45585 18.5848 5.56303 16.9562 5.56303C14.8002 5.56303 13.8974 6.63379 12.3991 6.63379C10.8542 6.63379 9.70949 5.55991 7.84198 5.55991Z" fill="white"/>
</g>
<defs>
<clipPath id="clip0_516_42">
<rect width="24" height="24" fill="white"/>
</clipPath>
</defs>
</svg>
