<svg width="24" height="24" viewBox="0 0 24 24" fill="none" xmlns="http://www.w3.org/2000/svg">
<path fill-rule="evenodd" clip-rule="evenodd" d="M17.5201 1.80011H15.7201V4.40011H14.2201C13.3364 4.40011 12.6201 5.11645 12.6201 6.00011V14.4001C12.6201 15.2838 13.3364 16.0001 14.2201 16.0001H15.7201V18.6001H17.5201V16.0001H19.0201C19.9037 16.0001 20.6201 15.2838 20.6201 14.4001V6.00011C20.6201 5.11645 19.9037 4.40011 19.0201 4.40011H17.5201V1.80011ZM14.6201 14.0001V6.40011H18.6201V14.0001H14.6201ZM4.62008 8.00011C3.73642 8.00011 3.02008 8.71645 3.02008 9.60011V18.0001C3.02008 18.8838 3.73642 19.6001 4.62008 19.6001H6.12008V22.2001H7.92008V19.6001H9.42008C10.3037 19.6001 11.0201 18.8838 11.0201 18.0001V9.60011C11.0201 8.71645 10.3037 8.00011 9.42008 8.00011H7.92008V5.40011H6.12008V8.00011H4.62008ZM5.02008 17.6001V10.0001H9.02008V17.6001H5.02008Z" fill="#222727"/>
</svg>
