<svg width="24" height="24" viewBox="0 0 24 24" fill="none" xmlns="http://www.w3.org/2000/svg">
<path d="M11.9956 22.0001C17.5185 22.0001 21.9956 17.523 21.9956 12.0001C21.9956 6.47725 17.5185 2.00012 11.9956 2.00012C6.47275 2.00012 1.99561 6.47725 1.99561 12.0001C1.99561 17.523 6.47275 22.0001 11.9956 22.0001Z" stroke="#272727" stroke-width="1.5" stroke-linecap="round"/>
<path d="M16.7731 3.328C17.3728 6.05857 14.1081 6.40097 13.0092 7.35658C11.8079 8.40123 13.702 10.978 11.971 11.9444C10.2399 12.9108 8.38777 9.97388 7.17217 10.6364C5.95652 11.299 6.70552 13.7013 5.83752 14.4929C5.37025 14.919 3.4812 14.3356 2.24475 13.8319" stroke="#272727" stroke-width="1.5" stroke-linecap="round" stroke-linejoin="round"/>
<path d="M14.9999 21.4036C14.4159 20.5584 14.2824 19.6656 14.494 19.0012C14.8876 17.7654 15.5369 17.8385 15.82 17.0744C16.103 16.3102 15.3034 15.2219 17.0777 14.2916C18.094 13.7587 20.093 14.2377 20.9999 16.0003" stroke="#272727" stroke-width="1.5" stroke-linecap="round" stroke-linejoin="round"/>
</svg>
