<svg width="24" height="24" viewBox="0 0 24 24" fill="none" xmlns="http://www.w3.org/2000/svg">
<rect y="0.00012207" width="24" height="24" rx="12" fill="white"/>
<path d="M9.23788 16.8623V10.3792H7.08491V16.8623H9.2381H9.23788ZM8.16184 9.49424C8.91247 9.49424 9.37979 8.99642 9.37979 8.37428C9.36574 7.73796 8.91247 7.25403 8.17612 7.25403C7.43926 7.25403 6.95801 7.73796 6.95801 8.37422C6.95801 8.99636 7.42515 9.49419 8.14774 9.49419H8.16167L8.16184 9.49424ZM10.4296 16.8623H12.5824V13.2423C12.5824 13.0488 12.5964 12.8548 12.6533 12.7165C12.8089 12.3293 13.1631 11.9284 13.758 11.9284C14.5368 11.9284 14.8486 12.5228 14.8486 13.3944V16.8623H17.0013V13.1451C17.0013 11.1539 15.9393 10.2273 14.5229 10.2273C13.3616 10.2273 12.8516 10.8769 12.5682 11.3194H12.5825V10.3795H10.4297C10.4578 10.9877 10.4295 16.8626 10.4295 16.8626L10.4296 16.8623Z" fill="#0C0F0F"/>
</svg>
