<svg width="24" height="24" viewBox="0 0 24 24" fill="none" xmlns="http://www.w3.org/2000/svg">
<path d="M17.5553 9.77778V7.55556C17.5553 4.48731 15.068 2 11.9997 2C8.93148 2 6.44417 4.48731 6.44417 7.55556V9.77778M11.9997 14.7778V17M8.44417 22H15.5553C17.4221 22 18.3555 22 19.0686 21.6367C19.6958 21.3171 20.2057 20.8072 20.5253 20.18C20.8886 19.4669 20.8886 18.5335 20.8886 16.6667V15.1111C20.8886 13.2443 20.8886 12.3108 20.5253 11.5978C20.2057 10.9706 19.6958 10.4607 19.0686 10.1411C18.3555 9.77778 17.4221 9.77778 15.5553 9.77778H8.44417C6.57733 9.77778 5.64391 9.77778 4.93087 10.1411C4.30366 10.4607 3.79373 10.9706 3.47415 11.5978C3.11084 12.3108 3.11084 13.2443 3.11084 15.1111V16.6667C3.11084 18.5335 3.11084 19.4669 3.47415 20.18C3.79373 20.8072 4.30366 21.3171 4.93087 21.6367C5.64391 22 6.57733 22 8.44417 22Z" stroke="#272727" stroke-width="1.5" stroke-linecap="round" stroke-linejoin="round"/>
</svg>
