<svg width="24" height="24" viewBox="0 0 24 24" fill="none" xmlns="http://www.w3.org/2000/svg">
<g clip-path="url(#clip0_1394_60)">
<path fill-rule="evenodd" clip-rule="evenodd" d="M11.8334 0.433472C8.02259 0.433472 4.93335 3.52271 4.93335 7.33347V9.12729C2.96293 9.60625 1.5 11.3823 1.5 13.5001V18.7501C1.5 21.2354 3.51472 23.2501 6 23.2501H18C20.4853 23.2501 22.5 21.2354 22.5 18.7501V13.5001C22.5 11.2646 20.8698 9.40975 18.7334 9.05958V7.33347C18.7334 3.52271 15.6441 0.433472 11.8334 0.433472ZM16.6 9.00012V7.33347C16.6 4.70091 14.4659 2.56681 11.8334 2.56681C9.20079 2.56681 7.06668 4.70091 7.06668 7.33347V9.00012H16.6ZM12 13.4748C12.5891 13.4748 13.0667 13.9523 13.0667 14.5414V16.8748C13.0667 17.4639 12.5891 17.9415 12 17.9415C11.4109 17.9415 10.9333 17.4639 10.9333 16.8748V14.5414C10.9333 13.9523 11.4109 13.4748 12 13.4748Z" fill="#0C0F0F"/>
</g>
<defs>
<clipPath id="clip0_1394_60">
<rect width="24" height="24" fill="white"/>
</clipPath>
</defs>
</svg>
