<svg width="24" height="24" viewBox="0 0 24 24" fill="none" xmlns="http://www.w3.org/2000/svg">
<rect y="0.00012207" width="24" height="24" rx="12" fill="white"/>
<g clip-path="url(#clip0_1708_543)">
<path d="M6.30767 8.9984L11.7016 5.76337C11.8863 5.65257 12.1171 5.65261 12.3018 5.76348L17.6911 8.99838C17.779 9.0511 17.8327 9.14602 17.8327 9.24846V16.6667C17.8327 16.9888 17.5715 17.25 17.2493 17.25H6.74935C6.42719 17.25 6.16602 16.9888 6.16602 16.6667V9.24853C6.16602 9.14606 6.21979 9.0511 6.30767 8.9984ZM15.7009 9.80893L12.0347 12.9817L8.29356 9.80534L7.53847 10.6947L12.042 14.5183L16.4644 10.6911L15.7009 9.80893Z" fill="black"/>
</g>
<defs>
<clipPath id="clip0_1708_543">
<rect width="14" height="14" fill="white" transform="translate(5 5.00012)"/>
</clipPath>
</defs>
</svg>
