<svg width="24" height="24" viewBox="0 0 24 24" fill="none" xmlns="http://www.w3.org/2000/svg">
<g clip-path="url(#clip0_1224_57)">
<path d="M4.75 17.9337C4.75 18.2439 4.81116 18.5119 4.92969 18.7267L4.98438 18.8155C5.76397 19.9684 7.9341 22.4991 12 22.4991C15.812 22.4991 17.9579 20.2749 18.8535 19.047L19.0156 18.8155C19.1697 18.5876 19.25 18.2882 19.25 17.9337V12.1339L15.0742 14.2706C13.2645 15.1962 11.1409 15.2535 9.29199 14.4435L8.92578 14.2706L4.75 12.1339V17.9337Z" stroke="#272727" stroke-width="1.5"/>
<path d="M14.6045 3.35266C13.0913 2.48803 11.2556 2.43397 9.70215 3.19055L9.39551 3.35266L1.41113 7.91516C0.623749 8.36511 0.574492 9.45733 1.26367 9.98743L1.41113 10.0851L9.39551 14.6476C10.9087 15.5122 12.7444 15.5663 14.2979 14.8097L14.6045 14.6476L22.5889 10.0851C23.3763 9.63514 23.4255 8.54291 22.7363 8.01282L22.5889 7.91516L14.6045 3.35266Z" stroke="#272727" stroke-width="1.5"/>
<path d="M18 9.00012L20.8944 10.4473C21.572 10.7861 22 11.4786 22 12.2362V17.0001" stroke="#272727" stroke-width="1.5" stroke-linecap="round"/>
</g>
<defs>
<clipPath id="clip0_1224_57">
<rect width="24" height="24" fill="white"/>
</clipPath>
</defs>
</svg>
