<svg width="24" height="24" viewBox="0 0 24 24" fill="none" xmlns="http://www.w3.org/2000/svg">
<path d="M12 1.75C6.8654 1.75 2.75 5.75629 2.75 10.6406C2.75001 13.9037 4.88026 16.7593 7.24316 18.8604C8.41039 19.8982 9.5997 20.7207 10.5352 21.2812C11.003 21.5616 11.4012 21.7721 11.6943 21.9102C11.8227 21.9706 11.925 22.0133 12 22.042C12.075 22.0133 12.1773 21.9706 12.3057 21.9102C12.5988 21.7721 12.997 21.5616 13.4648 21.2812C14.4003 20.7207 15.5896 19.8982 16.7568 18.8604C19.1197 16.7593 21.25 13.9037 21.25 10.6406C21.25 5.75629 17.1346 1.75 12 1.75Z" stroke="#272727" stroke-width="1.50056" stroke-linecap="round" stroke-linejoin="round"/>
<path d="M12.05 8.11377C13.7067 8.11377 15.05 9.45707 15.05 11.1138C15.05 12.7705 13.7067 14.1138 12.05 14.1138C10.3933 14.1138 9.05005 12.7705 9.05005 11.1138C9.05005 9.45707 10.3933 8.11377 12.05 8.11377Z" stroke="#272727" stroke-width="1.50056"/>
</svg>
