<svg width="24" height="24" viewBox="0 0 24 24" fill="none" xmlns="http://www.w3.org/2000/svg">
<rect y="0.00012207" width="24" height="24" rx="12" fill="white"/>
<path d="M12.863 12.3221C12.863 14.3769 11.1693 16.0454 9.07115 16.0454C6.97299 16.0454 5.2793 14.3769 5.2793 12.3221C5.2793 10.2673 6.97299 8.59875 9.07115 8.59875C11.1693 8.59875 12.863 10.2673 12.863 12.3221ZM17.0172 12.3221C17.0172 14.2536 16.1661 15.8235 15.1213 15.8235C14.0764 15.8235 13.2253 14.2536 13.2253 12.3221C13.2253 10.3905 14.0764 8.82067 15.1213 8.82067C16.1661 8.82067 17.0172 10.3823 17.0172 12.3221ZM18.7193 12.3221C18.7193 14.0563 18.4244 15.4618 18.0536 15.4618C17.6829 15.4618 17.3879 14.0563 17.3879 12.3221C17.3879 10.5878 17.6829 9.18232 18.0536 9.18232C18.4244 9.18232 18.7193 10.5878 18.7193 12.3221Z" fill="#0C0F0F"/>
</svg>
