<svg width="24" height="24" viewBox="0 0 24 24" fill="none" xmlns="http://www.w3.org/2000/svg">
<path d="M4 2.50012H20C20.8284 2.50012 21.5 3.1717 21.5 4.00012V20.0001C21.5 20.8285 20.8284 21.5001 20 21.5001H4C3.17157 21.5001 2.5 20.8285 2.5 20.0001V4.00012C2.5 3.1717 3.17157 2.50012 4 2.50012Z" fill="white" stroke="#9DA0A0"/>
<path fill-rule="evenodd" clip-rule="evenodd" d="M20 3.00012H4C3.44772 3.00012 3 3.44784 3 4.00012V20.0001C3 20.5524 3.44772 21.0001 4 21.0001H20C20.5523 21.0001 21 20.5524 21 20.0001V4.00012C21 3.44784 20.5523 3.00012 20 3.00012ZM4 2.00012C2.89543 2.00012 2 2.89555 2 4.00012V20.0001C2 21.1047 2.89543 22.0001 4 22.0001H20C21.1046 22.0001 22 21.1047 22 20.0001V4.00012C22 2.89555 21.1046 2.00012 20 2.00012H4Z" fill="#9DA0A0"/>
<path fill-rule="evenodd" clip-rule="evenodd" d="M7 12.0001C7 11.4478 7.44772 11.0001 8 11.0001H16C16.5523 11.0001 17 11.4478 17 12.0001C17 12.5524 16.5523 13.0001 16 13.0001H8C7.44772 13.0001 7 12.5524 7 12.0001Z" fill="#9DA0A0"/>
</svg>
