<svg width="24" height="24" viewBox="0 0 24 24" fill="none" xmlns="http://www.w3.org/2000/svg">
<path fill-rule="evenodd" clip-rule="evenodd" d="M13.2 3.00012C13.8628 3.00012 14.4 3.53738 14.4 4.20012L14.4 5.40012C14.4 6.06286 13.8628 6.60012 13.2 6.60012L12 6.60012C11.3373 6.60012 10.8 6.06286 10.8 5.40012L10.8 4.20012C10.8 3.53738 11.3373 3.00012 12 3.00012L13.2 3.00012ZM13.2 10.2001C13.8628 10.2001 14.4 10.7374 14.4 11.4001L14.4 12.6001C14.4 13.2629 13.8628 13.8001 13.2 13.8001L12 13.8001C11.3373 13.8001 10.8 13.2629 10.8 12.6001L10.8 11.4001C10.8 10.7374 11.3373 10.2001 12 10.2001L13.2 10.2001ZM14.4 18.6001C14.4 17.9374 13.8628 17.4001 13.2 17.4001L12 17.4001C11.3373 17.4001 10.8 17.9374 10.8 18.6001L10.8 19.8001C10.8 20.4629 11.3373 21.0001 12 21.0001L13.2 21.0001C13.8628 21.0001 14.4 20.4629 14.4 19.8001L14.4 18.6001Z" fill="#0C0F0F"/>
</svg>
