<svg width="24" height="24" viewBox="0 0 24 24" fill="none" xmlns="http://www.w3.org/2000/svg">
<path fill-rule="evenodd" clip-rule="evenodd" d="M10.2 10.8001C10.2 10.1374 10.7373 9.60012 11.4 9.60012H12.6C13.2627 9.60012 13.8 10.1374 13.8 10.8001V12.0001C13.8 12.6629 13.2627 13.2001 12.6 13.2001H11.4C10.7373 13.2001 10.2 12.6629 10.2 12.0001V10.8001ZM3 10.8001C3 10.1374 3.53726 9.60013 4.2 9.60013H5.4C6.06274 9.60013 6.6 10.1374 6.6 10.8001V12.0001C6.6 12.6629 6.06274 13.2001 5.4 13.2001H4.2C3.53726 13.2001 3 12.6629 3 12.0001V10.8001ZM18.6 9.60012C17.9373 9.60012 17.4 10.1374 17.4 10.8001V12.0001C17.4 12.6629 17.9373 13.2001 18.6 13.2001H19.8C20.4627 13.2001 21 12.6629 21 12.0001V10.8001C21 10.1374 20.4627 9.60012 19.8 9.60012H18.6Z" fill="#0C0F0F"/>
</svg>
