<svg width="24" height="24" viewBox="0 0 24 24" fill="none" xmlns="http://www.w3.org/2000/svg">
<path fill-rule="evenodd" clip-rule="evenodd" d="M16.8863 10.0667L10.8852 10.0667C10.4708 10.0667 10.1349 9.7308 10.1349 9.31644C10.1349 8.90207 10.4708 8.56616 10.8852 8.56616H16.8863C17.3006 8.56616 17.6366 8.90207 17.6366 9.31644C17.6366 9.7308 17.3006 10.0667 16.8863 10.0667ZM16.8863 12.5662C17.3006 12.5662 17.6366 12.9021 17.6366 13.3164C17.6366 13.7308 17.3006 14.0667 16.8863 14.0667L10.8863 14.0667C10.4719 14.0667 10.136 13.7308 10.136 13.3164C10.136 12.9021 10.4719 12.5662 10.8863 12.5662L16.8863 12.5662Z" fill="#00D5C8"/>
<path fill-rule="evenodd" clip-rule="evenodd" d="M6.38704 13.5658L6.38704 19.0764C6.3795 19.66 5.90408 20.1308 5.31872 20.1308C4.72866 20.1308 4.25031 19.6524 4.25031 19.0624V13.5658H6.38704ZM6.38704 12.0653H3.50003C3.08567 12.0653 2.74976 12.4012 2.74976 12.8156V19.0624C2.74976 20.4812 3.89992 21.6313 5.31872 21.6313C5.38768 21.6313 5.45601 21.6286 5.52361 21.6233C5.56035 21.6288 5.59797 21.6317 5.63625 21.6317H14.9892C16.217 21.6317 17.2068 21.6317 17.9921 21.5363C18.8052 21.4375 19.499 21.227 20.0776 20.7329C20.227 20.6052 20.3662 20.4661 20.4938 20.3166C20.988 19.738 21.1985 19.0443 21.2973 18.2311C21.3926 17.4459 21.3926 16.4561 21.3926 15.2283V9.65318V9.65307C21.3926 8.42539 21.3926 7.43563 21.2973 6.6504C21.1985 5.83724 20.988 5.14348 20.4938 4.5649C20.3662 4.41547 20.227 4.27629 20.0776 4.14866C19.499 3.65451 18.8052 3.44398 17.9921 3.3452C17.2068 3.24981 16.217 3.24983 14.9893 3.24984H14.9893H12.7904H12.7904C11.5626 3.24983 10.5728 3.24981 9.78759 3.3452C8.97443 3.44398 8.28067 3.65451 7.7021 4.14866C7.55266 4.27629 7.41348 4.41547 7.28585 4.5649C6.7917 5.14348 6.58117 5.83724 6.48239 6.6504C6.38701 7.43566 6.38702 8.42546 6.38704 9.6532V9.6532V12.0653ZM7.88759 19.0842C7.88765 19.0769 7.88768 19.0696 7.88768 19.0624V12.8156C7.88768 12.8116 7.88765 12.8077 7.88759 12.8038V9.70224C7.88759 8.41391 7.88889 7.51553 7.972 6.83135C8.05299 6.16465 8.20198 5.80276 8.42688 5.53944C8.50346 5.44977 8.58697 5.36627 8.67663 5.28969C8.93995 5.06479 9.30184 4.91579 9.96854 4.83481C10.6527 4.7517 11.5511 4.7504 12.8394 4.7504H14.9402C16.2285 4.7504 17.1269 4.7517 17.8111 4.83481C18.4778 4.91579 18.8397 5.06479 19.103 5.28969C19.1927 5.36627 19.2762 5.44977 19.3528 5.53944C19.5777 5.80276 19.7267 6.16465 19.8077 6.83135C19.8908 7.51553 19.8921 8.41391 19.8921 9.70224V15.1793C19.8921 16.4676 19.8908 17.366 19.8077 18.0502C19.7267 18.7169 19.5777 19.0788 19.3528 19.3421C19.2762 19.4317 19.1927 19.5153 19.103 19.5918C18.8397 19.8167 18.4778 19.9657 17.8111 20.0467C17.1269 20.1298 16.2285 20.1311 14.9402 20.1311H7.88759V19.0842Z" fill="#F9F9F9"/>
</svg>
