<svg width="24" height="24" viewBox="0 0 24 24" fill="none" xmlns="http://www.w3.org/2000/svg">
<path fill-rule="evenodd" clip-rule="evenodd" d="M16.8863 10.0667L10.8852 10.0667C10.4708 10.0667 10.1349 9.7308 10.1349 9.31644C10.1349 8.90207 10.4708 8.56616 10.8852 8.56616H16.8863C17.3006 8.56616 17.6366 8.90207 17.6366 9.31644C17.6366 9.7308 17.3006 10.0667 16.8863 10.0667ZM16.8863 12.5662C17.3006 12.5662 17.6366 12.9021 17.6366 13.3164C17.6366 13.7308 17.3006 14.0667 16.8863 14.0667L10.8863 14.0667C10.4719 14.0667 10.136 13.7308 10.136 13.3164C10.136 12.9021 10.4719 12.5662 10.8863 12.5662L16.8863 12.5662Z" fill="#00DDD3"/>
<path fill-rule="evenodd" clip-rule="evenodd" d="M6.38697 13.5658V19.0715C6.38208 19.6573 5.90563 20.1308 5.3186 20.1308C4.72853 20.1308 4.25019 19.6524 4.25019 19.0624V13.5658H6.38697ZM6.38697 12.0653H3.49991C3.08555 12.0653 2.74963 12.4012 2.74963 12.8156V19.0624C2.74963 20.4812 3.8998 21.6313 5.3186 21.6313C5.38757 21.6313 5.45592 21.6286 5.52352 21.6233C5.56027 21.6288 5.59789 21.6317 5.63619 21.6317H7.13725H14.9401H14.9892C16.2169 21.6317 17.2067 21.6317 17.992 21.5363C18.8052 21.4375 19.4989 21.227 20.0775 20.7329C20.2269 20.6052 20.3661 20.4661 20.4937 20.3166C20.9879 19.738 21.1984 19.0443 21.2972 18.2311C21.3926 17.4459 21.3926 16.4561 21.3925 15.2283V15.1793V9.70224V9.65318C21.3926 8.42545 21.3926 7.43565 21.2972 6.6504C21.1984 5.83724 20.9879 5.14348 20.4937 4.5649C20.3661 4.41547 20.2269 4.27629 20.0775 4.14866C19.4989 3.65451 18.8052 3.44398 17.992 3.3452C17.2067 3.24981 16.2169 3.24983 14.9892 3.24984H14.9892H14.9401H12.8394H12.7903H12.7903C11.5626 3.24983 10.5728 3.24981 9.78752 3.3452C8.97436 3.44398 8.2806 3.65451 7.70203 4.14866C7.55259 4.27629 7.41341 4.41547 7.28578 4.5649C6.79163 5.14348 6.5811 5.83724 6.48232 6.6504C6.38694 7.43566 6.38695 8.42546 6.38697 9.6532V9.6532L6.38697 9.70224V12.0653ZM7.88752 19.0765C7.88755 19.0718 7.88756 19.0671 7.88756 19.0624V12.8156C7.88756 12.813 7.88755 12.8105 7.88752 12.8079V9.70224C7.88752 8.41391 7.88882 7.51553 7.97193 6.83135C8.05292 6.16465 8.20191 5.80276 8.42681 5.53944C8.50339 5.44978 8.5869 5.36627 8.67656 5.28969C8.93988 5.06479 9.30177 4.91579 9.96847 4.83481C10.6526 4.7517 11.551 4.7504 12.8394 4.7504H14.9401C16.2285 4.7504 17.1269 4.7517 17.811 4.83481C18.4777 4.91579 18.8396 5.06479 19.103 5.28969C19.1926 5.36627 19.2761 5.44978 19.3527 5.53944C19.5776 5.80276 19.7266 6.16465 19.8076 6.83135C19.8907 7.51553 19.892 8.41391 19.892 9.70224V15.1793C19.892 16.4676 19.8907 17.366 19.8076 18.0502C19.7266 18.7169 19.5776 19.0788 19.3527 19.3421C19.2761 19.4317 19.1926 19.5153 19.103 19.5918C18.8396 19.8167 18.4777 19.9657 17.811 20.0467C17.1269 20.1298 16.2285 20.1311 14.9401 20.1311H7.88752V19.0765Z" fill="#0C0F0F"/>
</svg>
