<svg width="24" height="24" viewBox="0 0 24 24" fill="none" xmlns="http://www.w3.org/2000/svg">
<path fill-rule="evenodd" clip-rule="evenodd" d="M6.50002 3.75012C5.36783 3.75012 4.45002 4.66794 4.45002 5.80012V6.37986C4.45002 7.06349 3.65267 7.43695 3.12749 6.9993L2.01988 6.07629C1.70167 5.81112 1.65868 5.33819 1.92385 5.01998C2.18903 4.70178 2.66195 4.65878 2.98016 4.92396L3.04558 4.97848C3.41629 3.41403 4.82223 2.25012 6.50002 2.25012C6.91423 2.25012 7.25002 2.58591 7.25002 3.00012C7.25002 3.41434 6.91423 3.75012 6.50002 3.75012Z" fill="#00DDD3"/>
<path fill-rule="evenodd" clip-rule="evenodd" d="M17.5 20.2501C18.6322 20.2501 19.55 19.3323 19.55 18.2001V17.6204C19.55 16.9368 20.3474 16.5633 20.8725 17.0009L21.9802 17.924C22.2984 18.1891 22.3414 18.6621 22.0762 18.9803C21.811 19.2985 21.3381 19.3415 21.0199 19.0763L20.9545 19.0218C20.5837 20.5862 19.1778 21.7501 17.5 21.7501C17.0858 21.7501 16.75 21.4143 16.75 21.0001C16.75 20.5859 17.0858 20.2501 17.5 20.2501Z" fill="#00DDD3"/>
<path d="M20 10.7209C20 7.00911 16.991 4.00012 13.2792 4.00012C10.8886 4.00012 8.78953 5.2483 7.59811 7.12851L5.71336 7.50012C6.96627 4.56068 9.88212 2.50012 13.2792 2.50012C17.8194 2.50012 21.5 6.18069 21.5 10.7209C21.5 14.3284 19.1763 17.3932 15.9441 18.5001L17 16.3186C18.8084 15.1141 20 13.0567 20 10.7209Z" fill="#0C0F0F"/>
<path fill-rule="evenodd" clip-rule="evenodd" d="M13.2792 2.50012C17.8194 2.50012 21.5 6.18069 21.5 10.7209C21.5 10.8465 21.4972 10.9715 21.4916 11.0957C21.3772 13.645 20.1018 15.892 18.1814 17.3208C17.5076 17.8221 16.7544 18.2226 15.9441 18.5001L17 16.3186C17.9766 15.6681 18.7733 14.7689 19.2996 13.7114C19.7461 12.8143 19.9979 11.8035 20 10.7346C20 10.73 20 10.7255 20 10.7209C20 7.00911 16.991 4.00012 13.2792 4.00012C12.7262 4.00012 12.1886 4.06694 11.6741 4.19299C9.96577 4.61161 8.51384 5.68338 7.59811 7.12851L5.71336 7.50012C5.97668 6.88234 6.31346 6.30337 6.71273 5.7742C8.20679 3.79403 10.5758 2.51109 13.245 2.50019C13.2564 2.50015 13.2678 2.50012 13.2792 2.50012Z" fill="#0C0F0F"/>
<path fill-rule="evenodd" clip-rule="evenodd" d="M10.7208 20.0001C14.4325 20.0001 17.4415 16.9911 17.4415 13.2794C17.4415 9.56758 14.4325 6.55859 10.7208 6.55859C7.00899 6.55859 4 9.56758 4 13.2794C4 16.9911 7.00899 20.0001 10.7208 20.0001ZM10.7208 21.5001C15.261 21.5001 18.9415 17.8196 18.9415 13.2794C18.9415 8.73915 15.261 5.05859 10.7208 5.05859C6.18056 5.05859 2.5 8.73915 2.5 13.2794C2.5 17.8196 6.18056 21.5001 10.7208 21.5001Z" fill="#0C0F0F"/>
</svg>
