<svg width="24" height="24" viewBox="0 0 24 24" fill="none" xmlns="http://www.w3.org/2000/svg">
<path fill-rule="evenodd" clip-rule="evenodd" d="M12.25 16.0001C12.25 15.5859 12.5858 15.2501 13 15.2501H17.5C17.9142 15.2501 18.25 15.5859 18.25 16.0001C18.25 16.4143 17.9142 16.7501 17.5 16.7501H13C12.5858 16.7501 12.25 16.4143 12.25 16.0001Z" fill="#00D5C8"/>
<path fill-rule="evenodd" clip-rule="evenodd" d="M6 5.50012H18C19.3807 5.50012 20.5 6.61941 20.5 8.00012V8.25012H3.5V8.00012C3.5 6.61941 4.61929 5.50012 6 5.50012ZM3.5 9.75012V17.0001C3.5 18.3808 4.61929 19.5001 6 19.5001H18C19.3807 19.5001 20.5 18.3808 20.5 17.0001V9.75012H3.5ZM2 8.00012C2 5.79098 3.79086 4.00012 6 4.00012H18C20.2091 4.00012 22 5.79098 22 8.00012V17.0001C22 19.2093 20.2091 21.0001 18 21.0001H6C3.79086 21.0001 2 19.2093 2 17.0001V8.00012Z" fill="#F9F9F9"/>
</svg>
