<svg width="24" height="24" viewBox="0 0 24 24" fill="none" xmlns="http://www.w3.org/2000/svg">
<path fill-rule="evenodd" clip-rule="evenodd" d="M10.5817 10.8643C11.3628 11.6454 12.6291 11.6454 13.4102 10.8643C14.1912 10.0833 14.1912 8.81696 13.4102 8.03591C12.6291 7.25486 11.3628 7.25486 10.5817 8.03591C9.80069 8.81696 9.80069 10.0833 10.5817 10.8643ZM9.52108 6.97525C8.15424 8.34209 8.15424 10.5582 9.52108 11.925C10.8879 13.2918 13.104 13.2918 14.4708 11.925C15.8377 10.5582 15.8377 8.34209 14.4708 6.97525C13.104 5.60842 10.8879 5.60842 9.52108 6.97525Z" fill="#00DDD3"/>
<path fill-rule="evenodd" clip-rule="evenodd" d="M4.28849 10.8966C4.28849 6.64594 7.73429 3.20013 11.9849 3.20013C16.2355 3.20013 19.6813 6.64594 19.6813 10.8966C19.6813 11.1596 19.6682 11.4194 19.6425 11.6753C19.6011 12.0874 19.9017 12.4551 20.3139 12.4964C20.726 12.5378 21.0936 12.2372 21.135 11.8251C21.1657 11.5195 21.1813 11.2097 21.1813 10.8966C21.1813 5.81751 17.064 1.70013 11.9849 1.70013C6.90587 1.70013 2.78849 5.81751 2.78849 10.8966C2.78849 11.2421 2.80758 11.5834 2.84481 11.9196C2.89042 12.3313 3.26114 12.6281 3.67283 12.5824C4.08453 12.5368 4.3813 12.1661 4.33569 11.7544C4.30452 11.473 4.28849 11.1868 4.28849 10.8966ZM14.4435 15.8431L3.27917 16.0956L3.29424 18.4673L12.969 20.1369C13.3471 20.2022 13.7364 20.147 14.0823 19.9791L20.7759 16.7289C20.8779 16.6794 20.9039 16.5455 20.8279 16.4614C20.7856 16.4147 20.7209 16.3954 20.66 16.4114L17.7686 17.1693C17.3684 17.2742 16.96 17.0337 16.8563 16.6321C16.7526 16.2306 16.993 15.8201 17.3932 15.7152L20.2845 14.9573C20.8844 14.8 21.5211 14.9898 21.9373 15.45C22.685 16.2767 22.4287 17.5945 21.4256 18.0816L14.7319 21.3318C14.1046 21.6364 13.3984 21.7365 12.7124 21.6181L2.92496 19.9291C2.27669 19.8172 1.8021 19.2553 1.79791 18.5948L1.78036 15.8328C1.77611 15.1638 2.30789 14.6143 2.97417 14.5993L14.4129 14.3406C15.3629 14.3191 16.1348 15.1021 16.1037 16.0555C16.0766 16.8832 15.4476 17.5662 14.6277 17.6582L10.2752 18.1467C9.86423 18.1928 9.49453 17.8958 9.44943 17.4834C9.40432 17.0709 9.7009 16.6992 10.1118 16.6531L14.4644 16.1646C14.5438 16.1557 14.6048 16.0895 14.6074 16.0093C14.6104 15.9169 14.5356 15.8411 14.4435 15.8431Z" fill="#0C0F0F"/>
</svg>
