<svg width="24" height="24" viewBox="0 0 24 24" fill="none" xmlns="http://www.w3.org/2000/svg">
<path fill-rule="evenodd" clip-rule="evenodd" d="M11.9849 3.20012C7.73432 3.20012 4.28851 6.64593 4.28851 10.8966C4.28851 11.1868 4.30455 11.473 4.33572 11.7544C4.38133 12.1661 4.08456 12.5368 3.67286 12.5824C3.26116 12.6281 2.89045 12.3313 2.84484 11.9196C2.8076 11.5834 2.78851 11.2421 2.78851 10.8966C2.78851 5.81751 6.90589 1.70012 11.9849 1.70012C17.064 1.70012 21.1814 5.81751 21.1814 10.8966C21.1814 11.2097 21.1657 11.5195 21.135 11.8251C21.0937 12.2372 20.726 12.5378 20.3139 12.4964C19.9017 12.4551 19.6012 12.0874 19.6425 11.6753C19.6682 11.4194 19.6814 11.1596 19.6814 10.8966C19.6814 6.64593 16.2356 3.20012 11.9849 3.20012Z" fill="#F9F9F9"/>
<path fill-rule="evenodd" clip-rule="evenodd" d="M10.5817 10.8643C11.3628 11.6454 12.6291 11.6454 13.4102 10.8643C14.1912 10.0833 14.1912 8.81696 13.4102 8.03591C12.6291 7.25486 11.3628 7.25486 10.5817 8.03591C9.80069 8.81696 9.80069 10.0833 10.5817 10.8643ZM9.52108 6.97525C8.15424 8.34209 8.15424 10.5582 9.52108 11.925C10.8879 13.2918 13.104 13.2918 14.4708 11.925C15.8377 10.5582 15.8377 8.34209 14.4708 6.97525C13.104 5.60842 10.8879 5.60842 9.52108 6.97525Z" fill="#00D5C8"/>
<path fill-rule="evenodd" clip-rule="evenodd" d="M3.24849 16.296L14.3154 15.9766C14.3996 15.9741 14.4681 16.0437 14.4648 16.1281C14.462 16.2001 14.4073 16.2594 14.336 16.2678L10.0019 16.7783C9.59125 16.8267 9.29671 17.2001 9.34406 17.6123C9.39141 18.0245 9.76273 18.3194 10.1734 18.271L14.5075 17.7605C15.312 17.6657 15.9288 16.9967 15.9607 16.1843C15.9982 15.2313 15.2251 14.4469 14.2755 14.4743L2.92839 14.8018C2.27332 14.8207 1.75138 15.3599 1.75139 16.0177L1.75142 18.7301C1.75143 19.3976 2.23218 19.9663 2.88808 20.0746L12.5705 21.6741C13.2479 21.786 13.9436 21.6844 14.5619 21.3831L21.2403 18.1293C22.2326 17.6458 22.4836 16.3407 21.7413 15.5244C21.328 15.0699 20.697 14.8841 20.1036 15.0422L17.226 15.8086C16.8262 15.915 16.5874 16.3265 16.6926 16.7276C16.7979 17.1288 17.2073 17.3676 17.6071 17.2612L20.4847 16.4948C20.5391 16.4803 20.5969 16.4973 20.6347 16.5389C20.7027 16.6137 20.6797 16.7332 20.5889 16.7775L13.9105 20.0313C13.5708 20.1968 13.1886 20.2526 12.8165 20.1912L3.24852 18.6106L3.24849 16.296Z" fill="#F9F9F9"/>
</svg>
