<svg width="24" height="24" viewBox="0 0 24 24" fill="none" xmlns="http://www.w3.org/2000/svg">
<path fill-rule="evenodd" clip-rule="evenodd" d="M7.86523 12.2001C7.86523 11.7859 8.20102 11.4501 8.61523 11.4501H15.3845C15.7987 11.4501 16.1345 11.7859 16.1345 12.2001C16.1345 12.6143 15.7987 12.9501 15.3845 12.9501H8.61523C8.20102 12.9501 7.86523 12.6143 7.86523 12.2001Z" fill="#00D5C8"/>
<path fill-rule="evenodd" clip-rule="evenodd" d="M12 21.1104C11.5858 21.1104 11.25 20.7746 11.25 20.3604V12.5001C11.25 12.0859 11.5858 11.7501 12 11.7501C12.4142 11.7501 12.75 12.0859 12.75 12.5001V20.3604C12.75 20.7746 12.4142 21.1104 12 21.1104Z" fill="#00D5C8"/>
<path d="M6.19319 9.51164L7.36842 9.42297L7.56032 8.26012C7.9123 6.12719 9.76759 4.50012 12 4.50012C14.2324 4.50012 16.0877 6.12719 16.4397 8.26012L16.6316 9.42297L17.8068 9.51164C19.8718 9.66745 21.5 11.3944 21.5 13.5001C21.5 15.7093 19.7091 17.5001 17.5 17.5001H15.75C15.3358 17.5001 15 17.8359 15 18.2501C15 18.6643 15.3358 19.0001 15.75 19.0001H17.5C20.5376 19.0001 23 16.5377 23 13.5001C23 10.6037 20.7612 8.23029 17.9197 8.0159C17.4501 5.17043 14.9785 3.00012 12 3.00012C9.0215 3.00012 6.5499 5.17043 6.08033 8.0159C3.23883 8.23029 1 10.6037 1 13.5001C1 16.5377 3.46243 19.0001 6.5 19.0001H8.25C8.66421 19.0001 9 18.6643 9 18.2501C9 17.8359 8.66421 17.5001 8.25 17.5001H6.5C4.29086 17.5001 2.5 15.7093 2.5 13.5001C2.5 11.3944 4.12816 9.66745 6.19319 9.51164Z" fill="#F9F9F9"/>
</svg>
