<svg width="24" height="24" viewBox="0 0 24 24" fill="none" xmlns="http://www.w3.org/2000/svg">
<path fill-rule="evenodd" clip-rule="evenodd" d="M4.45002 5.80012C4.45002 4.66794 5.36784 3.75012 6.50002 3.75012C6.91423 3.75012 7.25002 3.41434 7.25002 3.00012C7.25002 2.58591 6.91423 2.25012 6.50002 2.25012C4.82223 2.25012 3.41629 3.41404 3.04558 4.97848L2.98016 4.92396C2.66195 4.65878 2.18903 4.70178 1.92385 5.01998C1.65868 5.33819 1.70167 5.81112 2.01988 6.07629L3.12749 6.9993C3.65267 7.43695 4.45002 7.06349 4.45002 6.37986V5.80012ZM19.55 18.2001C19.55 19.3323 18.6322 20.2501 17.5 20.2501C17.0858 20.2501 16.75 20.5859 16.75 21.0001C16.75 21.4143 17.0858 21.7501 17.5 21.7501C19.1778 21.7501 20.5837 20.5862 20.9545 19.0218L21.0199 19.0763C21.3381 19.3415 21.811 19.2985 22.0762 18.9803C22.3414 18.6621 22.2984 18.1891 21.9802 17.924L20.8725 17.0009C20.3474 16.5633 19.55 16.9368 19.55 17.6204V18.2001Z" fill="#00D5C8"/>
<path fill-rule="evenodd" clip-rule="evenodd" d="M13.2793 4.00012C16.991 4.00012 20 7.00911 20 10.7209C20 12.1108 19.5781 13.4021 18.8554 14.4739C18.9121 14.0839 18.9415 13.6851 18.9415 13.2794C18.9415 8.73915 15.261 5.05859 10.7208 5.05859C10.3151 5.05859 9.91628 5.08797 9.52634 5.14473C10.598 4.42202 11.8894 4.00012 13.2793 4.00012ZM6.32881 6.32888C7.7859 4.02783 10.3542 2.50012 13.2793 2.50012C17.8195 2.50012 21.5 6.18069 21.5 10.7209C21.5 13.646 19.9723 16.2143 17.6712 17.6714C16.2141 19.9724 13.6459 21.5001 10.7208 21.5001C6.18056 21.5001 2.5 17.8196 2.5 13.2794C2.5 10.3543 4.02773 7.78597 6.32881 6.32888ZM17.4415 13.2794C17.4415 16.9911 14.4325 20.0001 10.7208 20.0001C7.00899 20.0001 4 16.9911 4 13.2794C4 9.56758 7.00899 6.55859 10.7208 6.55859C14.4325 6.55859 17.4415 9.56758 17.4415 13.2794Z" fill="#F9F9F9"/>
</svg>
