<svg width="24" height="24" viewBox="0 0 24 24" fill="none" xmlns="http://www.w3.org/2000/svg">
<path fill-rule="evenodd" clip-rule="evenodd" d="M5.63197 4.56824C4.03787 4.56824 2.74561 5.86051 2.74561 7.4546V8.94357C3.82802 9.53232 4.56379 10.6795 4.56379 12.0001C4.56379 13.3206 3.82802 14.4678 2.74561 15.0565V16.5455C2.74561 18.1396 4.03787 19.4319 5.63197 19.4319H18.3592C19.9533 19.4319 21.2456 18.1396 21.2456 16.5455V15.0565C20.1632 14.4678 19.4274 13.3206 19.4274 12.0001C19.4274 10.6795 20.1632 9.53232 21.2456 8.94357V7.4546C21.2456 5.86051 19.9533 4.56824 18.3592 4.56824H5.63197ZM1.24561 7.4546C1.24561 5.03208 3.20945 3.06824 5.63197 3.06824H18.3592C20.7818 3.06824 22.7456 5.03208 22.7456 7.4546V9.95835L22.2455 10.1351C21.4766 10.4069 20.9274 11.1403 20.9274 12.0001C20.9274 12.8598 21.4766 13.5932 22.2455 13.865L22.7456 14.0418V16.5455C22.7456 18.968 20.7818 20.9319 18.3592 20.9319H5.63197C3.20945 20.9319 1.24561 18.968 1.24561 16.5455V14.0418L1.74567 13.865C2.51465 13.5932 3.06379 12.8598 3.06379 12.0001C3.06379 11.1403 2.51465 10.4069 1.74567 10.1351L1.24561 9.95835V7.4546Z" fill="#F9F9F9"/>
<path fill-rule="evenodd" clip-rule="evenodd" d="M12.0112 6.90833C12.4254 6.90833 12.7612 7.24411 12.7612 7.65833V8.02434C12.7998 8.03613 12.8382 8.04873 12.8763 8.06214C13.3454 8.22718 13.7649 8.51305 14.0697 8.90048C14.3258 9.22604 14.2694 9.69757 13.9439 9.95365C13.6183 10.2097 13.1468 10.1534 12.8907 9.82783C12.7778 9.68435 12.6039 9.55642 12.3785 9.47711C12.1531 9.3978 11.8998 9.37583 11.6545 9.41728C11.409 9.45876 11.1976 9.55911 11.0421 9.69114C10.8878 9.82224 10.8004 9.97356 10.7668 10.117C10.7337 10.2584 10.7489 10.4067 10.8188 10.55C10.89 10.696 11.0208 10.8408 11.2147 10.9509M11.2147 10.9509C11.3433 11.0238 11.4707 11.0445 11.7512 11.09C11.8303 11.1029 11.9215 11.1177 12.0282 11.1362C12.8032 11.2704 13.7509 11.5583 14.2282 12.5372C14.446 12.9839 14.506 13.4847 14.3925 13.9696C14.2794 14.4523 14.0049 14.8763 13.6278 15.1967C13.3734 15.4128 13.0779 15.5775 12.7612 15.6872V16.0231C12.7612 16.4373 12.4254 16.7731 12.0112 16.7731C11.597 16.7731 11.2612 16.4373 11.2612 16.0231V15.799C11.1122 15.7716 10.9654 15.7328 10.8224 15.6825C10.3534 15.5174 9.93383 15.2316 9.62909 14.8441C9.37301 14.5186 9.42934 14.047 9.75491 13.791C10.0805 13.5349 10.552 13.5912 10.8081 13.9168C10.9209 14.0603 11.0949 14.1882 11.3203 14.2675C11.5457 14.3468 11.799 14.3688 12.0443 14.3273C12.2897 14.2859 12.5012 14.1855 12.6566 14.0535C12.811 13.9224 12.8984 13.7711 12.932 13.6276C12.9651 13.4862 12.9498 13.3379 12.88 13.1946C12.7397 12.907 12.4535 12.7322 11.7722 12.6142C11.7285 12.6066 11.6784 12.599 11.6231 12.5907C11.3203 12.5451 10.8635 12.4763 10.4743 12.2554C10.0433 12.0107 9.68698 11.6513 9.47053 11.2074C9.25273 10.7607 9.19274 10.2599 9.30628 9.77505C9.41932 9.29227 9.69383 8.86834 10.071 8.54794C10.4103 8.25969 10.8226 8.06291 11.2612 7.96616V7.65833C11.2612 7.24411 11.597 6.90833 12.0112 6.90833" fill="#00D5C8"/>
</svg>
