<svg width="24" height="24" viewBox="0 0 24 24" fill="none" xmlns="http://www.w3.org/2000/svg">
<path fill-rule="evenodd" clip-rule="evenodd" d="M9.69977 9.48331L9.69995 9.48287V7.36354C8.90382 7.75941 7.85248 8.00012 6.69995 8.00012C5.54742 8.00012 4.49609 7.75941 3.69995 7.36354V9.48287L3.70014 9.48331C3.71234 9.51222 3.79996 9.71988 4.29345 9.9822C4.84894 10.2775 5.69473 10.5001 6.69995 10.5001C7.70517 10.5001 8.55096 10.2775 9.10645 9.9822C9.59994 9.71988 9.68757 9.51222 9.69977 9.48331ZM3.70823 5.50012C3.7371 5.43815 3.84727 5.26535 4.24643 5.04359C4.31546 5.00524 4.38937 4.96799 4.46788 4.93216C5.01747 4.68133 5.79275 4.50012 6.69995 4.50012C7.73675 4.50012 8.60126 4.73681 9.15347 5.04359C9.49861 5.23534 9.62769 5.39048 9.67497 5.46902C9.68237 5.48132 9.68776 5.49173 9.69167 5.50012C9.6628 5.5621 9.55263 5.73489 9.15347 5.95665C8.60125 6.26344 7.73675 6.50012 6.69995 6.50012C5.66315 6.50012 4.79865 6.26344 4.24644 5.95665C3.84727 5.73489 3.7371 5.5621 3.70823 5.50012ZM11.2 5.50012V5.50014V8.11923V9.50012V9.61923H11.1949C11.083 10.9446 9.11336 12.0001 6.69995 12.0001C4.28654 12.0001 2.31687 10.9446 2.20497 9.61923H2.19995V9.50012V8.11923V5.50014V5.50012C2.19995 4.11941 4.21467 3.00012 6.69995 3.00012C9.18523 3.00012 11.2 4.11941 11.2 5.50012Z" fill="#0C0F0F"/>
<path fill-rule="evenodd" clip-rule="evenodd" d="M3.75 15.0001C3.75 17.0066 5.1405 18.6884 7.01047 19.1343L6.77239 18.182C6.67193 17.7802 6.91625 17.373 7.3181 17.2725C7.71994 17.1721 8.12715 17.4164 8.22761 17.8182L8.72353 19.8019C8.74079 19.865 8.75 19.9315 8.75 20.0001C8.75 20.4143 8.41421 20.7501 8 20.7501C4.82436 20.7501 2.25 18.1758 2.25 15.0001C2.25 14.5859 2.58579 14.2501 3 14.2501C3.41421 14.2501 3.75 14.5859 3.75 15.0001ZM20.25 9.00012C20.25 6.99361 18.8595 5.31186 16.9895 4.86593L17.2276 5.81822C17.3281 6.22007 17.0837 6.62727 16.6819 6.72773C16.2801 6.82819 15.8729 6.58387 15.7724 6.18202L15.2765 4.19835C15.2592 4.1352 15.25 4.06874 15.25 4.00012C15.25 3.58591 15.5858 3.25012 16 3.25012C19.1756 3.25012 21.75 5.82448 21.75 9.00012C21.75 9.41434 21.4142 9.75012 21 9.75012C20.5858 9.75012 20.25 9.41434 20.25 9.00012Z" fill="#00DDD3"/>
<path fill-rule="evenodd" clip-rule="evenodd" d="M17.5 16.8052C19.0368 16.8052 20.3245 17.8718 20.663 19.3052H14.337C14.6755 17.8718 15.9632 16.8052 17.5 16.8052ZM15.3028 15.8428C13.7855 16.6358 12.75 18.2246 12.75 20.0552C12.75 20.4694 13.0858 20.8052 13.5 20.8052H21.5C21.9142 20.8052 22.25 20.4694 22.25 20.0552C22.25 18.2246 21.2145 16.6358 19.6972 15.8428C20.1953 15.3072 20.5 14.5893 20.5 13.8002C20.5 12.1433 19.1569 10.8002 17.5 10.8002C15.8431 10.8002 14.5 12.1433 14.5 13.8002C14.5 14.5893 14.8047 15.3072 15.3028 15.8428ZM19 13.8002C19 14.6286 18.3284 15.3002 17.5 15.3002C16.6716 15.3002 16 14.6286 16 13.8002C16 12.9717 16.6716 12.3002 17.5 12.3002C18.3284 12.3002 19 12.9717 19 13.8002Z" fill="#0C0F0F"/>
</svg>
