<svg width="24" height="24" viewBox="0 0 24 24" fill="none" xmlns="http://www.w3.org/2000/svg">
<path fill-rule="evenodd" clip-rule="evenodd" d="M18 5.00012H6C4.61929 5.00012 3.5 6.11941 3.5 7.50012V16.5001C3.5 17.8808 4.61929 19.0001 6 19.0001H18C19.3807 19.0001 20.5 17.8808 20.5 16.5001V7.50012C20.5 6.11941 19.3807 5.00012 18 5.00012ZM6 3.50012C3.79086 3.50012 2 5.29098 2 7.50012V16.5001C2 18.7093 3.79086 20.5001 6 20.5001H18C20.2091 20.5001 22 18.7093 22 16.5001V7.50012C22 5.29098 20.2091 3.50012 18 3.50012H6Z" fill="#F9F9F9"/>
<path fill-rule="evenodd" clip-rule="evenodd" d="M14.7 12.7001V15.8557H15.7222C16.5936 15.8557 17.3 15.1493 17.3 14.2779C17.3 13.4065 16.5936 12.7001 15.7222 12.7001H14.7ZM14 11.5001C13.7239 11.5001 13.5 11.724 13.5 12.0001V16.5557C13.5 16.8318 13.7239 17.0557 14 17.0557H15.7222C17.2563 17.0557 18.5 15.812 18.5 14.2779C18.5 12.7438 17.2563 11.5001 15.7222 11.5001H14Z" fill="#00D5C8"/>
<path fill-rule="evenodd" clip-rule="evenodd" d="M2.88818 7.75012L21.1196 7.75012V9.25012L2.88818 9.25012V7.75012Z" fill="#F9F9F9"/>
</svg>
