<svg width="24" height="24" viewBox="0 0 24 24" fill="none" xmlns="http://www.w3.org/2000/svg">
<path fill-rule="evenodd" clip-rule="evenodd" d="M20 7.75012C20 9.54505 18.5449 11.0001 16.75 11.0001C14.9551 11.0001 13.5 9.54505 13.5 7.75012C13.5 5.9552 14.9551 4.50012 16.75 4.50012C18.5449 4.50012 20 5.9552 20 7.75012ZM21.5 7.75012C21.5 10.3735 19.3734 12.5001 16.75 12.5001C14.1266 12.5001 12 10.3735 12 7.75012C12 5.12677 14.1266 3.00012 16.75 3.00012C19.3734 3.00012 21.5 5.12677 21.5 7.75012ZM11 16.7501C11 18.545 9.54493 20.0001 7.75 20.0001C5.95507 20.0001 4.5 18.545 4.5 16.7501C4.5 14.9552 5.95507 13.5001 7.75 13.5001C9.54493 13.5001 11 14.9552 11 16.7501ZM12.5 16.7501C12.5 19.3735 10.3734 21.5001 7.75 21.5001C5.12665 21.5001 3 19.3735 3 16.7501C3 14.1268 5.12665 12.0001 7.75 12.0001C10.3734 12.0001 12.5 14.1268 12.5 16.7501Z" fill="#F9F9F9"/>
<path fill-rule="evenodd" clip-rule="evenodd" d="M3.75 9.00012C3.75 6.99361 5.1405 5.31186 7.01047 4.86593L6.77239 5.81822C6.67193 6.22007 6.91625 6.62727 7.3181 6.72773C7.71994 6.82819 8.12715 6.58387 8.22761 6.18202L8.72353 4.19835C8.74079 4.1352 8.75 4.06874 8.75 4.00012C8.75 3.58591 8.41421 3.25012 8 3.25012C4.82436 3.25012 2.25 5.82448 2.25 9.00012C2.25 9.41434 2.58579 9.75012 3 9.75012C3.41421 9.75012 3.75 9.41434 3.75 9.00012ZM20.25 15.0001C20.25 17.0066 18.8595 18.6884 16.9895 19.1343L17.2276 18.182C17.3281 17.7802 17.0837 17.373 16.6819 17.2725C16.2801 17.1721 15.8729 17.4164 15.7724 17.8182L15.2765 19.8019C15.2592 19.865 15.25 19.9315 15.25 20.0001C15.25 20.4143 15.5858 20.7501 16 20.7501C19.1756 20.7501 21.75 18.1758 21.75 15.0001C21.75 14.5859 21.4142 14.2501 21 14.2501C20.5858 14.2501 20.25 14.5859 20.25 15.0001Z" fill="#00D5C8"/>
</svg>
