<svg width="24" height="24" viewBox="0 0 24 24" fill="none" xmlns="http://www.w3.org/2000/svg">
<path fill-rule="evenodd" clip-rule="evenodd" d="M13.25 9.00017C13.25 8.58596 13.5858 8.25017 14 8.25017H15.7586C16.5158 8.25017 16.8951 9.16574 16.3596 9.70121L13.0557 13.0052L10.5557 11.0052L8.53033 13.0305C8.23744 13.3234 7.76256 13.3234 7.46967 13.0305C7.17678 12.7376 7.17678 12.2627 7.46967 11.9698L9.90638 9.53313C10.2126 9.22687 10.7002 9.19987 11.0384 9.47043L12.9443 10.9952L14.1893 9.75017H14C13.5858 9.75017 13.25 9.41439 13.25 9.00017Z" fill="#00DDD3"/>
<path fill-rule="evenodd" clip-rule="evenodd" d="M18 4.70012H6C4.61929 4.70012 3.5 5.81941 3.5 7.20012V14.7001C3.5 16.0808 4.61929 17.2001 6 17.2001H18C19.3807 17.2001 20.5 16.0808 20.5 14.7001V7.20012C20.5 5.81941 19.3807 4.70012 18 4.70012ZM6 3.20012C3.79086 3.20012 2 4.99098 2 7.20012V14.7001C2 16.9093 3.79086 18.7001 6 18.7001H11.25V19.6501H9C8.58579 19.6501 8.25 19.9859 8.25 20.4001C8.25 20.8143 8.58579 21.1501 9 21.1501H15C15.4142 21.1501 15.75 20.8143 15.75 20.4001C15.75 19.9859 15.4142 19.6501 15 19.6501H12.75V18.7001H18C20.2091 18.7001 22 16.9093 22 14.7001V7.20012C22 4.99098 20.2091 3.20012 18 3.20012H6Z" fill="#0C0F0F"/>
</svg>
