<svg width="24" height="24" viewBox="0 0 24 24" fill="none" xmlns="http://www.w3.org/2000/svg">
<path fill-rule="evenodd" clip-rule="evenodd" d="M10.9286 5.65341L8.95714 3.02484C8.00986 1.76179 6 2.43175 6 4.01055C6 4.91787 6.73553 5.65341 7.64286 5.65341H10.9286ZM10.1571 2.12484C8.34495 -0.291422 4.5 0.990225 4.5 4.01055C4.5 4.63754 4.6836 5.22164 4.99997 5.71204H4.5C2.70507 5.71204 1.25 7.16711 1.25 8.96204C1.25 10.1126 1.84792 11.1236 2.75 11.7011V18.521C2.75 20.3044 4.19575 21.7501 5.97917 21.7501H18.0208C19.8043 21.7501 21.25 20.3044 21.25 18.521V11.7011C22.1521 11.1236 22.75 10.1126 22.75 8.96204C22.75 7.16711 21.2949 5.71204 19.5 5.71204H19C19.3164 5.22164 19.5 4.63754 19.5 4.01055C19.5 0.990225 15.6551 -0.291422 13.8429 2.12484L12 4.58198L10.1571 2.12484ZM19.75 12.2026C19.6675 12.2088 19.5841 12.212 19.5 12.212H19.0833H4.91667H4.5C4.41588 12.212 4.33251 12.2088 4.25 12.2026V18.521C4.25 19.4759 5.02417 20.2501 5.97917 20.2501H18.0208C18.9758 20.2501 19.75 19.476 19.75 18.521V12.2026ZM19.5 7.21204C20.4665 7.21204 21.25 7.99554 21.25 8.96204C21.25 9.92854 20.4665 10.712 19.5 10.712H19.0833H4.91667H4.5C3.5335 10.712 2.75 9.92854 2.75 8.96204C2.75 7.99554 3.5335 7.21204 4.5 7.21204H19.5ZM15.0429 3.02484L13.0714 5.65341H16.3571C17.2645 5.65341 18 4.91787 18 4.01055C18 2.43175 15.9901 1.76179 15.0429 3.02484Z" fill="#0C0F0F"/>
<path fill-rule="evenodd" clip-rule="evenodd" d="M12 6.25012C12.4142 6.25012 12.75 6.58591 12.75 7.00012V20.2001C12.75 20.6143 12.4142 20.9501 12 20.9501C11.5858 20.9501 11.25 20.6143 11.25 20.2001V7.00012C11.25 6.58591 11.5858 6.25012 12 6.25012Z" fill="#00D5C8"/>
</svg>
