<svg width="24" height="24" viewBox="0 0 24 24" fill="none" xmlns="http://www.w3.org/2000/svg">
<path d="M16.9806 4.03302C16.5664 4.03302 16.2306 4.36881 16.2306 4.78302C16.2306 5.19723 16.5664 5.53302 16.9806 5.53302H19.0401L18.8741 5.69895C18.5813 5.99184 18.5813 6.46671 18.8741 6.75961C19.167 7.0525 19.6419 7.0525 19.9348 6.75961L20.2306 6.46382V8.78302C20.2306 9.19723 20.5664 9.53302 20.9806 9.53302C21.3948 9.53302 21.7306 9.19723 21.7306 8.78302V4.78302C21.7306 4.36881 21.3948 4.03302 20.9806 4.03302H16.9806Z" fill="#00DDD3"/>
<path d="M18.6934 7.90495C18.9863 7.61205 18.9863 7.13718 18.6934 6.84429C18.4005 6.55139 17.9256 6.55139 17.6327 6.84429L16.9534 7.52358C16.6605 7.81647 16.6605 8.29134 16.9534 8.58424C17.2463 8.87713 17.7212 8.87713 18.0141 8.58424L18.6934 7.90495Z" fill="#00DDD3"/>
<path d="M10.9079 8.53432C10.6568 8.45275 10.3864 8.45275 10.1353 8.53432C9.94659 8.59565 9.80682 8.69832 9.70757 8.78257C9.61988 8.85701 9.52625 8.95069 9.43989 9.03709L4.99128 13.4857C4.69838 13.7786 4.69838 14.2535 4.99128 14.5464C5.28417 14.8393 5.75904 14.8393 6.05194 14.5464L10.5216 10.0767L12.4399 11.995C12.5262 12.0814 12.6199 12.1751 12.7076 12.2495C12.8068 12.3338 12.9466 12.4364 13.1353 12.4978C13.3864 12.5793 13.6568 12.5793 13.9079 12.4978C14.0966 12.4364 14.2364 12.3338 14.3356 12.2495C14.4233 12.1751 14.517 12.0814 14.6033 11.995L14.6176 11.9807C14.9105 11.6878 14.9105 11.2129 14.6176 10.92C14.3247 10.6271 13.8499 10.6271 13.557 10.92L13.5216 10.9554L11.6033 9.0371C11.517 8.9507 11.4233 8.85701 11.3356 8.78257C11.2364 8.69832 11.0966 8.59565 10.9079 8.53432Z" fill="#00DDD3"/>
<path d="M16.6555 9.94281C16.9484 9.64992 16.9484 9.17505 16.6555 8.88215C16.3626 8.58926 15.8877 8.58926 15.5948 8.88215L14.9155 9.56145C14.6226 9.85434 14.6226 10.3292 14.9155 10.6221C15.2084 10.915 15.6833 10.915 15.9762 10.6221L16.6555 9.94281Z" fill="#00DDD3"/>
<path fill-rule="evenodd" clip-rule="evenodd" d="M2.6062 4.91132C3.02042 4.91132 3.3562 5.2471 3.3562 5.66132V14.8613C3.3562 15.7138 3.35678 16.308 3.39458 16.7706C3.43167 17.2245 3.5008 17.4853 3.60144 17.6828C3.81715 18.1062 4.16136 18.4504 4.58472 18.6661C4.78224 18.7667 5.04301 18.8359 5.49688 18.8729C5.95951 18.9107 6.55375 18.9113 7.4062 18.9113H18.6062C19.0204 18.9113 19.3562 19.2471 19.3562 19.6613C19.3562 20.0755 19.0204 20.4113 18.6062 20.4113H7.37408C6.56125 20.4113 5.90564 20.4113 5.37473 20.368C4.8281 20.3233 4.34796 20.2289 3.90374 20.0026C3.19813 19.6431 2.62445 19.0694 2.26493 18.3638C2.03859 17.9196 1.94423 17.4394 1.89956 16.8928C1.85619 16.3619 1.85619 15.7063 1.8562 14.8934L1.8562 5.66132C1.8562 5.2471 2.19199 4.91132 2.6062 4.91132Z" fill="#0C0F0F"/>
</svg>
