<svg width="24" height="24" viewBox="0 0 24 24" fill="none" xmlns="http://www.w3.org/2000/svg">
<path fill-rule="evenodd" clip-rule="evenodd" d="M11.881 11.5387C12.6574 12.3243 13.9163 12.3243 14.6927 11.5387C15.4691 10.753 15.4691 9.47925 14.6927 8.69361C13.9163 7.90797 12.6574 7.90797 11.881 8.69361C11.1046 9.47925 11.1046 10.753 11.881 11.5387ZM10.8266 12.6056C12.1854 13.9805 14.3883 13.9805 15.7471 12.6056C17.1058 11.2307 17.1058 9.00159 15.7471 7.62671C14.3883 6.25184 12.1854 6.25184 10.8266 7.62671C9.46789 9.00159 9.46789 11.2307 10.8266 12.6056Z" fill="#F9F9F9"/>
<path fill-rule="evenodd" clip-rule="evenodd" d="M8.55778 11.8996C8.83096 12.2113 8.80266 12.6882 8.49456 12.9646L4.4362 16.6057C4.12811 16.8821 3.65689 16.8535 3.38371 16.5417C3.11054 16.23 3.13884 15.7532 3.44694 15.4767L7.5053 11.8356C7.81339 11.5592 8.28461 11.5878 8.55778 11.8996Z" fill="#00D5C8"/>
<path fill-rule="evenodd" clip-rule="evenodd" d="M11.0361 15.7534C11.3176 16.0575 11.3021 16.535 11.0016 16.8198L6.00959 21.5506C5.70906 21.8355 5.23725 21.8198 4.95577 21.5157C4.6743 21.2116 4.68975 20.7342 4.99029 20.4494L9.98227 15.7185C10.2828 15.4337 10.7546 15.4493 11.0361 15.7534Z" fill="#00D5C8"/>
<path d="M19.293 12.6394C19.5254 12.407 19.6267 12.0733 19.5641 11.7466L18.5031 6.21528C18.3841 5.59491 17.8947 5.10616 17.2742 4.98801L11.7569 3.93747C11.4306 3.87534 11.0975 3.97672 10.8655 4.20875L5.55897 9.48258C5.26053 9.77918 4.77839 9.77844 4.48087 9.48092C4.18204 9.18209 4.18279 8.69738 4.48254 8.39948L9.7857 3.12897C10.3658 2.54891 11.1986 2.29546 12.0143 2.45077L17.5316 3.50131C18.7726 3.73762 19.7514 4.71511 19.9894 5.95585L21.0504 11.4871C21.207 12.3039 20.9537 13.1382 20.3728 13.7192L13.3042 20.7878C13.006 21.086 12.5226 21.086 12.2244 20.7878C11.9262 20.4896 11.9262 20.0062 12.2244 19.708L19.293 12.6394Z" fill="#F9F9F9"/>
<path fill-rule="evenodd" clip-rule="evenodd" d="M9.7857 3.12897L4.48254 8.39948C4.18279 8.69738 4.18204 9.18209 4.48087 9.48092C4.77839 9.77844 5.26053 9.77918 5.55897 9.48258L10.8655 4.20875C11.0975 3.97672 11.4306 3.87534 11.7569 3.93747L17.2742 4.98801C17.8947 5.10616 18.3841 5.59491 18.5031 6.21528L19.5641 11.7466C19.6267 12.0733 19.5254 12.407 19.293 12.6394L12.2244 19.708C11.9262 20.0062 11.9262 20.4896 12.2244 20.7878C12.5226 21.086 13.006 21.086 13.3042 20.7878L20.3728 13.7192C20.9537 13.1382 21.207 12.3039 21.0504 11.4871L19.9894 5.95585C19.7514 4.71511 18.7726 3.73762 17.5316 3.50131L12.0143 2.45077C11.1986 2.29546 10.3658 2.54891 9.7857 3.12897ZM9.80683 3.14608C9.80616 3.14675 9.80549 3.14742 9.80482 3.14809L9.80475 3.14814L4.50159 8.41865C4.78946 8.13255 5.25454 8.13327 5.54153 8.42026C5.82977 8.7085 5.82905 9.17606 5.53992 9.46341L10.8431 4.1929L10.8431 4.19291" fill="#F9F9F9"/>
</svg>
