<svg width="24" height="24" viewBox="0 0 24 24" fill="none" xmlns="http://www.w3.org/2000/svg">
<path fill-rule="evenodd" clip-rule="evenodd" d="M8.55778 11.8996C8.83096 12.2113 8.80266 12.6882 8.49456 12.9646L4.4362 16.6057C4.12811 16.8821 3.65689 16.8535 3.38371 16.5417C3.11054 16.23 3.13884 15.7532 3.44694 15.4768L7.5053 11.8356C7.81339 11.5592 8.28461 11.5878 8.55778 11.8996Z" fill="#00DDD3"/>
<path fill-rule="evenodd" clip-rule="evenodd" d="M11.0361 15.7534C11.3176 16.0575 11.3021 16.535 11.0016 16.8198L6.00959 21.5506C5.70906 21.8355 5.23725 21.8198 4.95577 21.5157C4.6743 21.2116 4.68975 20.7342 4.99029 20.4494L9.98227 15.7185C10.2828 15.4337 10.7546 15.4493 11.0361 15.7534Z" fill="#00DDD3"/>
<path fill-rule="evenodd" clip-rule="evenodd" d="M19.2931 12.6394C19.5254 12.407 19.6267 12.0732 19.5641 11.7466L18.5031 6.21528C18.3841 5.59491 17.8947 5.10616 17.2742 4.98801L11.757 3.93747C11.4307 3.87534 11.0975 3.97672 10.8655 4.20875L5.559 9.48258C5.26056 9.77918 4.77841 9.77843 4.48089 9.48091C4.18207 9.18209 4.18282 8.69737 4.48256 8.39947L9.78573 3.12897C10.3658 2.5489 11.1987 2.29545 12.0144 2.45077L17.5316 3.50131C18.7727 3.73762 19.7515 4.71511 19.9894 5.95585L21.0504 11.4871C21.207 12.3038 20.9538 13.1382 20.3728 13.7191L13.3042 20.7878C13.006 21.086 12.5226 21.086 12.2244 20.7878C11.9262 20.4896 11.9262 20.0062 12.2244 19.708L19.2931 12.6394ZM11.881 11.5387C12.6575 12.3243 13.9163 12.3243 14.6927 11.5387C15.4692 10.753 15.4692 9.47926 14.6927 8.69361C13.9163 7.90797 12.6575 7.90797 11.881 8.69361C11.1046 9.47926 11.1046 10.753 11.881 11.5387ZM10.8267 12.6056C12.1854 13.9805 14.3884 13.9805 15.7471 12.6056C17.1059 11.2307 17.1059 9.00159 15.7471 7.62672C14.3884 6.25184 12.1854 6.25184 10.8267 7.62672C9.46791 9.00159 9.46791 11.2307 10.8267 12.6056Z" fill="#0C0F0F"/>
</svg>
