<svg width="24" height="24" viewBox="0 0 24 24" fill="none" xmlns="http://www.w3.org/2000/svg">
<path fill-rule="evenodd" clip-rule="evenodd" d="M8 11.3001C9.933 11.3001 11.5 9.73312 11.5 7.80013C11.5 5.86713 9.933 4.30013 8 4.30013C6.067 4.30013 4.5 5.86713 4.5 7.80013C4.5 9.73312 6.067 11.3001 8 11.3001ZM8 12.8001C10.7614 12.8001 13 10.5615 13 7.80013C13 5.0387 10.7614 2.80013 8 2.80013C5.23858 2.80013 3 5.0387 3 7.80013C3 10.5615 5.23858 12.8001 8 12.8001Z" fill="#F9F9F9"/>
<path fill-rule="evenodd" clip-rule="evenodd" d="M18 12.3001C18.8284 12.3001 19.5 11.6286 19.5 10.8001C19.5 9.9717 18.8284 9.30013 18 9.30013C17.1716 9.30013 16.5 9.9717 16.5 10.8001C16.5 11.6286 17.1716 12.3001 18 12.3001ZM18 13.8001C19.6569 13.8001 21 12.457 21 10.8001C21 9.14327 19.6569 7.80013 18 7.80013C16.3431 7.80013 15 9.14327 15 10.8001C15 12.457 16.3431 13.8001 18 13.8001Z" fill="#00D5C8"/>
<path fill-rule="evenodd" clip-rule="evenodd" d="M2.25459 13.4173C2.30033 13.0056 2.67115 12.709 3.08283 12.7547L21.0828 14.7547C21.4945 14.8005 21.7912 15.1713 21.7454 15.5829C21.6997 15.9946 21.3289 16.2913 20.9172 16.2455L2.91718 14.2455C2.5055 14.1998 2.20885 13.829 2.25459 13.4173Z" fill="#F9F9F9"/>
<path fill-rule="evenodd" clip-rule="evenodd" d="M12.1973 17.2755C12.0972 17.1468 11.9027 17.1468 11.8026 17.2755L10.0962 19.4694C10.0896 19.4779 10.0871 19.4835 10.0861 19.4861C10.0851 19.4888 10.0845 19.4912 10.0843 19.4938C10.0839 19.4995 10.0848 19.5099 10.0908 19.5221C10.0967 19.5343 10.1043 19.5414 10.1091 19.5446C10.1113 19.546 10.1135 19.547 10.1163 19.5479C10.119 19.5487 10.1249 19.5501 10.1357 19.5501H13.8643C13.875 19.5501 13.881 19.5487 13.8836 19.5479C13.8865 19.547 13.8887 19.546 13.8908 19.5446C13.8956 19.5414 13.9032 19.5343 13.9092 19.5221C13.9152 19.5099 13.9161 19.4995 13.9156 19.4938C13.9154 19.4912 13.9149 19.4888 13.9139 19.4861C13.9129 19.4835 13.9103 19.4779 13.9037 19.4694L12.1973 17.2755ZM10.6186 16.3546C11.3192 15.4537 12.6807 15.4537 13.3813 16.3546L15.0878 18.5485C15.8796 19.5666 15.1541 21.0501 13.8643 21.0501H10.1357C8.84587 21.0501 8.12032 19.5666 8.9122 18.5485L10.6186 16.3546Z" fill="#F9F9F9"/>
</svg>
