<svg width="24" height="24" viewBox="0 0 24 24" fill="none" xmlns="http://www.w3.org/2000/svg">
<path fill-rule="evenodd" clip-rule="evenodd" d="M3.75 12.0001C3.75 7.44377 7.44365 3.75012 12 3.75012C16.5563 3.75012 20.25 7.44377 20.25 12.0001C20.25 12.4143 20.5858 12.7501 21 12.7501C21.4142 12.7501 21.75 12.4143 21.75 12.0001C21.75 6.61535 17.3848 2.25012 12 2.25012C6.61522 2.25012 2.25 6.61535 2.25 12.0001C2.25 17.3849 6.61522 21.7501 12 21.7501C12.4142 21.7501 12.75 21.4143 12.75 21.0001C12.75 20.5859 12.4142 20.2501 12 20.2501C7.44365 20.2501 3.75 16.5565 3.75 12.0001ZM10.25 12.5001C10.25 11.2575 11.2574 10.2501 12.5 10.2501C13.7426 10.2501 14.75 11.2575 14.75 12.5001C14.75 13.7428 13.7426 14.7501 12.5 14.7501C11.2574 14.7501 10.25 13.7428 10.25 12.5001ZM12.5 8.75012C10.4289 8.75012 8.75 10.4291 8.75 12.5001C8.75 14.5712 10.4289 16.2501 12.5 16.2501C14.5711 16.2501 16.25 14.5712 16.25 12.5001C16.25 10.4291 14.5711 8.75012 12.5 8.75012Z" fill="#0C0F0F"/>
<path fill-rule="evenodd" clip-rule="evenodd" d="M17.828 21.341C17.535 21.048 17.535 20.5729 17.828 20.2799L17.9787 20.1291L14.4007 20.1291C13.9863 20.1291 13.6504 19.7932 13.6504 19.3789C13.6504 18.9645 13.9863 18.6286 14.4007 18.6286L19.79 18.6286C20.0935 18.6286 20.3671 18.8114 20.4832 19.0917C20.5993 19.3721 20.5351 19.6948 20.3206 19.9094L18.889 21.341C18.596 21.634 18.121 21.634 17.828 21.341Z" fill="#00D5C8"/>
<path fill-rule="evenodd" clip-rule="evenodd" d="M18.3625 14.4696C18.6555 14.7626 18.6555 15.2376 18.3625 15.5306L18.2117 15.6814L21.7898 15.6814C22.2041 15.6814 22.5401 16.0173 22.5401 16.4317C22.5401 16.8461 22.2041 17.182 21.7898 17.182H16.4004C16.0969 17.182 15.8233 16.9992 15.7072 16.7188C15.5911 16.4384 15.6553 16.1157 15.8699 15.9012L17.3014 14.4696C17.5944 14.1766 18.0695 14.1766 18.3625 14.4696Z" fill="#00D5C8"/>
</svg>
