<svg width="24" height="24" viewBox="0 0 24 24" fill="none" xmlns="http://www.w3.org/2000/svg">
<path fill-rule="evenodd" clip-rule="evenodd" d="M8 8.25012C7.58579 8.25012 7.25 8.58591 7.25 9.00012C7.25 9.41434 7.58579 9.75012 8 9.75012H16C16.4142 9.75012 16.75 9.41434 16.75 9.00012C16.75 8.58591 16.4142 8.25012 16 8.25012H8ZM8 12.2501C7.58579 12.2501 7.25 12.5859 7.25 13.0001C7.25 13.4143 7.58579 13.7501 8 13.7501H12C12.4142 13.7501 12.75 13.4143 12.75 13.0001C12.75 12.5859 12.4142 12.2501 12 12.2501H8Z" fill="#00DDD3"/>
<path fill-rule="evenodd" clip-rule="evenodd" d="M3.2501 5.4001C3.25011 3.64264 4.70593 2.25012 6.46158 2.25012H17.5385C19.2942 2.25012 20.75 3.64265 20.75 5.40012V11.0001C20.75 11.4143 20.4142 11.7501 20 11.7501C19.5858 11.7501 19.25 11.4143 19.25 11.0001V5.40012C19.25 4.50662 18.5017 3.75012 17.5385 3.75012H6.46158C5.49836 3.75012 4.7501 4.50662 4.7501 5.40011L4.75 18.8001C4.74999 19.6936 5.49825 20.4501 6.46147 20.4501H11.3844C11.7987 20.4501 12.1344 20.7859 12.1344 21.2001C12.1344 21.6143 11.7987 21.9501 11.3844 21.9501H6.46147C4.70581 21.9501 3.24999 20.5575 3.25 18.8L3.2501 5.4001ZM21.5306 17.6932C21.2376 17.9862 20.7626 17.9862 20.4696 17.6932L20.3188 17.5424V21.1205C20.3188 21.5349 19.9829 21.8708 19.5686 21.8708C19.1542 21.8708 18.8183 21.5349 18.8183 21.1205V15.7311C18.8183 15.4277 19.0011 15.1541 19.2814 15.0379C19.5618 14.9218 19.8845 14.986 20.0991 15.2006L21.5306 16.6321C21.8237 16.9251 21.8237 17.4002 21.5306 17.6932ZM15.7203 19.1586C15.4273 18.8656 14.9523 18.8656 14.6593 19.1586C14.3663 19.4516 14.3663 19.9267 14.6593 20.2197L16.0909 21.6512C16.3054 21.8658 16.6281 21.93 16.9085 21.8139C17.1889 21.6977 17.3717 21.4242 17.3717 21.1207V15.7313C17.3717 15.3169 17.0357 14.981 16.6214 14.981C16.207 14.981 15.8711 15.3169 15.8711 15.7313V19.3094L15.7203 19.1586Z" fill="#0C0F0F"/>
</svg>
