<svg width="24" height="24" viewBox="0 0 24 24" fill="none" xmlns="http://www.w3.org/2000/svg">
<path fill-rule="evenodd" clip-rule="evenodd" d="M12 2.25012C6.89137 2.25012 2.75 6.39149 2.75 11.5001C2.75 16.6088 6.89137 20.7501 12 20.7501C17.1086 20.7501 21.25 16.6088 21.25 11.5001C21.25 6.39149 17.1086 2.25012 12 2.25012ZM1.25 11.5001C1.25 5.56306 6.06294 0.750122 12 0.750122C17.9371 0.750122 22.75 5.56306 22.75 11.5001C22.75 17.4372 17.9371 22.2501 12 22.2501C6.06294 22.2501 1.25 17.4372 1.25 11.5001Z" fill="#0C0F0F"/>
<path fill-rule="evenodd" clip-rule="evenodd" d="M12 6.25012C12.4142 6.25012 12.75 6.58591 12.75 7.00012V7.30013C13.8911 7.53177 14.75 8.54064 14.75 9.75012C14.75 10.4315 14.4774 11.0492 14.0354 11.5001C14.4774 11.9511 14.75 12.5688 14.75 13.2501C14.75 14.4596 13.8911 15.4685 12.75 15.7001V16.0001C12.75 16.4143 12.4142 16.7501 12 16.7501C11.5858 16.7501 11.25 16.4143 11.25 16.0001V15.7501H10.1905C9.67107 15.7501 9.25 15.3291 9.25 14.8096V11.5001V8.1906C9.25 7.67119 9.67107 7.25012 10.1905 7.25012H11.25V7.00012C11.25 6.58591 11.5858 6.25012 12 6.25012ZM12 14.2501H12.25C12.8023 14.2501 13.25 13.8024 13.25 13.2501C13.25 12.6978 12.8023 12.2501 12.25 12.2501H10.75V14.2501H12ZM10.75 8.75012H12H12.25C12.8023 8.75012 13.25 9.19784 13.25 9.75012C13.25 10.3024 12.8023 10.7501 12.25 10.7501H10.75V8.75012Z" fill="#00DDD3"/>
</svg>
