<svg width="24" height="24" viewBox="0 0 24 24" fill="none" xmlns="http://www.w3.org/2000/svg">
<path fill-rule="evenodd" clip-rule="evenodd" d="M6.50002 3.75012C5.36783 3.75012 4.45002 4.66794 4.45002 5.80012V6.37986C4.45002 7.06349 3.65267 7.43695 3.12749 6.9993L2.01988 6.07629C1.70167 5.81112 1.65868 5.33819 1.92385 5.01998C2.18903 4.70178 2.66195 4.65878 2.98016 4.92396L3.04558 4.97848C3.41629 3.41403 4.82223 2.25012 6.50002 2.25012C6.91423 2.25012 7.25002 2.58591 7.25002 3.00012C7.25002 3.41434 6.91423 3.75012 6.50002 3.75012ZM20.9545 19.0218L21.0199 19.0763C21.3381 19.3415 21.811 19.2985 22.0762 18.9803C22.3414 18.6621 22.2984 18.1891 21.9802 17.924L20.8725 17.0009C20.3474 16.5633 19.55 16.9367 19.55 17.6204V18.2001C19.55 19.3323 18.6322 20.2501 17.5 20.2501C17.0858 20.2501 16.75 20.5859 16.75 21.0001C16.75 21.4143 17.0858 21.7501 17.5 21.7501C19.1778 21.7501 20.5837 20.5862 20.9545 19.0218Z" fill="#00D5C8"/>
<path fill-rule="evenodd" clip-rule="evenodd" d="M14.5001 14.5001C17.2615 14.5001 19.5001 12.2615 19.5001 9.50012C19.5001 6.73869 17.2615 4.50012 14.5001 4.50012C11.7386 4.50012 9.50006 6.73869 9.50006 9.50012C9.50006 12.2615 11.7386 14.5001 14.5001 14.5001ZM14.5001 16.0001C18.0899 16.0001 21.0001 13.09 21.0001 9.50012C21.0001 5.91027 18.0899 3.00012 14.5001 3.00012C10.9102 3.00012 8.00006 5.91027 8.00006 9.50012C8.00006 13.09 10.9102 16.0001 14.5001 16.0001Z" fill="#F9F9F9"/>
<path fill-rule="evenodd" clip-rule="evenodd" d="M9.50006 19.5001C12.2615 19.5001 14.5001 17.2615 14.5001 14.5001C14.5001 11.7387 12.2615 9.50012 9.50006 9.50012C6.73864 9.50012 4.50006 11.7387 4.50006 14.5001C4.50006 17.2615 6.73864 19.5001 9.50006 19.5001ZM9.50006 21.0001C13.0899 21.0001 16.0001 18.09 16.0001 14.5001C16.0001 10.9103 13.0899 8.00012 9.50006 8.00012C5.91021 8.00012 3.00006 10.9103 3.00006 14.5001C3.00006 18.09 5.91021 21.0001 9.50006 21.0001Z" fill="#F9F9F9"/>
</svg>
