<svg width="24" height="24" viewBox="0 0 24 24" fill="none" xmlns="http://www.w3.org/2000/svg">
<path fill-rule="evenodd" clip-rule="evenodd" d="M4.45002 5.80012C4.45002 4.66794 5.36783 3.75012 6.50002 3.75012C6.91423 3.75012 7.25002 3.41434 7.25002 3.00012C7.25002 2.58591 6.91423 2.25012 6.50002 2.25012C4.82223 2.25012 3.41629 3.41403 3.04558 4.97848L2.98016 4.92396C2.66195 4.65878 2.18903 4.70178 1.92385 5.01998C1.65868 5.33819 1.70167 5.81112 2.01988 6.07629L3.12749 6.9993C3.65267 7.43695 4.45002 7.06349 4.45002 6.37986V5.80012ZM19.55 18.2001C19.55 19.3323 18.6322 20.2501 17.5 20.2501C17.0858 20.2501 16.75 20.5859 16.75 21.0001C16.75 21.4143 17.0858 21.7501 17.5 21.7501C19.1778 21.7501 20.5837 20.5862 20.9544 19.0218L21.0198 19.0763C21.3381 19.3415 21.811 19.2985 22.0761 18.9803C22.3413 18.6621 22.2983 18.1891 21.9801 17.924L20.8725 17.0009C20.3473 16.5633 19.55 16.9368 19.55 17.6204V18.2001Z" fill="#00DDD3"/>
<path fill-rule="evenodd" clip-rule="evenodd" d="M14.5001 14.5001C14.5001 11.7387 12.2615 9.50012 9.50006 9.50012C9.50006 12.2615 11.7386 14.5001 14.5001 14.5001ZM8.14212 8.14218C8.76656 5.20419 11.3759 3.00012 14.5001 3.00012C18.0899 3.00012 21.0001 5.91027 21.0001 9.50012C21.0001 12.6243 18.796 15.2336 15.858 15.8581C15.2336 18.7961 12.6242 21.0001 9.50006 21.0001C5.91021 21.0001 3.00006 18.09 3.00006 14.5001C3.00006 11.376 5.20412 8.76662 8.14212 8.14218ZM9.72773 8.00404C10.3637 5.97346 12.2598 4.50012 14.5001 4.50012C17.2615 4.50012 19.5001 6.7387 19.5001 9.50012C19.5001 11.7404 18.0267 13.6365 15.9961 14.2724C15.8788 10.8636 13.1366 8.12138 9.72773 8.00404ZM14.2724 15.9962C13.6365 18.0268 11.7403 19.5001 9.50006 19.5001C6.73864 19.5001 4.50006 17.2615 4.50006 14.5001C4.50006 12.2599 5.9734 10.3637 8.00397 9.7278C8.12132 13.1366 10.8635 15.8789 14.2724 15.9962Z" fill="#0C0F0F"/>
</svg>
