<svg width="24" height="24" viewBox="0 0 24 24" fill="none" xmlns="http://www.w3.org/2000/svg">
<path fill-rule="evenodd" clip-rule="evenodd" d="M12 2.75012C6.89137 2.75012 2.75 6.89149 2.75 12.0001C2.75 17.1088 6.89137 21.2501 12 21.2501C17.1086 21.2501 21.25 17.1088 21.25 12.0001C21.25 6.89149 17.1086 2.75012 12 2.75012ZM1.25 12.0001C1.25 6.06306 6.06294 1.25012 12 1.25012C17.9371 1.25012 22.75 6.06306 22.75 12.0001C22.75 17.9372 17.9371 22.7501 12 22.7501C6.06294 22.7501 1.25 17.9372 1.25 12.0001Z" fill="#0C0F0F"/>
<path fill-rule="evenodd" clip-rule="evenodd" d="M8.25 8.30012C8.25 7.88591 8.58579 7.55012 9 7.55012H15C15.4142 7.55012 15.75 7.88591 15.75 8.30012C15.75 8.71433 15.4142 9.05012 15 9.05012H9C8.58579 9.05012 8.25 8.71433 8.25 8.30012Z" fill="#00DDD3"/>
<path fill-rule="evenodd" clip-rule="evenodd" d="M12 17.8501C11.5858 17.8501 11.25 17.5144 11.25 17.1001V8.50015C11.25 8.08593 11.5858 7.75015 12 7.75015C12.4142 7.75015 12.75 8.08593 12.75 8.50015V17.1001C12.75 17.5144 12.4142 17.8501 12 17.8501Z" fill="#00DDD3"/>
<path d="M9.75 11.2301C9.75 10.7532 9.30526 10.3953 8.85636 10.5566C7.72397 10.9633 7 11.585 7 12.2817C7 13.5069 9.23858 14.5001 12 14.5001C14.7614 14.5001 17 13.5069 17 12.2817C17 11.585 16.276 10.9633 15.1436 10.5566C14.6947 10.3953 14.25 10.7532 14.25 11.2301C14.25 11.564 14.4751 11.8501 14.7847 11.975C14.8273 11.9922 14.8686 12.0097 14.9087 12.0275C15.0566 12.0931 15.17 12.1533 15.2565 12.2059C15.3145 12.2412 15.3145 12.3223 15.2565 12.3576C15.17 12.4102 15.0566 12.4704 14.9087 12.536C14.2417 12.8319 13.2148 13.0533 12 13.0533C10.7852 13.0533 9.75834 12.8319 9.09132 12.536C8.94341 12.4704 8.83004 12.4102 8.74349 12.3576C8.68547 12.3223 8.68547 12.2412 8.74349 12.2059C8.83004 12.1533 8.94341 12.0931 9.09132 12.0275C9.13136 12.0097 9.1727 11.9922 9.21529 11.975C9.52486 11.8501 9.75 11.564 9.75 11.2301Z" fill="#00DDD3"/>
<path fill-rule="evenodd" clip-rule="evenodd" d="M8.45678 10.7165C8.28702 10.7922 8.12949 10.8732 7.98561 10.959C7.84131 11.0451 7.71075 11.136 7.59534 11.231C7.21553 11.5437 7 11.9016 7 12.2817C7 12.6619 7.21553 13.0197 7.59534 13.3325C7.71074 13.4275 7.84131 13.5184 7.98561 13.6044C8.14192 13.6977 8.31434 13.7853 8.50104 13.8664C9.40282 14.2584 10.6378 14.5001 12 14.5001C13.3622 14.5001 14.5972 14.2584 15.499 13.8664C15.6857 13.7853 15.8581 13.6977 16.0144 13.6044C16.1587 13.5184 16.2893 13.4275 16.4047 13.3325C16.7845 13.0197 17 12.6619 17 12.2817C17 11.9016 16.7845 11.5437 16.4046 11.231C16.2892 11.136 16.1587 11.0451 16.0144 10.959C15.8705 10.8732 15.713 10.7922 15.5432 10.7165C15.5286 10.71 15.5138 10.7035 15.499 10.697C15.4436 10.673 15.3869 10.6495 15.3291 10.6265C15.2686 10.6026 15.2067 10.5792 15.1436 10.5566C14.7087 10.4004 14.2777 10.7314 14.2513 11.186C14.2504 11.2006 14.25 11.2153 14.25 11.2301C14.25 11.2355 14.2501 11.2409 14.2502 11.2463C14.256 11.5115 14.4037 11.745 14.6218 11.8894C14.6333 11.897 14.6451 11.9044 14.657 11.9116C14.6975 11.9358 14.7403 11.9571 14.7847 11.975C14.8189 11.9888 14.8522 12.0028 14.8847 12.017C14.8928 12.0205 14.9008 12.024 14.9087 12.0275C14.9873 12.0624 15.0562 12.0957 15.1165 12.1272C15.1696 12.155 15.216 12.1813 15.2565 12.2059C15.2851 12.2233 15.2996 12.2518 15.3 12.2805C15.3 12.2813 15.3 12.2821 15.3 12.2829C15.2996 12.3116 15.2851 12.3402 15.2565 12.3576C15.216 12.3822 15.1696 12.4085 15.1165 12.4362C15.0562 12.4677 14.9873 12.5011 14.9087 12.536C14.823 12.574 14.7314 12.6108 14.6342 12.646C14.5888 12.6625 14.5421 12.6786 14.4943 12.6944C14.3178 12.7526 14.1253 12.8057 13.9186 12.8523C13.792 12.8808 13.66 12.9068 13.5232 12.93C13.065 13.0076 12.5519 13.0533 12 13.0533C11.4481 13.0533 10.935 13.0076 10.4768 12.93C10.34 12.9068 10.208 12.8808 10.0814 12.8523C9.87468 12.8057 9.68216 12.7526 9.5057 12.6944C9.45786 12.6786 9.4112 12.6625 9.36575 12.646C9.26858 12.6108 9.17699 12.574 9.09132 12.536C9.01267 12.5011 8.94378 12.4677 8.8835 12.4362C8.83043 12.4085 8.78402 12.3822 8.74349 12.3576C8.71488 12.3402 8.70037 12.3116 8.69999 12.2829C8.69998 12.2821 8.69998 12.2813 8.69999 12.2805C8.70038 12.2518 8.71488 12.2233 8.74349 12.2059C8.78402 12.1813 8.83043 12.155 8.8835 12.1272C8.94378 12.0957 9.01267 12.0624 9.09132 12.0275C9.09925 12.024 9.10722 12.0205 9.11525 12.017C9.14777 12.0028 9.18113 11.9888 9.21529 11.975C9.25974 11.9571 9.30245 11.9358 9.34301 11.9116C9.35493 11.9044 9.36666 11.897 9.3782 11.8894C9.59632 11.745 9.74402 11.5115 9.74982 11.2463C9.74994 11.2409 9.75 11.2355 9.75 11.2301C9.75 11.2153 9.74957 11.2006 9.74872 11.186C9.72233 10.7314 9.2913 10.4004 8.85636 10.5566C8.79326 10.5792 8.73142 10.6026 8.67091 10.6265C8.61306 10.6495 8.55642 10.673 8.50104 10.697C8.50104 10.697 8.50104 10.697 8.50104 10.697C8.4862 10.7035 8.47144 10.71 8.45678 10.7165Z" fill="#00DDD3"/>
</svg>
