<svg width="24" height="24" viewBox="0 0 24 24" fill="none" xmlns="http://www.w3.org/2000/svg">
<path fill-rule="evenodd" clip-rule="evenodd" d="M12 2.75012C6.89137 2.75012 2.75 6.89149 2.75 12.0001C2.75 17.1088 6.89137 21.2501 12 21.2501C17.1086 21.2501 21.25 17.1088 21.25 12.0001C21.25 6.89149 17.1086 2.75012 12 2.75012ZM1.25 12.0001C1.25 6.06306 6.06294 1.25012 12 1.25012C17.9371 1.25012 22.75 6.06306 22.75 12.0001C22.75 17.9372 17.9371 22.7501 12 22.7501C6.06294 22.7501 1.25 17.9372 1.25 12.0001Z" fill="#F9F9F9"/>
<path fill-rule="evenodd" clip-rule="evenodd" d="M8.25 8.50012C8.25 8.08591 8.58579 7.75012 9 7.75012H15C15.4142 7.75012 15.75 8.08591 15.75 8.50012C15.75 8.91434 15.4142 9.25012 15 9.25012H9C8.58579 9.25012 8.25 8.91434 8.25 8.50012Z" fill="#00D5C8"/>
<path fill-rule="evenodd" clip-rule="evenodd" d="M12 17.7501C11.5858 17.7501 11.25 17.4143 11.25 17.0001V8.60012C11.25 8.18591 11.5858 7.85012 12 7.85012C12.4142 7.85012 12.75 8.18591 12.75 8.60012V17.0001C12.75 17.4143 12.4142 17.7501 12 17.7501Z" fill="#00D5C8"/>
<path d="M9.75 11.4301C9.75 10.9532 9.30526 10.5953 8.85636 10.7566C7.72397 11.1633 7 11.785 7 12.4817C7 13.7069 9.23858 14.7001 12 14.7001C14.7614 14.7001 17 13.7069 17 12.4817C17 11.785 16.276 11.1633 15.1436 10.7566C14.6947 10.5953 14.25 10.9532 14.25 11.4301C14.25 11.764 14.4751 12.0501 14.7847 12.175C14.8273 12.1922 14.8686 12.2097 14.9087 12.2275C15.0566 12.2931 15.17 12.3533 15.2565 12.4059C15.3145 12.4412 15.3145 12.5223 15.2565 12.5576C15.17 12.6102 15.0566 12.6704 14.9087 12.736C14.2417 13.0319 13.2148 13.2533 12 13.2533C10.7852 13.2533 9.75834 13.0319 9.09132 12.736C8.94341 12.6704 8.83004 12.6102 8.74349 12.5576C8.68547 12.5223 8.68547 12.4412 8.74349 12.4059C8.83004 12.3533 8.94341 12.2931 9.09132 12.2275C9.13136 12.2097 9.1727 12.1922 9.21529 12.175C9.52486 12.0501 9.75 11.764 9.75 11.4301Z" fill="black"/>
<path fill-rule="evenodd" clip-rule="evenodd" d="M8.45678 10.9165C8.28702 10.9922 8.12949 11.0732 7.98561 11.159C7.84131 11.2451 7.71075 11.336 7.59534 11.431C7.21553 11.7437 7 12.1016 7 12.4817C7 12.8619 7.21553 13.2197 7.59534 13.5325C7.71074 13.6275 7.84131 13.7184 7.98561 13.8044C8.14192 13.8977 8.31434 13.9853 8.50104 14.0664C9.40282 14.4584 10.6378 14.7001 12 14.7001C13.3622 14.7001 14.5972 14.4584 15.499 14.0664C15.6857 13.9853 15.8581 13.8977 16.0144 13.8044C16.1587 13.7184 16.2893 13.6275 16.4047 13.5325C16.7845 13.2197 17 12.8619 17 12.4817C17 12.1016 16.7845 11.7437 16.4046 11.431C16.2892 11.336 16.1587 11.2451 16.0144 11.159C15.8705 11.0732 15.713 10.9922 15.5432 10.9165C15.5286 10.91 15.5138 10.9035 15.499 10.897C15.4436 10.873 15.3869 10.8495 15.3291 10.8265C15.2686 10.8026 15.2067 10.7792 15.1436 10.7566C14.7087 10.6004 14.2777 10.9314 14.2513 11.386C14.2504 11.4006 14.25 11.4153 14.25 11.4301C14.25 11.4355 14.2501 11.4409 14.2502 11.4463C14.256 11.7115 14.4037 11.945 14.6218 12.0894C14.6333 12.097 14.6451 12.1044 14.657 12.1116C14.6975 12.1358 14.7403 12.1571 14.7847 12.175C14.8189 12.1888 14.8522 12.2028 14.8847 12.217C14.8928 12.2205 14.9008 12.224 14.9087 12.2275C14.9873 12.2624 15.0562 12.2957 15.1165 12.3272C15.1696 12.355 15.216 12.3813 15.2565 12.4059C15.2851 12.4233 15.2996 12.4518 15.3 12.4805C15.3 12.4813 15.3 12.4821 15.3 12.4829C15.2996 12.5116 15.2851 12.5402 15.2565 12.5576C15.216 12.5822 15.1696 12.6085 15.1165 12.6362C15.0562 12.6677 14.9873 12.7011 14.9087 12.736C14.823 12.774 14.7314 12.8108 14.6342 12.846C14.5888 12.8625 14.5421 12.8786 14.4943 12.8944C14.3178 12.9526 14.1253 13.0057 13.9186 13.0523C13.792 13.0808 13.66 13.1068 13.5232 13.13C13.065 13.2076 12.5519 13.2533 12 13.2533C11.4481 13.2533 10.935 13.2076 10.4768 13.13C10.34 13.1068 10.208 13.0808 10.0814 13.0523C9.87468 13.0057 9.68216 12.9526 9.5057 12.8944C9.45786 12.8786 9.4112 12.8625 9.36575 12.846C9.26858 12.8108 9.17699 12.774 9.09132 12.736C9.01267 12.7011 8.94378 12.6677 8.8835 12.6362C8.83043 12.6085 8.78402 12.5822 8.74349 12.5576C8.71488 12.5402 8.70037 12.5116 8.69999 12.4829C8.69998 12.4821 8.69998 12.4813 8.69999 12.4805C8.70038 12.4518 8.71488 12.4233 8.74349 12.4059C8.78402 12.3813 8.83043 12.355 8.8835 12.3272C8.94378 12.2957 9.01267 12.2624 9.09132 12.2275C9.09925 12.224 9.10722 12.2205 9.11525 12.217C9.14777 12.2028 9.18113 12.1888 9.21529 12.175C9.25974 12.1571 9.30245 12.1358 9.34301 12.1116C9.35493 12.1044 9.36666 12.097 9.3782 12.0894C9.59632 11.945 9.74402 11.7115 9.74982 11.4463C9.74994 11.4409 9.75 11.4355 9.75 11.4301C9.75 11.4153 9.74957 11.4006 9.74872 11.386C9.72233 10.9314 9.2913 10.6004 8.85636 10.7566C8.79326 10.7792 8.73142 10.8026 8.67091 10.8265C8.61306 10.8495 8.55642 10.873 8.50104 10.897C8.50104 10.897 8.50104 10.897 8.50104 10.897C8.4862 10.9035 8.47144 10.91 8.45678 10.9165ZM9.6707 11.4301L9.3782 12.0894L9.6707 11.4301ZM14.3293 11.4301L14.6218 12.0894L14.3293 11.4301Z" fill="#00D5C8"/>
</svg>
