<svg width="24" height="24" viewBox="0 0 24 24" fill="none" xmlns="http://www.w3.org/2000/svg">
<path fill-rule="evenodd" clip-rule="evenodd" d="M9.25 12.002C9.25 11.5878 9.58579 11.252 10 11.252H12.25C13.6307 11.252 14.75 12.3713 14.75 13.752C14.75 15.1327 13.6307 16.252 12.25 16.252H10.1905C9.67107 16.252 9.25 15.8309 9.25 15.3115V12.002ZM13.25 13.752C13.25 13.1997 12.8023 12.752 12.25 12.752H10.75V14.752H12.25C12.8023 14.752 13.25 14.3043 13.25 13.752Z" fill="#00DDD3"/>
<path fill-rule="evenodd" clip-rule="evenodd" d="M10.75 9.25198V11.252H12.25C12.8023 11.252 13.25 10.8043 13.25 10.252C13.25 9.6997 12.8023 9.25198 12.25 9.25198H10.75ZM14.75 10.252C14.75 8.87127 13.6307 7.75198 12.25 7.75198H10.1905C9.67107 7.75198 9.25 8.17305 9.25 8.69246V12.002C9.25 12.4162 9.58579 12.752 10 12.752H12.25C13.6307 12.752 14.75 11.6327 14.75 10.252Z" fill="#00DDD3"/>
<path fill-rule="evenodd" clip-rule="evenodd" d="M12 6.75198C12.4142 6.75198 12.75 7.08777 12.75 7.50198V8.50198C12.75 8.9162 12.4142 9.25198 12 9.25198C11.5858 9.25198 11.25 8.9162 11.25 8.50198V7.50198C11.25 7.08777 11.5858 6.75198 12 6.75198Z" fill="#00DDD3"/>
<path fill-rule="evenodd" clip-rule="evenodd" d="M12 14.752C12.4142 14.752 12.75 15.0878 12.75 15.502V16.502C12.75 16.9162 12.4142 17.252 12 17.252C11.5858 17.252 11.25 16.9162 11.25 16.502V15.502C11.25 15.0878 11.5858 14.752 12 14.752Z" fill="#00DDD3"/>
<path fill-rule="evenodd" clip-rule="evenodd" d="M11.5988 2.75406C12.0126 2.73642 12.3338 2.38664 12.3162 1.9728C12.2985 1.55896 11.9488 1.23778 11.5349 1.25542C5.81331 1.49925 1.25 6.21428 1.25 11.9955C1.25 17.9326 6.06294 22.7455 12 22.7455C16.1954 22.7455 19.8281 20.3421 21.5987 16.8404C21.7857 16.4708 21.6375 16.0196 21.2679 15.8327C20.8982 15.6458 20.4471 15.7939 20.2601 16.1635C18.7348 19.18 15.6079 21.2455 12 21.2455C6.89137 21.2455 2.75 17.1042 2.75 11.9955C2.75 7.02132 6.67659 2.96382 11.5988 2.75406ZM13.5302 2.08326C13.4369 2.48683 13.6884 2.88961 14.092 2.98289C14.4035 3.05488 14.709 3.14261 15.0075 3.2452C15.3861 3.37528 15.8128 3.22237 15.9911 2.86399C16.1822 2.47975 16.0146 2.01115 15.6104 1.86703C15.2264 1.73015 14.8324 1.61448 14.4298 1.52141C14.0262 1.42814 13.6235 1.67968 13.5302 2.08326ZM19.0524 4.91474C18.7593 5.20405 18.2898 5.20054 17.9756 4.93435C17.7195 4.71735 17.4514 4.51403 17.1724 4.32553C16.8414 4.10185 16.7069 3.67012 16.8849 3.31245C17.0764 2.9275 17.5525 2.77885 17.9114 3.01558C18.3054 3.27545 18.6813 3.56056 19.0368 3.8686C19.3517 4.14148 19.3489 4.62197 19.0524 4.91474ZM19.6043 6.72753C19.3829 6.40853 19.4044 5.97246 19.6807 5.69965C19.9954 5.38888 20.5108 5.41278 20.7672 5.77326C20.9975 6.09723 21.2104 6.43452 21.4043 6.78375C21.6026 7.1407 21.4455 7.58261 21.0791 7.76269C20.7021 7.94793 20.2491 7.78527 20.041 7.4204C19.9055 7.18265 19.7597 6.95149 19.6043 6.72753ZM21.9643 11.129C21.5511 11.1652 21.1901 10.8584 21.1212 10.4493C21.0767 10.1848 21.021 9.9241 20.9545 9.6677C20.8591 9.29982 21.0197 8.90607 21.3608 8.73846C21.7663 8.53919 22.2572 8.73684 22.3755 9.17287C22.4772 9.54766 22.5592 9.93058 22.6202 10.3205C22.6841 10.7292 22.3764 11.0928 21.9643 11.129ZM21.2089 12.8721C21.245 12.4882 21.5387 12.1701 21.9228 12.1364C22.3664 12.0975 22.7496 12.4492 22.7129 12.8929C22.6825 13.2605 22.6336 13.623 22.567 13.9794C22.491 14.3866 22.0993 14.6551 21.6922 14.5791C21.285 14.5031 21.0165 14.1114 21.0925 13.7042C21.1435 13.431 21.1825 13.1534 21.2089 12.8721Z" fill="#0C0F0F"/>
</svg>
