<svg width="24" height="24" viewBox="0 0 24 24" fill="none" xmlns="http://www.w3.org/2000/svg">
<path fill-rule="evenodd" clip-rule="evenodd" d="M18 5.00012H6C4.61929 5.00012 3.5 6.11941 3.5 7.50012V16.5001C3.5 17.8808 4.61929 19.0001 6 19.0001H18C19.3807 19.0001 20.5 17.8808 20.5 16.5001V7.50012C20.5 6.11941 19.3807 5.00012 18 5.00012ZM6 3.50012C3.79086 3.50012 2 5.29098 2 7.50012V16.5001C2 18.7093 3.79086 20.5001 6 20.5001H18C20.2091 20.5001 22 18.7093 22 16.5001V7.50012C22 5.29098 20.2091 3.50012 18 3.50012H6Z" fill="#0C0F0F"/>
<path fill-rule="evenodd" clip-rule="evenodd" d="M12 8.25012C12.4142 8.25012 12.75 8.58591 12.75 9.00012V15.0835C12.75 15.4977 12.4142 15.8335 12 15.8335C11.5858 15.8335 11.25 15.4977 11.25 15.0835V9.00012C11.25 8.58591 11.5858 8.25012 12 8.25012ZM16.5 12.0001C16.9142 12.0001 17.25 12.3359 17.25 12.7501V15.0835C17.25 15.4977 16.9142 15.8335 16.5 15.8335C16.0858 15.8335 15.75 15.4977 15.75 15.0835V12.7501C15.75 12.3359 16.0858 12.0001 16.5 12.0001ZM8.25 12.2501C8.25 11.8359 7.91421 11.5001 7.5 11.5001C7.08579 11.5001 6.75 11.8359 6.75 12.2501V15.0835C6.75 15.4977 7.08579 15.8335 7.5 15.8335C7.91421 15.8335 8.25 15.4977 8.25 15.0835V12.2501Z" fill="#00DDD3"/>
</svg>
