<svg width="24" height="24" viewBox="0 0 24 24" fill="none" xmlns="http://www.w3.org/2000/svg">
<path d="M21.0657 9.65619C22.0809 10.6933 22.7283 12.0441 22.8114 13.5482C22.8553 14.3434 22.7376 15.1134 22.4847 15.8315C22.3487 16.2176 22.1736 16.5887 21.9634 16.9407L21.9528 16.9583L21.9571 16.9595C22.1434 17.013 22.3044 17.1002 22.436 17.2093C22.9511 17.6368 23.0134 18.4011 22.3735 18.7979C21.4371 19.3786 20.0636 19.9558 18.0783 20.1687M11.3008 11.2797L12.0257 12.3646M14.6221 9.37714L15.3469 10.462M10.165 2.65619C5.19605 2.65619 1.16792 6.82888 1.16792 11.9762C1.16792 13.4915 1.51747 14.9237 2.13784 16.1896L1.77552 16.4041C1.09323 16.808 0.906507 17.8277 1.59504 18.4041C2.43743 19.1093 4.08017 20.2572 6.4207 20.8634C8.94233 21.5164 10.7551 21.4045 11.9547 21.1116C16.0662 20.2517 19.1621 16.4891 19.1621 11.9762C19.1621 6.82888 15.134 2.65619 10.165 2.65619Z" stroke="#272727" stroke-width="1.5" stroke-linecap="round"/>
</svg>
