<svg width="24" height="24" viewBox="0 0 24 24" fill="none" xmlns="http://www.w3.org/2000/svg">
<path d="M5.3291 15.2469C5.3291 13.7128 6.57276 12.4691 8.10688 12.4691C9.641 12.4691 10.8847 13.7128 10.8847 15.2469M9.77355 10.7778C9.77355 11.6982 9.02735 12.4444 8.10688 12.4444C7.18641 12.4444 6.44021 11.6982 6.44021 10.7778C6.44021 9.85728 7.18641 9.11108 8.10688 9.11108C9.02735 9.11108 9.77355 9.85728 9.77355 10.7778Z" stroke="#272727" stroke-width="1.5" stroke-linecap="round" stroke-linejoin="round"/>
<path d="M14.2324 10.7892H18.615" stroke="#272727" stroke-width="1.5" stroke-linecap="round" stroke-linejoin="round"/>
<path d="M14.2324 14.6667H18.615" stroke="#272727" stroke-width="1.5" stroke-linecap="round" stroke-linejoin="round"/>
<path d="M1.99561 7.44444C1.99561 4.98984 3.98545 3 6.44005 3H17.5512C20.0058 3 21.9956 4.98985 21.9956 7.44444V16.5556C21.9956 19.0102 20.0058 21 17.5512 21H6.44005C3.98545 21 1.99561 19.0102 1.99561 16.5556V7.44444Z" stroke="#272727" stroke-width="1.5" stroke-linecap="round" stroke-linejoin="round"/>
</svg>
