<svg width="24" height="24" viewBox="0 0 24 24" fill="none" xmlns="http://www.w3.org/2000/svg">
<path d="M10.4221 5.94076L11.0768 5.57499L10.4221 5.94076ZM15.8835 5.68568L15.1541 5.51122L15.8835 5.68568ZM15.3304 3.01935L15.2735 3.76719L15.3304 3.01935ZM16.2271 4.24909L16.9566 4.42355L16.2271 4.24909ZM10.3572 2.6413L10.414 1.89346L10.3572 2.6413ZM9.40835 4.12612L10.0631 3.76035L9.40835 4.12612ZM4.8494 20.6408L4.18028 20.9796H4.18028L4.8494 20.6408ZM17.5868 22.3002C18.001 22.3002 18.3368 21.9644 18.3368 21.5502C18.3368 21.136 18.001 20.8002 17.5868 20.8002V22.3002ZM19.752 19.6348C19.6028 20.0213 19.7951 20.4555 20.1815 20.6047C20.5679 20.7539 21.0021 20.5616 21.1513 20.1752L19.752 19.6348ZM12.5847 15.1053L12.7163 14.3669H12.7163L12.5847 15.1053ZM11.5858 14.8405L11.2075 15.4881L11.2075 15.4881L11.5858 14.8405ZM10.9235 14.1352L10.2458 14.4564H10.2458L10.9235 14.1352ZM10.8212 13.2273L10.0899 13.0608L10.8212 13.2273ZM11.3133 12.4226L10.8197 11.8579L11.3133 12.4226ZM12.2339 11.9926L12.3624 12.7315V12.7315L12.2339 11.9926ZM13.484 13.1163C13.7356 13.4454 14.2063 13.5082 14.5353 13.2566C14.8644 13.005 14.9272 12.5343 14.6756 12.2053L13.484 13.1163ZM14.1497 16.0698L14.8275 15.7486L14.1497 16.0698ZM14.2521 16.9778L13.5208 16.8114V16.8114L14.2521 16.9778ZM13.76 17.7824L13.2664 17.2177L13.2664 17.2177L13.76 17.7824ZM12.8393 18.2125L12.9678 18.9514H12.9678L12.8393 18.2125ZM11.8004 18.1231L11.5451 18.8283H11.5451L11.8004 18.1231ZM11.5893 17.0888C11.3377 16.7597 10.867 16.6969 10.5379 16.9485C10.2089 17.2 10.1461 17.6707 10.3976 17.9998L11.5893 17.0888ZM13.4397 11.0001C13.4397 10.5859 13.1039 10.2501 12.6897 10.2501C12.2755 10.2501 11.9397 10.5859 11.9397 11.0001H13.4397ZM11.9397 11.949C11.9397 12.3632 12.2755 12.699 12.6897 12.699C13.1039 12.699 13.4397 12.3632 13.4397 11.949H11.9397ZM13.4397 18.7661C13.4397 18.3519 13.1039 18.0161 12.6897 18.0161C12.2755 18.0161 11.9397 18.3519 11.9397 18.7661H13.4397ZM11.9397 19.1434C11.9397 19.5576 12.2755 19.8934 12.6897 19.8934C13.1039 19.8934 13.4397 19.5576 13.4397 19.1434H11.9397ZM10.3003 3.38914L15.2735 3.76719L15.3872 2.27151L10.414 1.89346L10.3003 3.38914ZM15.4977 4.07463L15.1541 5.51122L16.613 5.86014L16.9566 4.42355L15.4977 4.07463ZM14.911 5.70306H11.2951V7.20306H14.911V5.70306ZM11.0768 5.57499L10.0631 3.76035L8.75359 4.49189L9.76731 6.30653L11.0768 5.57499ZM11.2951 5.70306C11.2045 5.70306 11.121 5.65406 11.0768 5.57499L9.76731 6.30653C10.0765 6.86008 10.661 7.20306 11.2951 7.20306V5.70306ZM15.1541 5.51122C15.1272 5.62371 15.0266 5.70306 14.911 5.70306V7.20306C15.7207 7.20306 16.4246 6.64762 16.613 5.86014L15.1541 5.51122ZM15.2735 3.76719C15.4269 3.77886 15.5335 3.925 15.4977 4.07463L16.9566 4.42355C17.2071 3.37613 16.4611 2.35314 15.3872 2.27151L15.2735 3.76719ZM10.414 1.89346C9.02243 1.78767 8.07296 3.27352 8.75359 4.49189L10.0631 3.76035C9.96587 3.58629 10.1015 3.37403 10.3003 3.38914L10.414 1.89346ZM12.4868 9.55017C16.7904 9.55017 20.2368 12.9202 20.2368 17.026H21.7368C21.7368 12.0458 17.5721 8.05017 12.4868 8.05017V9.55017ZM4.73682 17.026C4.73682 12.9202 8.18324 9.55017 12.4868 9.55017V8.05017C7.40155 8.05017 3.23682 12.0458 3.23682 17.026H4.73682ZM5.51851 20.302C5.01772 19.3129 4.73682 18.2018 4.73682 17.026H3.23682C3.23682 18.444 3.57621 19.7865 4.18028 20.9796L5.51851 20.302ZM6.44383 22.3002H17.5868V20.8002H6.44383V22.3002ZM20.2368 17.026C20.2368 17.9447 20.0654 18.8233 19.752 19.6348L21.1513 20.1752C21.5299 19.1946 21.7368 18.133 21.7368 17.026H20.2368ZM4.18028 20.9796C4.63079 21.8693 5.55726 22.3002 6.44383 22.3002V20.8002C6.0077 20.8002 5.6655 20.5923 5.51851 20.302L4.18028 20.9796ZM12.7163 14.3669C12.2494 14.2837 12.1097 14.2779 11.964 14.1928L11.2075 15.4881C11.6532 15.7484 12.1928 15.7973 12.4531 15.8437L12.7163 14.3669ZM11.964 14.1928C11.7881 14.0901 11.6676 13.9539 11.6012 13.814L10.2458 14.4564C10.4516 14.8908 10.792 15.2455 11.2075 15.4881L11.964 14.1928ZM11.6012 13.814C11.5359 13.6761 11.5211 13.5317 11.5525 13.3937L10.0899 13.0608C9.98252 13.5325 10.0389 14.02 10.2458 14.4564L11.6012 13.814ZM11.5525 13.3937C11.5842 13.2542 11.6661 13.1104 11.8068 12.9874L10.8197 11.8579C10.4576 12.1745 10.1969 12.5906 10.0899 13.0608L11.5525 13.3937ZM11.8068 12.9874C11.9485 12.8635 12.1405 12.7701 12.3624 12.7315L12.1055 11.2537C11.6298 11.3363 11.1809 11.5422 10.8197 11.8579L11.8068 12.9874ZM12.3624 12.7315C12.5843 12.6929 12.8135 12.7133 13.0175 12.7872L13.5281 11.3768C13.0751 11.2128 12.5812 11.171 12.1055 11.2537L12.3624 12.7315ZM13.0175 12.7872C13.2215 12.861 13.3802 12.9805 13.484 13.1163L14.6756 12.2053C14.3843 11.8242 13.9813 11.5408 13.5281 11.3768L13.0175 12.7872ZM13.472 16.3911C13.5374 16.529 13.5522 16.6734 13.5208 16.8114L14.9834 17.1442C15.0907 16.6726 15.0343 16.185 14.8275 15.7486L13.472 16.3911ZM13.5208 16.8114C13.489 16.9508 13.4072 17.0947 13.2664 17.2177L14.2535 18.3471C14.6157 18.0306 14.8764 17.6144 14.9834 17.1442L13.5208 16.8114ZM13.2664 17.2177C13.1247 17.3416 12.9328 17.435 12.7109 17.4736L12.9678 18.9514C13.4434 18.8687 13.8923 18.6628 14.2535 18.3471L13.2664 17.2177ZM12.7109 17.4736C12.4889 17.5122 12.2598 17.4917 12.0557 17.4179L11.5451 18.8283C11.9982 18.9923 12.4921 19.0341 12.9678 18.9514L12.7109 17.4736ZM12.0557 17.4179C11.8518 17.344 11.6931 17.2245 11.5893 17.0888L10.3976 17.9998C10.689 18.3809 11.0919 18.6642 11.5451 18.8283L12.0557 17.4179ZM12.4531 15.8437C13.0883 15.9569 13.3441 16.1211 13.472 16.3911L14.8275 15.7486C14.371 14.7856 13.4593 14.4994 12.7163 14.3669L12.4531 15.8437ZM11.9397 11.0001V11.949H13.4397V11.0001H11.9397ZM11.9397 18.7661V19.1434H13.4397V18.7661H11.9397Z" fill="#272727"/>
</svg>
