<svg width="24" height="24" viewBox="0 0 24 24" fill="none" xmlns="http://www.w3.org/2000/svg">
<path d="M12 11.5436V17.3551M10.2003 7.24946C10.2003 7.24946 12.0224 8.83215 13.8446 7.24634M6.18842 7.00076C6.46494 5.93035 7.03425 4.94803 7.84463 4.17056C8.98303 3.07839 10.5056 2.47829 12.0831 2.50009C13.6605 2.52188 15.166 3.16381 16.2738 4.28702C17.0229 5.04658 17.5495 5.98492 17.8119 7.00076M11.3411 10.7104L5.72176 9.09494C4.23917 8.66871 2.75 9.7423 2.75 11.2374V18.2671C2.75 19.1147 3.36565 19.8459 4.22429 20.018L11.2486 21.4262C11.7442 21.5256 12.2557 21.5256 12.7514 21.4262L19.7757 20.018C20.6344 19.8459 21.25 19.1147 21.25 18.2671V11.2392C21.25 9.74438 19.7613 8.67083 18.2788 9.09659L12.659 10.7106C12.229 10.8341 11.7711 10.834 11.3411 10.7104Z" stroke="#272727" stroke-width="1.5" stroke-linecap="round"/>
</svg>
