<svg width="24" height="24" viewBox="0 0 24 24" fill="none" xmlns="http://www.w3.org/2000/svg">
<path d="M3.5 6.00012C3.5 6.00012 6.25676 7.44884 11.7703 7.50012C17.7432 7.55568 20.5 6.00012 20.5 6.00012M13.8784 12.8803L16.1511 10.5675M15.2417 11.9552L16.1508 12.8803M6.5 22.0001H17.5C19.7091 22.0001 21.5 20.2093 21.5 18.0001V6.00012C21.5 3.79098 19.7091 2.00012 17.5 2.00012H6.5C4.29086 2.00012 2.5 3.79098 2.5 6.00012V18.0001C2.5 20.2093 4.29086 22.0001 6.5 22.0001ZM14 15.5001C14 17.157 12.6569 18.5001 11 18.5001C9.34315 18.5001 8 17.157 8 15.5001C8 13.8433 9.34315 12.5001 11 12.5001C12.6569 12.5001 14 13.8433 14 15.5001Z" stroke="#272727" stroke-width="1.5" stroke-linecap="round"/>
</svg>
