<svg width="24" height="24" viewBox="0 0 24 24" fill="none" xmlns="http://www.w3.org/2000/svg">
<path d="M7.95312 3.5C9.55584 3.5 10.8545 4.79905 10.8545 6.40039C10.8543 8.00155 9.55571 9.2998 7.95312 9.2998C6.35058 9.29976 5.05197 8.00152 5.05176 6.40039C5.05176 4.79908 6.35045 3.50005 7.95312 3.5ZM16.0166 3.5C17.6193 3.5 18.918 4.79905 18.918 6.40039C18.9178 8.00155 17.6192 9.2998 16.0166 9.2998C14.414 9.2998 13.1154 8.00155 13.1152 6.40039C13.1152 4.79905 14.4139 3.5 16.0166 3.5Z" stroke="#272727" stroke-width="1.5"/>
<path d="M8.99479 21.25C8.99479 16.0033 11.1832 11.75 15.9976 11.75C20.244 11.75 22.6898 15.4995 22.9727 20.3004C22.9968 20.7083 23.0088 20.9123 22.8889 21.0622C22.8725 21.0827 22.8525 21.1039 22.833 21.1215C22.6904 21.25 22.477 21.25 22.0504 21.25H12.4962M9.0036 21.25H1.95041C1.52402 21.25 1.31083 21.25 1.16841 21.1224C1.1489 21.1049 1.12903 21.084 1.11261 21.0636C0.992682 20.9147 1.00346 20.7099 1.02501 20.3003C1.27759 15.4995 3.4829 11.75 8.0032 11.75C8.30083 11.75 8.58961 11.7684 8.86942 11.8043" stroke="#272727" stroke-width="1.5" stroke-linecap="round"/>
</svg>
