<svg width="24" height="24" viewBox="0 0 24 24" fill="none" xmlns="http://www.w3.org/2000/svg">
<path d="M0.829978 7.65913C0.590978 6.89213 1.50498 6.29013 2.11498 6.81313L3.96998 8.40213C4.32328 8.70481 4.74214 8.92118 5.19346 9.03413C5.64478 9.14708 6.11618 9.15352 6.57041 9.05293C7.02464 8.95235 7.44925 8.7475 7.81069 8.45457C8.17213 8.16164 8.46049 7.78867 8.65298 7.36513L11.091 2.00313C11.446 1.22113 12.556 1.22113 12.911 2.00313L15.349 7.36513C15.5415 7.78867 15.8298 8.16164 16.1913 8.45457C16.5527 8.7475 16.9773 8.95235 17.4315 9.05293C17.8858 9.15352 18.3572 9.14708 18.8085 9.03413C19.2598 8.92118 19.6787 8.70481 20.032 8.40213L21.886 6.81313C22.496 6.29013 23.41 6.89313 23.17 7.65913L19.44 19.5971C19.3127 20.0042 19.0586 20.3599 18.7148 20.6123C18.371 20.8647 17.9555 21.0006 17.529 21.0001H6.46998C6.04369 21.0001 5.62856 20.8639 5.28515 20.6113C4.94174 20.3587 4.68801 20.003 4.56098 19.5961L0.830978 7.66013L0.829978 7.65913Z" fill="#0C0F0F"/>
</svg>
