<svg width="24" height="24" viewBox="0 0 24 24" fill="none" xmlns="http://www.w3.org/2000/svg">
<path d="M12.6634 9.73584C13.2114 11.7809 14.5493 13.5245 16.3829 14.5832M10.4129 9.79768C9.8314 11.8335 8.46496 13.5549 6.61421 14.5832M8.94736 18.2942C10.9332 19.0284 13.1294 18.9436 15.0527 18.0585M14.6875 6.54265C14.6875 8.3062 13.2578 9.73584 11.4942 9.73584C9.73068 9.73584 8.30103 8.3062 8.30103 6.54265C8.30103 4.7791 9.73068 3.34946 11.4942 3.34946C13.2578 3.34946 14.6875 4.7791 14.6875 6.54265ZM21.5717 19.0537C20.6899 20.5809 18.7369 21.1042 17.2096 20.2224C15.6823 19.3407 15.1591 17.3877 16.0408 15.8605C16.9226 14.3332 18.8756 13.8099 20.4029 14.6917C21.9302 15.5735 22.4534 17.5264 21.5717 19.0537ZM7.95916 19.0534C7.07738 20.5807 5.12443 21.104 3.59714 20.2222C2.06985 19.3404 1.54656 17.3875 2.42834 15.8602C3.31013 14.3329 5.26307 13.8096 6.79036 14.6914C8.31765 15.5732 8.84094 17.5261 7.95916 19.0534Z" stroke="#222727" stroke-width="1.5" stroke-linecap="round"/>
</svg>
