<svg width="24" height="24" viewBox="0 0 24 24" fill="none" xmlns="http://www.w3.org/2000/svg">
<path d="M4.8 17.4001V17.2201C4.8 15.708 4.8 14.9519 5.09428 14.3743C5.35314 13.8663 5.76619 13.4533 6.27423 13.1944C6.85179 12.9001 7.60786 12.9001 9.12 12.9001H14.88C16.3921 12.9001 17.1482 12.9001 17.7258 13.1944C18.2338 13.4533 18.6469 13.8663 18.9057 14.3743C19.2 14.9519 19.2 15.708 19.2 17.2201V17.4001M4.8 17.4001C3.80589 17.4001 3 18.206 3 19.2001C3 20.1942 3.80589 21.0001 4.8 21.0001C5.79411 21.0001 6.6 20.1942 6.6 19.2001C6.6 18.206 5.79411 17.4001 4.8 17.4001ZM19.2 17.4001C18.2059 17.4001 17.4 18.206 17.4 19.2001C17.4 20.1942 18.2059 21.0001 19.2 21.0001C20.1941 21.0001 21 20.1942 21 19.2001C21 18.206 20.1941 17.4001 19.2 17.4001ZM12 17.4001C11.0059 17.4001 10.2 18.206 10.2 19.2001C10.2 20.1942 11.0059 21.0001 12 21.0001C12.9941 21.0001 13.8 20.1942 13.8 19.2001C13.8 18.206 12.9941 17.4001 12 17.4001ZM12 17.4001V8.40012M6.6 8.40012H17.4C18.2387 8.40012 18.658 8.40012 18.9888 8.26311C19.4299 8.08042 19.7803 7.73 19.963 7.28895C20.1 6.95816 20.1 6.53882 20.1 5.70012C20.1 4.86143 20.1 4.44208 19.963 4.11129C19.7803 3.67024 19.4299 3.31983 18.9888 3.13714C18.658 3.00012 18.2387 3.00012 17.4 3.00012H6.6C5.76131 3.00012 5.34196 3.00012 5.01117 3.13714C4.57012 3.31983 4.21971 3.67024 4.03702 4.11129C3.9 4.44208 3.9 4.86143 3.9 5.70012C3.9 6.53882 3.9 6.95816 4.03702 7.28895C4.21971 7.73 4.57012 8.08042 5.01117 8.26311C5.34196 8.40012 5.76131 8.40012 6.6 8.40012Z" stroke="#272727" stroke-width="1.35" stroke-linecap="round"/>
</svg>
