<svg width="24" height="24" viewBox="0 0 24 24" fill="none" xmlns="http://www.w3.org/2000/svg">
<path fill-rule="evenodd" clip-rule="evenodd" d="M13.6057 13.0307C13.8985 12.7378 14.3734 12.7378 14.6663 13.0307L17.7097 16.0741L16.6491 17.1348L13.6057 14.0914C13.3128 13.7985 13.3128 13.3236 13.6057 13.0307ZM10.8632 15.7982C11.1561 15.5053 11.631 15.5053 11.9239 15.7982L14.9673 18.8416L13.9066 19.9022L10.8632 16.8588C10.5703 16.5659 10.5703 16.0911 10.8632 15.7982Z" fill="#00DDD3"/>
<path fill-rule="evenodd" clip-rule="evenodd" d="M13.4751 3.17809C14.6818 1.97148 16.6381 1.97148 17.8447 3.1781L22.6517 7.98508C23.862 9.19538 23.8577 11.159 22.6422 12.364L19.16 15.8163C19.0922 15.9 19.0194 15.9809 18.9415 16.0588L14.1782 20.8221C12.9716 22.0287 11.0153 22.0287 9.80866 20.8221L1.34832 12.3618C0.141705 11.1552 0.141705 9.19885 1.34832 7.99223L6.16246 3.1781C7.36509 1.97547 9.31247 1.97149 10.52 3.16617L12.0662 4.58701L13.4751 3.17809ZM12.6212 6.15333C12.6191 6.15543 12.6171 6.15751 12.615 6.15957L10.2976 8.47696L9.68627 9.0699C9.05168 9.68554 9.04132 10.7007 9.66323 11.3291L9.85207 11.52C10.4629 12.1372 11.4559 12.1501 12.0825 11.549L13.6476 10.0478C14.77 8.97109 16.5613 9.03877 17.5993 10.1971L18.8991 11.6476C19.3315 12.0635 19.6163 12.5748 19.7527 13.1165L21.5861 11.2988C22.2116 10.6788 22.2137 9.66846 21.591 9.04574L16.784 4.23875C16.1632 3.61792 15.1566 3.61792 14.5358 4.23875L12.6212 6.15333ZM18.0354 14.819C18.5071 14.1826 18.441 13.2761 17.8464 12.7164L17.8232 12.6946L16.4822 11.1981C16.0104 10.6716 15.1962 10.6409 14.686 11.1303L13.1209 12.6315C11.903 13.7998 9.97296 13.7746 8.78587 12.575L8.59702 12.3842C7.38832 11.1628 7.40844 9.18981 8.64181 7.99328L9.24898 7.40425L11.0046 5.64862L9.48255 4.24995L9.47135 4.23875C8.85052 3.61792 7.84395 3.61792 7.22312 4.23876L2.40898 9.05289C1.78815 9.67372 1.78815 10.6803 2.40898 11.3011L10.8693 19.7614C11.4902 20.3823 12.4967 20.3823 13.1175 19.7614L17.2775 15.6015C17.3086 15.5503 17.3464 15.5022 17.3908 15.4581L18.0354 14.819Z" fill="#0C0F0F"/>
</svg>
