<svg width="24" height="24" viewBox="0 0 24 24" fill="none" xmlns="http://www.w3.org/2000/svg">
<path d="M9.16667 17.1946H14.8333M3.5 7.939C3.5 5.54215 3.5 4.34373 4.17885 3.54889C4.27525 3.43603 4.38036 3.33091 4.49323 3.23451C5.28806 2.55566 6.48649 2.55566 8.88333 2.55566H15.1167C17.5135 2.55566 18.7119 2.55566 19.5068 3.23451C19.6196 3.33091 19.7248 3.43603 19.8211 3.54889C20.5 4.34373 20.5 5.54215 20.5 7.939V16.0612C20.5 18.4581 20.5 19.6565 19.8211 20.4513C19.7248 20.5642 19.6196 20.6693 19.5068 20.7657C18.7119 21.4446 17.5135 21.4446 15.1167 21.4446H8.88333C6.48649 21.4446 5.28806 21.4446 4.49323 20.7657C4.38036 20.6693 4.27525 20.5642 4.17885 20.4513C3.5 19.6565 3.5 18.4581 3.5 16.0612V7.939Z" stroke="#272727" stroke-width="1.5" stroke-linecap="round"/>
</svg>
