<svg width="24" height="24" viewBox="0 0 24 24" fill="none" xmlns="http://www.w3.org/2000/svg">
<path d="M13.4191 6.01763L13.2504 6.74842L13.4191 6.01763ZM14.037 6.11481L14.0902 6.86292L14.037 6.11481ZM14.917 5.5749L14.3781 5.05321L14.917 5.5749ZM14.4511 5.99242L14.8132 6.64924L14.4511 5.99242ZM4.90077 4.30024L4.55328 3.6356L4.90077 4.30024ZM5.9186 4.28675L6.08724 3.55595L5.9186 4.28675ZM5.28945 4.18877L5.23186 3.44099L5.28945 4.18877ZM4.67523 7.75355L4.43806 8.46506L4.67523 7.75355ZM3.25979 7.09037L3.86194 6.64325L3.25979 7.09037ZM3.07693 6.31576L2.3384 6.18513L3.07693 6.31576ZM6.05875 13.5997L5.97593 14.3451L6.05875 13.5997ZM6.61637 13.6253L6.49825 12.8847L6.61637 13.6253ZM7.37407 13.1383L7.9044 13.6686L7.37407 13.1383ZM6.95465 13.5067L7.32508 14.1588L6.95465 13.5067ZM3.12749 16.5513L3.54352 15.9272H3.54352L3.12749 16.5513ZM2.16851 15.7459L1.49394 16.0737L2.16851 15.7459ZM2.88229 14.075L3.41262 14.6053H3.41262L2.88229 14.075ZM2.09988 15.0528L2.82564 15.2419L2.09988 15.0528ZM5.93924 18.5745L5.3152 18.9905L5.93924 18.5745ZM5.80053 18.3791L6.37104 17.8923L5.80053 18.3791ZM5.49302 18.1283L5.07699 18.7523L5.49302 18.1283ZM5.68837 18.267L6.17522 17.6965L5.68837 18.267ZM9.99256 21.1852L10.5229 21.7155L10.5229 21.7155L9.99256 21.1852ZM9.01473 21.9676L8.82559 21.2419L9.01473 21.9676ZM7.51625 20.94L8.14029 20.524L7.51625 20.94ZM8.32165 21.899L7.99385 22.5736L8.32165 21.899ZM10.6525 19.6713L9.90713 19.7541L10.6525 19.6713ZM10.6782 20.2289L9.93753 20.1108L10.6782 20.2289ZM10.1912 20.9866L9.66083 20.4563L9.66082 20.4563L10.1912 20.9866ZM10.5595 20.5672L11.2116 20.9376L10.5595 20.5672ZM10.9292 16.6934L11.4595 17.2238L10.9292 16.6934ZM10.5609 17.1129L9.90872 16.7424L10.5609 17.1129ZM10.4678 18.0088L11.2132 17.9259V17.9259L10.4678 18.0088ZM10.4422 17.4511L11.1828 17.5693L10.4422 17.4511ZM18.9779 20.0211L18.4476 19.4908L18.4476 19.4908L18.9779 20.0211ZM17.7518 20.9906L17.8824 21.7291L17.7518 20.9906ZM16.314 19.3923L17.0255 19.1551L16.314 19.3923ZM16.9771 20.8077L17.4243 20.2056L16.9771 20.8077ZM19.7808 18.1489L20.5116 17.9803L19.7808 18.1489ZM19.8787 18.7781L20.6265 18.8356L19.8787 18.7781ZM19.3507 19.6483L19.8811 20.1787L19.8811 20.1787L19.3507 19.6483ZM19.7673 19.1667L20.4319 19.5142L19.7673 19.1667ZM18.4474 9.14696L17.905 8.62899L18.4474 9.14696ZM18.0514 9.62527L18.7216 9.96199L18.0514 9.62527ZM18.0433 10.6199L18.7741 10.4512L18.0433 10.6199ZM17.9468 10.0064L17.1987 9.95403L17.9468 10.0064ZM17.6421 2.76016L18.1809 3.28185L17.6421 2.76016ZM3.08089 13.8764L2.55056 13.346H2.55056L3.08089 13.8764ZM3.50031 13.508L3.12988 12.8559L3.50031 13.508ZM4.3962 13.415L4.47903 12.6696H4.47903L4.3962 13.415ZM3.83858 13.3893L3.95671 14.13L3.83858 13.3893ZM21.2415 6.22107L21.7839 6.73904L21.2415 6.22107ZM8.437 12.0754L7.90667 11.545L8.437 12.0754ZM15.3221 16.4166L14.6106 16.6538L15.3221 16.4166ZM18.9898 9.66493L21.7839 6.73904L20.6991 5.7031L17.905 8.62899L18.9898 9.66493ZM17.3125 10.7885L19.05 18.3176L20.5116 17.9803L18.7741 10.4512L17.3125 10.7885ZM18.8204 19.118L18.4476 19.4908L19.5082 20.5515L19.8811 20.1787L18.8204 19.118ZM17.0255 19.1551L16.0336 16.1794L14.6106 16.6538L15.6025 19.6294L17.0255 19.1551ZM11.4595 17.2238L12.5225 16.1608L11.4618 15.1002L10.3989 16.1631L11.4595 17.2238ZM11.398 19.5885L11.2132 17.9259L9.7224 18.0916L9.90713 19.7541L11.398 19.5885ZM10.5229 21.7155L10.7215 21.5169L9.66082 20.4563L9.46222 20.6549L10.5229 21.7155ZM5.3152 18.9905L6.89221 21.356L8.14029 20.524L6.56327 18.1585L5.3152 18.9905ZM2.71147 17.1753L5.07699 18.7523L5.90904 17.5042L3.54352 15.9272L2.71147 17.1753ZM2.55056 13.346L2.35196 13.5446L3.41262 14.6053L3.61122 14.4067L2.55056 13.346ZM6.14158 12.8543L4.47903 12.6696L4.31338 14.1604L5.97593 14.3451L6.14158 12.8543ZM7.90667 11.545L6.84374 12.608L7.9044 13.6686L8.96733 12.6057L7.90667 11.545ZM4.43806 8.46506L7.41374 9.45695L7.88808 8.03393L4.9124 7.04203L4.43806 8.46506ZM3.88886 4.18644L3.51603 4.55927L4.57669 5.61993L4.94952 5.2471L3.88886 4.18644ZM13.5877 5.28683L6.08724 3.55595L5.74995 5.01754L13.2504 6.74842L13.5877 5.28683ZM17.1033 2.23848L14.3781 5.05321L15.4558 6.09658L18.1809 3.28185L17.1033 2.23848ZM13.2504 6.74842C13.5157 6.80963 13.801 6.88349 14.0902 6.86292L13.9838 5.3667C13.9904 5.36623 13.9788 5.36892 13.9157 5.35807C13.8446 5.34583 13.7515 5.32463 13.5877 5.28683L13.2504 6.74842ZM14.3781 5.05321C14.2612 5.17399 14.1946 5.24239 14.1416 5.2913C14.0945 5.3347 14.0833 5.33878 14.0891 5.3356L14.8132 6.64924C15.0672 6.50925 15.2665 6.29217 15.4558 6.09658L14.3781 5.05321ZM14.0902 6.86292C14.3439 6.84489 14.5905 6.77198 14.8132 6.64924L14.0891 5.3356C14.0567 5.35346 14.0208 5.36408 13.9838 5.3667L14.0902 6.86292ZM4.94952 5.2471C5.07049 5.12612 5.13934 5.05769 5.19408 5.00891C5.24256 4.96571 5.25409 4.96184 5.24826 4.96489L4.55328 3.6356C4.29117 3.77264 4.08475 3.99054 3.88886 4.18644L4.94952 5.2471ZM6.08724 3.55595C5.81729 3.49366 5.52676 3.41828 5.23186 3.44099L5.34704 4.93656C5.34049 4.93706 5.35231 4.93424 5.41632 4.94517C5.4886 4.95752 5.58324 4.97907 5.74995 5.01754L6.08724 3.55595ZM5.24826 4.96489C5.27893 4.94885 5.31254 4.93921 5.34704 4.93656L5.23186 3.44099C4.99483 3.45924 4.76397 3.52545 4.55328 3.6356L5.24826 4.96489ZM4.9124 7.04203C4.48965 6.90112 4.22187 6.81107 4.03271 6.72817C3.84256 6.64484 3.83866 6.61189 3.86194 6.64325L2.65764 7.53749C2.86976 7.82316 3.16471 7.9855 3.43064 8.10204C3.69756 8.21901 4.04307 8.3334 4.43806 8.46506L4.9124 7.04203ZM3.51603 4.55927C3.22162 4.85367 2.96374 5.1105 2.77731 5.33449C2.59157 5.55765 2.40037 5.83477 2.3384 6.18513L3.81547 6.44639C3.80867 6.48485 3.79742 6.45363 3.93023 6.29406C4.06234 6.13533 4.26159 5.93503 4.57669 5.61993L3.51603 4.55927ZM3.86194 6.64325C3.82003 6.58681 3.80323 6.51561 3.81547 6.44639L2.3384 6.18513C2.25429 6.66064 2.36976 7.1498 2.65764 7.53749L3.86194 6.64325ZM5.97593 14.3451C6.21671 14.3719 6.47659 14.4071 6.7345 14.366L6.49825 12.8847C6.50345 12.8838 6.49322 12.8869 6.4373 12.8836C6.37371 12.8798 6.29007 12.8708 6.14158 12.8543L5.97593 14.3451ZM6.84374 12.608C6.73809 12.7136 6.67844 12.773 6.63113 12.8156C6.58953 12.8531 6.57963 12.8571 6.58421 12.8545L7.32508 14.1588C7.55217 14.0298 7.73309 13.8399 7.9044 13.6686L6.84374 12.608ZM6.7345 14.366C6.94218 14.3328 7.14222 14.2627 7.32508 14.1588L6.58421 12.8545C6.5576 12.8696 6.52848 12.8799 6.49825 12.8847L6.7345 14.366ZM3.54352 15.9272C3.2524 15.7331 3.07494 15.614 2.95165 15.5153C2.83344 15.4206 2.83222 15.3957 2.84308 15.4181L1.49394 16.0737C1.62418 16.3417 1.82259 16.5329 2.01409 16.6862C2.20051 16.8355 2.44285 16.9962 2.71147 17.1753L3.54352 15.9272ZM2.35196 13.5446C2.12368 13.7729 1.91757 13.9781 1.76404 14.161C1.60634 14.3489 1.44927 14.5753 1.37413 14.8636L2.82564 15.2419C2.81938 15.266 2.81568 15.2413 2.91303 15.1253C3.01456 15.0043 3.16522 14.8527 3.41262 14.6053L2.35196 13.5446ZM2.84308 15.4181C2.81647 15.3633 2.81029 15.3008 2.82564 15.2419L1.37413 14.8636C1.26865 15.2684 1.31114 15.6975 1.49394 16.0737L2.84308 15.4181ZM6.56327 18.1585C6.50599 18.0725 6.44519 17.9792 6.37104 17.8923L5.23003 18.866C5.23328 18.8698 5.23915 18.8764 5.3152 18.9905L6.56327 18.1585ZM5.07699 18.7523C5.19108 18.8284 5.19772 18.8342 5.20152 18.8375L6.17522 17.6965C6.08832 17.6223 5.99496 17.5615 5.90904 17.5042L5.07699 18.7523ZM6.37104 17.8923C6.31103 17.822 6.24555 17.7565 6.17522 17.6965L5.20152 18.8375C5.21175 18.8462 5.22128 18.8557 5.23003 18.866L6.37104 17.8923ZM9.46223 20.6549C9.21482 20.9023 9.06322 21.0529 8.94224 21.1545C8.82624 21.2518 8.80154 21.2481 8.82559 21.2419L9.20387 22.6934C9.49222 22.6182 9.7186 22.4612 9.90651 22.3035C10.0895 22.1499 10.2946 21.9438 10.5229 21.7155L9.46223 20.6549ZM6.89221 21.356C7.07129 21.6247 7.23204 21.867 7.38132 22.0534C7.53466 22.2449 7.72584 22.4433 7.99385 22.5736L8.64945 21.2244C8.6718 21.2353 8.64686 21.2341 8.55221 21.1159C8.45349 20.9926 8.33437 20.8151 8.14029 20.524L6.89221 21.356ZM8.82559 21.2419C8.76667 21.2572 8.70421 21.251 8.64945 21.2244L7.99385 22.5736C8.37004 22.7564 8.79914 22.7989 9.20387 22.6934L8.82559 21.2419ZM9.90713 19.7541C9.92363 19.9026 9.93269 19.9863 9.93645 20.0499C9.93976 20.1058 9.9367 20.116 9.93753 20.1108L11.4188 20.347C11.4599 20.0891 11.4247 19.8293 11.398 19.5885L9.90713 19.7541ZM10.7215 21.5169C10.8928 21.3456 11.0826 21.1647 11.2116 20.9376L9.90737 20.1968C9.90997 20.1922 9.90598 20.2021 9.86846 20.2437C9.8258 20.291 9.76647 20.3506 9.66083 20.4563L10.7215 21.5169ZM9.93753 20.1108C9.9327 20.141 9.92249 20.1701 9.90737 20.1968L11.2116 20.9376C11.3155 20.7548 11.3857 20.5547 11.4188 20.347L9.93753 20.1108ZM10.3989 16.1631C10.2276 16.3344 10.0377 16.5153 9.90872 16.7424L11.213 17.4833C11.2104 17.4879 11.2144 17.478 11.2519 17.4364C11.2946 17.3891 11.3539 17.3294 11.4595 17.2238L10.3989 16.1631ZM11.2132 17.9259C11.1967 17.7774 11.1877 17.6938 11.1839 17.6302C11.1806 17.5743 11.1837 17.5641 11.1828 17.5693L9.70155 17.333C9.66042 17.5909 9.69565 17.8508 9.7224 18.0916L11.2132 17.9259ZM9.90872 16.7424C9.80485 16.9253 9.73468 17.1253 9.70155 17.333L11.1828 17.5693C11.1877 17.539 11.1979 17.5099 11.213 17.4833L9.90872 16.7424ZM18.4476 19.4908C18.1325 19.8059 17.9322 20.0052 17.7735 20.1373C17.6139 20.2701 17.5827 20.2588 17.6211 20.252L17.8824 21.7291C18.2328 21.6671 18.5099 21.4759 18.733 21.2902C18.957 21.1038 19.2138 20.8459 19.5083 20.5515L18.4476 19.4908ZM15.6025 19.6294C15.7341 20.0244 15.8485 20.3699 15.9655 20.6369C16.082 20.9028 16.2444 21.1977 16.53 21.4099L17.4243 20.2056C17.4556 20.2288 17.4227 20.2249 17.3393 20.0348C17.2564 19.8456 17.1664 19.5779 17.0255 19.1551L15.6025 19.6294ZM17.6211 20.252C17.5519 20.2643 17.4807 20.2475 17.4243 20.2056L16.53 21.4099C16.9177 21.6977 17.4069 21.8132 17.8824 21.7291L17.6211 20.252ZM19.05 18.3176C19.0885 18.4843 19.11 18.5789 19.1223 18.6512C19.1333 18.7152 19.1305 18.727 19.131 18.7205L20.6265 18.8356C20.6492 18.5407 20.5739 18.2502 20.5116 17.9803L19.05 18.3176ZM19.8811 20.1787C20.077 19.9828 20.2949 19.7763 20.4319 19.5142L19.1026 18.8192C19.1057 18.8134 19.1018 18.8249 19.0586 18.8734C19.0098 18.9282 18.9414 18.997 18.8204 19.118L19.8811 20.1787ZM19.131 18.7205C19.1283 18.755 19.1187 18.7886 19.1026 18.8192L20.4319 19.5142C20.5421 19.3035 20.6083 19.0727 20.6265 18.8356L19.131 18.7205ZM17.905 8.62899C17.7185 8.82428 17.511 9.03041 17.3813 9.28854L18.7216 9.96199C18.7188 9.96762 18.7224 9.95633 18.7634 9.9083C18.8097 9.85399 18.8747 9.7855 18.9898 9.66493L17.905 8.62899ZM18.7741 10.4512C18.7366 10.2888 18.7156 10.1967 18.7035 10.1263C18.6928 10.0641 18.6955 10.0526 18.695 10.0589L17.1987 9.95403C17.1785 10.2422 17.2518 10.5254 17.3125 10.7885L18.7741 10.4512ZM17.3813 9.28854C17.277 9.49611 17.2149 9.7223 17.1987 9.95403L18.695 10.0589C18.6974 10.0251 18.7064 9.9922 18.7216 9.96199L17.3813 9.28854ZM21.7316 2.20105C20.4492 0.918622 18.3648 0.935477 17.1033 2.23848L18.1809 3.28185C18.8596 2.58085 19.981 2.57178 20.6709 3.26171L21.7316 2.20105ZM3.61122 14.4067C3.71686 14.301 3.77652 14.2417 3.82382 14.1991C3.86543 14.1615 3.87532 14.1575 3.87074 14.1601L3.12988 12.8559C2.90279 12.9849 2.72186 13.1747 2.55056 13.346L3.61122 14.4067ZM4.47903 12.6696C4.23825 12.6428 3.97837 12.6076 3.72046 12.6487L3.95671 14.13C3.9515 14.1308 3.96173 14.1278 4.01766 14.1311C4.08124 14.1348 4.16489 14.1439 4.31338 14.1604L4.47903 12.6696ZM3.87074 14.1601C3.89736 14.145 3.92648 14.1348 3.95671 14.13L3.72046 12.6487C3.51278 12.6818 3.31274 12.752 3.12988 12.8559L3.87074 14.1601ZM20.6709 3.26171C21.342 3.93275 21.3545 5.01679 20.6991 5.7031L21.7839 6.73904C23.0021 5.46333 22.9789 3.44835 21.7316 2.20105L20.6709 3.26171ZM8.96733 12.6057C10.4187 11.1543 9.8353 8.683 7.88808 8.03393L7.41374 9.45695C8.3031 9.7534 8.56956 10.8822 7.90667 11.545L8.96733 12.6057ZM16.0336 16.1794C15.3845 14.2322 12.9132 13.6488 11.4618 15.1002L12.5225 16.1608C13.1854 15.4979 14.3141 15.7644 14.6106 16.6538L16.0336 16.1794Z" fill="#222727"/>
</svg>
