<svg width="24" height="24" viewBox="0 0 24 24" fill="none" xmlns="http://www.w3.org/2000/svg">
<path d="M9.00928 21.542C4.95217 20.2678 2.00928 16.4775 2.00928 11.9998C2.00928 6.59543 6.29647 2.19234 11.6555 2.00599C11.8108 2.00058 11.9075 2.16944 11.8275 2.30274L10.5093 4.49984M15.1404 2.49984C19.1297 3.81392 22.0093 7.5706 22.0093 11.9998C22.0093 17.4043 17.7221 21.8073 12.3631 21.9937C12.2077 21.9991 12.111 21.8302 12.191 21.6969L13.5093 19.4998M11.6668 10.3479L10.3335 16.3479M13.0093 15.6001H13.0183M9.62186 12.3287C9.23205 11.8225 9.00024 11.1883 9.00024 10.5C9.00024 8.84315 10.3434 7.5 12.0002 7.5C13.6571 7.5 15.0002 8.84315 15.0002 10.5C15.0002 12.1569 13.6571 13.5 12.0002 13.5C11.7024 13.5 11.4147 13.4566 11.1431 13.3758" stroke="#272727" stroke-width="1.5" stroke-linecap="round"/>
</svg>
