<svg width="24" height="24" viewBox="0 0 24 24" fill="none" xmlns="http://www.w3.org/2000/svg">
<path d="M1.53809 12.8995C1.9946 18.2772 6.50424 22.4995 12.0001 22.4995C17.4959 22.4995 22.0055 18.2772 22.462 12.8995H16.41C15.9931 14.9535 14.1771 16.4995 12.0001 16.4995C9.823 16.4995 8.00702 14.9535 7.59007 12.8995H1.53809Z" fill="#222727"/>
<path d="M1.51685 11.4001C1.81379 6.12898 5.99885 1.89709 11.25 1.52649V7.56233C9.31588 7.88682 7.80012 9.44506 7.53964 11.4001H1.51685Z" fill="#222727" fill-opacity="0.35"/>
<path d="M16.4604 11.4001H22.4831C22.1862 6.12898 18.0011 1.89709 12.75 1.52649V7.56233C14.6841 7.88682 16.1999 9.44506 16.4604 11.4001Z" fill="#222727" fill-opacity="0.8"/>
</svg>
