<svg width="24" height="24" viewBox="0 0 24 24" fill="none" xmlns="http://www.w3.org/2000/svg">
<path d="M14.1753 13.7039V20.2039M19.6389 20.2039V13.7039M7.65 10.5001H6.35C5.08108 10.5001 4.44662 10.5001 4.02583 10.1407C3.96608 10.0897 3.91042 10.034 3.85939 9.97429C3.5 9.5535 3.5 8.91904 3.5 7.65012V6.35012C3.5 5.0812 3.5 4.44674 3.85939 4.02595C3.91042 3.9662 3.96608 3.91055 4.02583 3.85951C4.44662 3.50012 5.08108 3.50012 6.35 3.50012H7.65C8.91892 3.50012 9.55338 3.50012 9.97417 3.85951C10.0339 3.91055 10.0896 3.9662 10.1406 4.02595C10.5 4.44674 10.5 5.0812 10.5 6.35012V7.65012C10.5 8.91904 10.5 9.5535 10.1406 9.97429C10.0896 10.034 10.0339 10.0897 9.97417 10.1407C9.55338 10.5001 8.91892 10.5001 7.65 10.5001ZM17.65 10.5001H16.35C15.0811 10.5001 14.4466 10.5001 14.0258 10.1407C13.9661 10.0897 13.9104 10.034 13.8594 9.97429C13.5 9.5535 13.5 8.91904 13.5 7.65012V6.35012C13.5 5.0812 13.5 4.44674 13.8594 4.02595C13.9104 3.9662 13.9661 3.91055 14.0258 3.85951C14.4466 3.50012 15.0811 3.50012 16.35 3.50012H17.65C18.9189 3.50012 19.5534 3.50012 19.9742 3.85951C20.0339 3.91055 20.0896 3.9662 20.1406 4.02595C20.5 4.44674 20.5 5.0812 20.5 6.35012V7.65012C20.5 8.91904 20.5 9.5535 20.1406 9.97429C20.0896 10.034 20.0339 10.0897 19.9742 10.1407C19.5534 10.5001 18.9189 10.5001 17.65 10.5001ZM7.65 20.5001H6.35C5.08108 20.5001 4.44662 20.5001 4.02583 20.1407C3.96608 20.0897 3.91042 20.034 3.85939 19.9743C3.5 19.5535 3.5 18.919 3.5 17.6501V16.3501C3.5 15.0812 3.5 14.4467 3.85939 14.026C3.91042 13.9662 3.96608 13.9105 4.02583 13.8595C4.44662 13.5001 5.08108 13.5001 6.35 13.5001H7.65C8.91892 13.5001 9.55338 13.5001 9.97417 13.8595C10.0339 13.9105 10.0896 13.9662 10.1406 14.026C10.5 14.4467 10.5 15.0812 10.5 16.3501V17.6501C10.5 18.919 10.5 19.5535 10.1406 19.9743C10.0896 20.034 10.0339 20.0897 9.97417 20.1407C9.55338 20.5001 8.91892 20.5001 7.65 20.5001Z" stroke="#272727" stroke-width="1.50056" stroke-linecap="round" stroke-linejoin="round"/>
</svg>
