<svg width="24" height="24" viewBox="0 0 24 24" fill="none" xmlns="http://www.w3.org/2000/svg">
<path fill-rule="evenodd" clip-rule="evenodd" d="M21.2122 15.0488L21.4658 15.1886C21.9809 15.4727 22.1534 16.0954 21.851 16.5794C21.7576 16.729 21.625 16.8536 21.4658 16.9414L12.5474 21.8603C12.2094 22.0467 11.7906 22.0467 11.4526 21.8603L2.53419 16.9414C2.0191 16.6573 1.84663 16.0346 2.14896 15.5506C2.24239 15.401 2.37501 15.2764 2.53419 15.1886L2.78753 15.0488L11.4526 19.8279C11.7737 20.005 12.1678 20.0138 12.4961 19.8544L12.5474 19.8279L21.2122 15.0488ZM21.2122 10.9839L21.4658 11.1237C21.9809 11.4078 22.1534 12.0305 21.851 12.5145C21.7576 12.6641 21.625 12.7887 21.4658 12.8765L12.5474 17.7955C12.2094 17.9819 11.7906 17.9819 11.4526 17.7955L2.53419 12.8765C2.0191 12.5924 1.84663 11.9697 2.14896 11.4857C2.24239 11.3361 2.37501 11.2115 2.53419 11.1237L2.78753 10.9839L11.4526 15.763C11.7737 15.9401 12.1678 15.949 12.4961 15.7896L12.5474 15.763L21.2122 10.9839ZM12.5474 2.13994L21.4658 7.05888C21.9809 7.34298 22.1534 7.96566 21.851 8.44968C21.7576 8.59926 21.625 8.72388 21.4658 8.81167L12.5474 13.7306C12.2094 13.917 11.7906 13.917 11.4526 13.7306L2.53419 8.81167C2.0191 8.52757 1.84663 7.90489 2.14896 7.42087C2.24239 7.27129 2.37501 7.14667 2.53419 7.05888L11.4526 2.13994C11.7906 1.95352 12.2094 1.95352 12.5474 2.13994Z" fill="#0C0F0F"/>
</svg>
