<svg width="24" height="24" viewBox="0 0 24 24" fill="none" xmlns="http://www.w3.org/2000/svg">
<rect y="0.00012207" width="24" height="24" rx="12" fill="white"/>
<path d="M17.9999 12.111C18.0017 12.2333 17.9863 12.3554 17.9539 12.4735C17.9215 12.5916 17.8724 12.7048 17.808 12.8092C17.7438 12.9137 17.665 13.0088 17.574 13.0916C17.483 13.1744 17.3807 13.2441 17.2702 13.2985C17.2726 13.3311 17.2747 13.3639 17.2758 13.3968C17.2785 13.4622 17.2785 13.5277 17.2758 13.5932C17.2747 13.626 17.2726 13.6588 17.2702 13.6914C17.2702 15.6915 14.9189 17.3166 12.0182 17.3166C9.11744 17.3166 6.76621 15.6915 6.76621 13.6914C6.76373 13.6588 6.76171 13.626 6.76058 13.5932C6.75787 13.5277 6.75787 13.4622 6.76058 13.3968C6.76171 13.3639 6.76373 13.3311 6.76621 13.2985C6.59297 13.2196 6.4391 13.1043 6.31524 12.9606C6.19139 12.8169 6.10052 12.6483 6.04891 12.4664C5.99739 12.2843 5.98641 12.0934 6.01674 11.9068C6.04708 11.7201 6.11799 11.5423 6.22457 11.3855C6.33106 11.2288 6.47068 11.0969 6.63375 10.999C6.79681 10.901 6.97942 10.8395 7.16889 10.8185C7.35839 10.7975 7.55024 10.8175 7.73115 10.8772C7.91206 10.937 8.0777 11.035 8.21659 11.1645C8.47442 10.9913 8.74455 10.8368 9.02488 10.7022C9.30527 10.5678 9.59512 10.4535 9.89217 10.3607C10.1892 10.2678 10.4928 10.1966 10.8002 10.1473C11.1077 10.0979 11.4184 10.0709 11.7299 10.0663L12.3965 6.9679C12.404 6.93196 12.4186 6.89803 12.4396 6.86767C12.4603 6.83753 12.4871 6.81164 12.5179 6.79177C12.549 6.77191 12.5837 6.75829 12.6202 6.75159C12.6564 6.74512 12.6938 6.74579 12.7299 6.7536L14.937 7.19112C15.1597 6.81186 15.6272 6.64936 16.0401 6.8074C16.4529 6.96544 16.6889 7.39738 16.5966 7.82642C16.5044 8.25545 16.1112 8.55458 15.6693 8.53203C15.2273 8.50948 14.8671 8.17197 14.8198 7.73579L12.892 7.33398L12.3065 10.1198C12.6141 10.1263 12.9211 10.1549 13.2247 10.2051C13.8326 10.3055 14.4227 10.4924 14.9768 10.76C15.2536 10.8935 15.5202 11.0466 15.7747 11.2181C15.9578 11.0439 16.1877 10.926 16.4369 10.8786C16.686 10.831 16.9438 10.8558 17.179 10.9502C17.4142 11.0446 17.6168 11.2043 17.7625 11.4103C17.9082 11.6163 17.9906 11.8596 17.9999 12.111ZM9.05979 13.3456C9.10528 13.4539 9.17149 13.5523 9.25527 13.6352C9.33882 13.7182 9.43814 13.7838 9.54737 13.8289C9.6567 13.8737 9.77386 13.8968 9.89217 13.8968C10.2566 13.8968 10.5849 13.6791 10.7246 13.3456C10.864 13.0119 10.7867 12.628 10.5291 12.3726C10.2714 12.1172 9.88407 12.0407 9.54737 12.1788C9.2109 12.3172 8.99132 12.6427 8.99132 13.0039C8.99132 13.1211 9.01452 13.2372 9.05979 13.3456ZM14.2194 15.489C14.2656 15.4444 14.2919 15.3835 14.2928 15.3196C14.2937 15.2555 14.2687 15.1939 14.2237 15.1482C14.1787 15.1024 14.1172 15.0763 14.0528 15.0754C13.9881 15.0745 13.926 15.0993 13.8739 15.1379C13.7385 15.2342 13.595 15.319 13.4451 15.3913C13.2952 15.4636 13.1394 15.5233 12.9794 15.5696C12.8195 15.6158 12.6558 15.6486 12.4902 15.6676C12.3245 15.6866 12.1576 15.6915 11.9912 15.6826C11.825 15.6899 11.6583 15.6832 11.4932 15.6627C11.3281 15.6424 11.165 15.608 11.0059 15.56C10.8464 15.5123 10.6917 15.4511 10.5428 15.3774C10.394 15.3038 10.2516 15.2176 10.1174 15.12C10.0708 15.0821 10.0115 15.0627 9.95118 15.0656C9.89082 15.0685 9.83384 15.0937 9.79105 15.1359C9.74849 15.1783 9.72304 15.2348 9.72011 15.2946C9.71718 15.3544 9.73678 15.4131 9.77506 15.4594C9.93339 15.5777 10.1016 15.6821 10.278 15.7719C10.4543 15.8616 10.6383 15.9359 10.8275 15.9944C11.0167 16.0529 11.2106 16.0951 11.4072 16.1208C11.6038 16.1462 11.8022 16.1549 12.0002 16.1469C12.1981 16.1549 12.3965 16.1462 12.5932 16.1208C12.9869 16.0694 13.3689 15.9514 13.7224 15.7719C13.8987 15.6821 14.067 15.5777 14.2253 15.4594L14.2194 15.489ZM14.0541 13.9682C14.1762 13.9696 14.2973 13.9461 14.4102 13.8997C14.523 13.853 14.625 13.7843 14.7102 13.6974C14.7953 13.6106 14.8615 13.5075 14.9052 13.3943C14.9489 13.2813 14.9689 13.1606 14.964 13.0396C14.964 12.6784 14.7444 12.353 14.4079 12.2146C14.0712 12.0764 13.6839 12.153 13.4262 12.4083C13.1686 12.6637 13.0913 13.0476 13.2307 13.3814C13.3704 13.7149 13.6987 13.9325 14.0631 13.9325L14.0541 13.9682Z" fill="#0C0F0F"/>
</svg>
