<svg width="24" height="24" viewBox="0 0 24 24" fill="none" xmlns="http://www.w3.org/2000/svg">
<path d="M19.157 3.38165L13.1385 1.12748C12.5148 0.897691 11.4971 0.897691 10.8734 1.12748L4.855 3.38165C3.69509 3.81935 2.75403 5.17623 2.75403 6.41274V15.2762C2.75403 16.1626 3.33399 17.3334 4.04525 17.8586L10.0637 22.356C11.1251 23.1548 12.865 23.1548 13.9264 22.356L19.9448 17.8586C20.6561 17.3225 21.236 16.1626 21.236 15.2762V6.41274C21.247 5.17623 20.3059 3.81935 19.157 3.38165ZM15.8085 9.50948L11.1032 14.2148C10.9391 14.3789 10.7312 14.4555 10.5233 14.4555C10.3153 14.4555 10.1074 14.3789 9.9433 14.2148L8.19249 12.4421C7.87515 12.1247 7.87515 11.5995 8.19249 11.2822C8.50982 10.9648 9.03507 10.9648 9.3524 11.2822L10.5342 12.464L14.6596 8.33863C14.9769 8.02129 15.5021 8.02129 15.8195 8.33863C16.1368 8.65596 16.1368 9.19215 15.8085 9.50948Z" fill="#0C0F0F"/>
</svg>
