<svg width="24" height="24" viewBox="0 0 24 24" fill="none" xmlns="http://www.w3.org/2000/svg">
<path d="M3 7.00012V6.56395C3 4.97721 3 4.18384 3.44941 3.65765C3.51322 3.58293 3.58281 3.51334 3.65753 3.44953C4.18372 3.00012 4.97709 3.00012 6.56382 3.00012H7" stroke="#222727" stroke-width="1.5" stroke-linecap="round"/>
<path d="M21 17.0001L21 17.4363C21 19.023 21 19.8164 20.5506 20.3426C20.4868 20.4173 20.4172 20.4869 20.3425 20.5507C19.8163 21.0001 19.0229 21.0001 17.4362 21.0001L17 21.0001" stroke="#222727" stroke-width="1.5" stroke-linecap="round"/>
<path d="M7.09102 21.0001L6.56395 21.0001C4.97721 21.0001 4.18384 21.0001 3.65765 20.5507C3.58293 20.4869 3.51334 20.4173 3.44953 20.3426C3.00012 19.8164 3.00012 19.023 3.00012 17.4363L3.00012 16.9092" stroke="#222727" stroke-width="1.5" stroke-linecap="round"/>
<path d="M17 3.00012L18.1489 3.00012C19.4183 3.00012 20.053 3.00012 20.474 3.35965C20.5338 3.4107 20.5894 3.46637 20.6405 3.52615C21 3.94709 21 4.58179 21 5.85118L21 7.00012" stroke="#222727" stroke-width="1.5" stroke-linecap="round"/>
<path d="M8 12.0001H16" stroke="#222727" stroke-width="1.5" stroke-linecap="round"/>
</svg>
