<svg width="24" height="24" viewBox="0 0 24 24" fill="none" xmlns="http://www.w3.org/2000/svg">
<path d="M22.3054 10.0501C22.3008 10.0079 22.2961 9.97277 22.289 9.95167V9.93292L22.2797 9.88136C22.1133 9.07042 21.5765 8.54777 20.9086 8.54777H20.7984C19.6594 8.54777 18.7359 7.61964 18.7359 6.48527C18.7359 6.22277 18.8578 5.85011 18.9094 5.71886C19.2328 4.96417 18.8883 4.10402 18.089 3.66573L15.5742 2.24308L15.5273 2.22667C15.3398 2.16573 15.1219 2.09308 14.8781 2.09308C14.4234 2.09308 13.9125 2.30402 13.5961 2.62042C13.2 3.01183 12.3961 3.59542 11.9179 3.59542C11.4422 3.59542 10.6359 3.01417 10.2398 2.62042C9.90232 2.28761 9.43591 2.09308 8.95779 2.09308C8.70701 2.09308 8.49607 2.16339 8.30857 2.22667L8.26638 2.24308L5.62966 3.67042L5.61326 3.6798C4.97341 4.08058 4.71326 4.99933 5.03904 5.72823L5.04373 5.73761L5.04841 5.74698C5.09998 5.86183 5.25935 6.25089 5.25935 6.59073C5.25935 7.7298 4.33123 8.65324 3.19685 8.65324H3.08669C2.38826 8.65324 1.8656 9.16886 1.7156 9.9962L1.70623 10.0431V10.0595C1.70623 10.0829 1.69685 10.1157 1.68982 10.1579C1.63123 10.5118 1.4906 11.3462 1.4906 12.0282C1.4906 12.7103 1.62888 13.5446 1.68982 13.8985C1.69451 13.9407 1.69919 13.9759 1.70623 13.997V14.0157L1.7156 14.0673C1.88201 14.8782 2.41873 15.4009 3.08669 15.4009H3.14294C4.28201 15.4009 5.20544 16.329 5.20544 17.4634C5.20544 17.7259 5.08357 18.0985 5.03201 18.2298C4.72029 18.94 5.0156 19.8517 5.70466 20.311L5.72341 20.3204L8.20779 21.7032L8.25466 21.7196C8.44216 21.7806 8.65544 21.8532 8.89919 21.8532C9.41951 21.8532 9.88826 21.654 10.1812 21.3259C10.2094 21.3048 10.2375 21.2767 10.2703 21.2485C10.5703 20.986 11.3765 20.2923 11.9086 20.2923C12.3047 20.2923 12.9679 20.7071 13.6359 21.3751C13.9734 21.7079 14.4398 21.9025 14.9179 21.9025C15.2414 21.9025 15.4804 21.8134 15.7523 21.6798L15.7617 21.6751L18.3094 20.2665L18.3187 20.2571C18.9586 19.8564 19.2187 18.9376 18.8929 18.2087L18.8883 18.1993L18.8836 18.19C18.8789 18.1876 18.6797 17.7728 18.7172 17.4001L18.7219 17.3767V17.3532C18.7219 16.2142 19.65 15.2907 20.7844 15.2907H20.9015C21.6 15.2907 22.1226 14.7751 22.2726 13.9478L22.282 13.9009V13.8845C22.2867 13.8657 22.2914 13.8376 22.2984 13.8001C22.3594 13.4556 22.5 12.6517 22.5 11.9157C22.5047 11.236 22.3664 10.404 22.3054 10.0501ZM11.9929 15.2626C10.1906 15.2626 8.73044 13.8025 8.73044 12.0001C8.73044 10.1978 10.1906 8.73761 11.9929 8.73761C13.7953 8.73761 15.2554 10.1978 15.2554 12.0001C15.2554 13.8025 13.7953 15.2626 11.9929 15.2626Z" fill="#0C0F0F"/>
</svg>
