<svg width="24" height="24" viewBox="0 0 24 24" fill="none" xmlns="http://www.w3.org/2000/svg">
<path d="M21.4844 10.875C21.861 11.5278 21.8845 12.3227 21.5547 12.9932L21.4844 13.125L17.7168 19.6504C17.3148 20.3467 16.5716 20.7763 15.7676 20.7764L8.23242 20.7764C7.47865 20.7763 6.77814 20.3992 6.3623 19.7783L6.2832 19.6504L2.51562 13.125C2.13896 12.4722 2.11554 11.6773 2.44531 11.0068L2.51562 10.875L6.2832 4.34961C6.68523 3.65328 7.42838 3.22373 8.23242 3.22363L15.7676 3.22363C16.5213 3.22372 17.2219 3.60082 17.6377 4.22168L17.7168 4.34961L21.4844 10.875Z" stroke="#272727" stroke-width="1.50056"/>
<path d="M12 9.25C13.5187 9.25 14.75 10.4814 14.75 12C14.75 13.5187 13.5187 14.75 12 14.75C10.4814 14.75 9.25 13.5187 9.25 12C9.25 10.4814 10.4814 9.25 12 9.25Z" stroke="#272727" stroke-width="1.50056" stroke-linecap="round" stroke-linejoin="round"/>
</svg>
