<svg width="24" height="24" viewBox="0 0 24 24" fill="none" xmlns="http://www.w3.org/2000/svg">
<g clip-path="url(#clip0_1588_95)">
<path d="M15.8521 10.0237L10.9732 14.9026L9 12.9294M2 7.04688C2 5.78661 2 5.15647 2.31175 4.66564C2.35671 4.59485 2.40608 4.52696 2.45957 4.46237C2.83042 4.01452 3.42988 3.8203 4.6288 3.43187L10.8833 1.40551C11.4366 1.22627 11.7132 1.13665 11.9986 1.12817C12.0406 1.12692 12.0826 1.127 12.1246 1.1284C12.41 1.13792 12.6863 1.22854 13.2389 1.4098L19.3844 3.4256C20.5776 3.81698 21.1742 4.01267 21.543 4.4599C21.5962 4.52441 21.6453 4.59219 21.69 4.66285C22 5.15269 22 5.78056 22 7.03632V12.491C22 17.1398 18.8744 21.2077 14.3825 22.4051L13.1805 22.7255C12.4473 22.9209 11.6759 22.9221 10.9422 22.7289L9.62369 22.3818C5.13107 21.1989 2 17.1367 2 12.491V7.04688Z" stroke="#272727" stroke-width="1.49972" stroke-linecap="round" stroke-linejoin="round"/>
</g>
<defs>
<clipPath id="clip0_1588_95">
<rect width="24" height="24" fill="white"/>
</clipPath>
</defs>
</svg>
