<svg width="24" height="24" viewBox="0 0 24 24" fill="none" xmlns="http://www.w3.org/2000/svg">
<g clip-path="url(#clip0_68_57)">
<path fill-rule="evenodd" clip-rule="evenodd" d="M3.59988 0.000152588H20.3999C22.3881 0.000152588 23.9999 1.61193 23.9999 3.60015V20.4002C23.9999 22.3884 22.3881 24.0002 20.3999 24.0002H3.59988C1.61165 24.0002 -0.00012207 22.3884 -0.00012207 20.4002V3.60015C-0.00012207 1.61193 1.61165 0.000152588 3.59988 0.000152588ZM4.79988 2.40015C4.13714 2.40015 3.59988 2.93741 3.59988 3.60015V20.4002C3.59988 21.0629 4.13714 21.6002 4.79988 21.6002H8.39988C9.06262 21.6002 9.59988 21.0629 9.59988 20.4002V3.60015C9.59988 2.93741 9.06262 2.40015 8.39988 2.40015H4.79988Z" fill="#9DA0A0"/>
</g>
<defs>
<clipPath id="clip0_68_57">
<rect width="24" height="24" fill="white"/>
</clipPath>
</defs>
</svg>
