<svg width="24" height="24" viewBox="0 0 24 24" fill="none" xmlns="http://www.w3.org/2000/svg">
<path d="M9.24551 14.0011C10.2125 14.0011 10.9955 14.7851 10.9955 15.7511V19.2511C10.9955 19.7152 10.8111 20.1603 10.4829 20.4885C10.1548 20.8167 9.70964 21.0011 9.24551 21.0011H3.74951C3.28538 21.0011 2.84026 20.8167 2.51207 20.4885C2.18389 20.1603 1.99951 19.7152 1.99951 19.2511V15.7511C1.99951 14.7851 2.78351 14.0011 3.74951 14.0011H9.24551ZM20.2495 14.0011C21.2155 14.0011 21.9995 14.7851 21.9995 15.7511V19.2511C21.9995 19.7152 21.8151 20.1603 21.4869 20.4885C21.1588 20.8167 20.7136 21.0011 20.2495 21.0011H14.7535C14.2894 21.0011 13.8443 20.8167 13.5161 20.4885C13.1879 20.1603 13.0035 19.7152 13.0035 19.2511V15.7511C13.0035 14.7851 13.7865 14.0011 14.7535 14.0011H20.2495ZM20.2495 2.99609C21.2155 2.99609 21.9995 3.78009 21.9995 4.74609V10.2491C21.9996 10.479 21.9545 10.7067 21.8666 10.9191C21.7787 11.1315 21.6498 11.3246 21.4873 11.4872C21.3248 11.6498 21.1318 11.7788 20.9194 11.8668C20.7071 11.9548 20.4794 12.0001 20.2495 12.0001H3.74951C3.28538 12.0001 2.84026 11.8157 2.51207 11.4875C2.18389 11.1593 1.99951 10.7142 1.99951 10.2501V4.74609C1.99953 4.3069 2.16468 3.88378 2.46219 3.5607C2.7597 3.23763 3.16781 3.03823 3.60551 3.00209L3.74951 2.99609H20.2495Z" fill="#0C0F0F"/>
</svg>
