<svg width="24" height="24" viewBox="0 0 24 24" fill="none" xmlns="http://www.w3.org/2000/svg">
<path d="M13.0088 17H21.0088M3.00879 7H11.0088" stroke="#272727" stroke-width="1.5" stroke-linecap="round"/>
<path d="M6.00879 13.75C7.80371 13.75 9.25879 15.2051 9.25879 17C9.25879 18.7949 7.80371 20.25 6.00879 20.25C4.21386 20.25 2.75879 18.7949 2.75879 17C2.75879 15.2051 4.21386 13.75 6.00879 13.75ZM18.0088 3.75C19.8037 3.75 21.2588 5.20507 21.2588 7C21.2588 8.79493 19.8037 10.25 18.0088 10.25C16.2139 10.25 14.7588 8.79492 14.7588 7C14.7588 5.20507 16.2139 3.75 18.0088 3.75Z" stroke="#272727" stroke-width="1.5" stroke-linecap="round" stroke-linejoin="round"/>
</svg>
