<svg width="24" height="24" viewBox="0 0 24 24" fill="none" xmlns="http://www.w3.org/2000/svg">
<path d="M12.6635 9.73584C13.2115 11.7809 14.5494 13.5245 16.383 14.5832M10.4131 9.79768C9.83153 11.8335 8.46508 13.5549 6.61434 14.5832M14.6876 6.54265C14.6876 8.3062 13.2579 9.73584 11.4944 9.73584C9.7308 9.73584 8.30115 8.3062 8.30115 6.54265C8.30115 4.7791 9.7308 3.34946 11.4944 3.34946C13.2579 3.34946 14.6876 4.7791 14.6876 6.54265ZM21.5718 19.0537C20.69 20.5809 18.7371 21.1042 17.2098 20.2224C15.6825 19.3407 15.1592 17.3877 16.041 15.8605C16.9227 14.3332 18.8757 13.8099 20.403 14.6917C21.9303 15.5735 22.4536 17.5264 21.5718 19.0537ZM7.95928 19.0534C7.0775 20.5807 5.12456 21.104 3.59726 20.2222C2.06997 19.3404 1.54668 17.3875 2.42847 15.8602C3.31025 14.3329 5.26319 13.8096 6.79048 14.6914C8.31778 15.5732 8.84106 17.5261 7.95928 19.0534Z" stroke="#272727" stroke-width="1.5" stroke-linecap="round" stroke-linejoin="round"/>
</svg>
