<svg width="24" height="24" viewBox="0 0 24 24" fill="none" xmlns="http://www.w3.org/2000/svg">
<rect y="0.00012207" width="24" height="24" rx="12" fill="#FFE812"/>
<path d="M12.0578 6.02942C15.6769 6.02942 18.6108 8.31609 18.6108 11.1376C18.6108 13.9585 15.6769 16.2452 12.0578 16.2452C11.6975 16.2453 11.3375 16.2224 10.98 16.1765L8.22904 17.9758C7.91637 18.1411 7.8059 18.123 7.93447 17.718L8.49116 15.4226C6.69378 14.5114 5.50488 12.9325 5.50488 11.1376C5.50488 8.31671 8.43873 6.02942 12.0578 6.02942ZM15.7443 11.0596L16.6617 10.1709C16.7147 10.1159 16.7442 10.0425 16.7441 9.96621C16.744 9.88989 16.7143 9.81658 16.6613 9.76174C16.6082 9.70689 16.5359 9.67478 16.4596 9.67217C16.3833 9.66956 16.309 9.69666 16.2523 9.74775L15.0491 10.9123V9.94996C15.0491 9.87183 15.0181 9.79691 14.9628 9.74166C14.9076 9.68642 14.8327 9.65539 14.7545 9.65539C14.6764 9.65539 14.6015 9.68642 14.5462 9.74166C14.491 9.79691 14.46 9.87183 14.46 9.94996V11.5458C14.4489 11.5913 14.4489 11.6388 14.46 11.6843V12.5824C14.46 12.6605 14.491 12.7354 14.5462 12.7907C14.6015 12.8459 14.6764 12.8769 14.7545 12.8769C14.8327 12.8769 14.9076 12.8459 14.9628 12.7907C15.0181 12.7354 15.0491 12.6605 15.0491 12.5824V11.7317L15.3156 11.474L16.2068 12.7428C16.229 12.7744 16.2573 12.8014 16.29 12.8222C16.3227 12.8429 16.3591 12.857 16.3972 12.8637C16.4354 12.8704 16.4745 12.8694 16.5122 12.861C16.55 12.8526 16.5858 12.8368 16.6174 12.8145C16.6491 12.7923 16.6761 12.764 16.6968 12.7313C16.7176 12.6986 16.7317 12.6622 16.7384 12.6241C16.745 12.5859 16.7441 12.5469 16.7357 12.5091C16.7273 12.4713 16.7115 12.4356 16.6892 12.4039L15.7443 11.059V11.0596ZM13.8983 12.2603H12.9871V9.95932C12.9836 9.88362 12.9511 9.81218 12.8963 9.75984C12.8415 9.7075 12.7686 9.6783 12.6928 9.6783C12.6171 9.6783 12.5442 9.7075 12.4894 9.75984C12.4346 9.81218 12.4021 9.88362 12.3986 9.95932V12.5549C12.3986 12.7172 12.5296 12.8495 12.6925 12.8495H13.8983C13.9764 12.8495 14.0513 12.8184 14.1066 12.7632C14.1618 12.708 14.1928 12.633 14.1928 12.5549C14.1928 12.4768 14.1618 12.4019 14.1066 12.3466C14.0513 12.2914 13.9764 12.2603 13.8983 12.2603ZM10.243 11.5788L10.6773 10.5135L11.0755 11.5788H10.243ZM11.8176 11.8834L11.8188 11.8734C11.8187 11.7992 11.7903 11.7278 11.7395 11.6737L11.0867 9.92624C11.0594 9.84297 11.0073 9.77003 10.9373 9.71717C10.8674 9.66431 10.783 9.63404 10.6954 9.63042C10.6072 9.63003 10.521 9.65652 10.4482 9.70635C10.3754 9.75619 10.3195 9.82701 10.2879 9.90939L9.2513 12.4526C9.23667 12.4884 9.22924 12.5267 9.22943 12.5654C9.22962 12.6041 9.23743 12.6424 9.25241 12.678C9.26739 12.7137 9.28925 12.7461 9.31674 12.7733C9.34423 12.8005 9.37681 12.8221 9.41263 12.8367C9.44844 12.8513 9.48679 12.8587 9.52547 12.8586C9.56416 12.8584 9.60243 12.8506 9.6381 12.8356C9.67377 12.8206 9.70614 12.7987 9.73336 12.7712C9.76058 12.7438 9.78212 12.7112 9.79675 12.6754L10.0027 12.168H11.2946L11.4812 12.6672C11.4939 12.7046 11.5139 12.739 11.5401 12.7684C11.5663 12.7978 11.5982 12.8217 11.6338 12.8386C11.6694 12.8555 11.7081 12.865 11.7475 12.8667C11.7868 12.8684 11.8262 12.8622 11.8631 12.8484C11.9 12.8346 11.9338 12.8136 11.9624 12.7865C11.9911 12.7594 12.014 12.7268 12.0298 12.6908C12.0457 12.6547 12.0541 12.6157 12.0546 12.5763C12.0551 12.5369 12.0477 12.4978 12.0329 12.4613L11.8176 11.8834ZM9.74433 9.96244C9.74433 9.88442 9.71338 9.80959 9.65827 9.75436C9.60316 9.69914 9.5284 9.66803 9.45038 9.66787H7.42521C7.34708 9.66787 7.27216 9.6989 7.21692 9.75414C7.16167 9.80939 7.13064 9.88431 7.13064 9.96244C7.13064 10.0406 7.16167 10.1155 7.21692 10.1707C7.27216 10.226 7.34708 10.257 7.42521 10.257H8.14915V12.5886C8.14915 12.6667 8.18019 12.7417 8.23543 12.7969C8.29067 12.8521 8.3656 12.8832 8.44373 12.8832C8.52185 12.8832 8.59678 12.8521 8.65202 12.7969C8.70726 12.7417 8.7383 12.6667 8.7383 12.5886V10.257H9.44976C9.61265 10.257 9.74433 10.1247 9.74433 9.96244Z" fill="black"/>
</svg>
