<svg width="24" height="24" viewBox="0 0 24 24" fill="none" xmlns="http://www.w3.org/2000/svg">
<rect y="0.00012207" width="24" height="24" rx="12" fill="#34AADF"/>
<path d="M6.67684 11.5742C6.67684 11.5742 11.5596 9.51767 13.253 8.79352C13.9021 8.50388 16.1036 7.57696 16.1036 7.57696C16.1036 7.57696 17.1197 7.17147 17.035 8.15627C17.0067 8.56181 16.781 9.98109 16.5552 11.5163C16.2165 13.6887 15.8496 16.0638 15.8496 16.0638C15.8496 16.0638 15.7931 16.73 15.3133 16.8459C14.8335 16.9618 14.0432 16.4404 13.9022 16.3245C13.7892 16.2376 11.7854 14.9342 11.0515 14.2969C10.854 14.1232 10.6282 13.7756 11.0797 13.3701C12.0958 12.4142 13.3094 11.2266 14.0432 10.4735C14.3819 10.1259 14.7206 9.3149 13.3094 10.2997C11.3056 11.719 9.32988 13.0514 9.32988 13.0514C9.32988 13.0514 8.87829 13.3411 8.03159 13.0804C7.18484 12.8197 6.19701 12.4721 6.19701 12.4721C6.19701 12.4721 5.51968 12.0376 6.67684 11.5742Z" fill="white"/>
</svg>
