<svg width="24" height="24" viewBox="0 0 24 24" fill="none" xmlns="http://www.w3.org/2000/svg">
<path d="M6.38231 5.96725C7.92199 4.73562 9.87499 3.99915 12 3.99915C14.125 3.99915 16.078 4.73562 17.6177 5.96725L19.0711 4.51387L20.4853 5.92808L19.0319 7.38146C20.2635 8.92114 21 10.8741 21 12.9991C21 17.9697 16.9706 21.9991 12 21.9991C7.02944 21.9991 3 17.9697 3 12.9991C3 10.8741 3.73647 8.92114 4.9681 7.38146L3.51472 5.92808L4.92893 4.51387L6.38231 5.96725ZM13 11.9991V7.49435L8 13.9991H11V18.4991L16 11.9991H13ZM8 0.999146H16V2.99915H8V0.999146Z" fill="black"/>
</svg>
