<svg width="24" height="24" viewBox="0 0 24 24" fill="none" xmlns="http://www.w3.org/2000/svg">
<path d="M18.6113 3.29102C20.3957 2.68173 22.25 4.00807 22.25 5.89355V16.8291C22.25 18.1237 21.1096 19.2243 19.6758 19.3672L19.3857 19.3828C18.6063 19.3891 17.773 19.4563 17.0293 19.6523L16.7168 19.7441C16.0301 19.9691 15.2383 20.2191 14.4932 20.4512L12.5469 21.0508C12.2809 21.1317 11.9819 21.1227 11.6904 21.0254L11.5654 20.9785C10.8781 20.686 9.7652 20.2566 8.38477 19.8838L7.77637 19.7285C6.87178 19.5091 5.86669 19.4282 4.9248 19.417L4.52539 19.416C3.01315 19.4277 1.75 18.2795 1.75 16.9102V6.18652L1.75488 6.01562C1.85673 4.32401 3.46429 3.12358 5.11523 3.50586L5.28027 3.54883L11.4814 5.38477C11.7858 5.47487 12.1083 5.48 12.4141 5.40137L12.5439 5.36328L18.6113 3.29102Z" stroke="black" stroke-width="1.5"/>
<path d="M12 9V17" stroke="#272727" stroke-width="1.5" stroke-linecap="round"/>
</svg>
