<svg width="24" height="24" viewBox="0 0 24 24" fill="none" xmlns="http://www.w3.org/2000/svg">
<rect y="0.00012207" width="24" height="24" rx="12" fill="white"/>
<path d="M17.9558 8.20161C17.5596 8.37231 17.143 8.49117 16.7163 8.55526C16.9158 8.52104 17.2093 8.16168 17.3261 8.01623C17.5036 7.79683 17.6389 7.54637 17.725 7.27756C17.725 7.2576 17.745 7.22908 17.725 7.21482C17.715 7.20933 17.7037 7.20645 17.6923 7.20645C17.6808 7.20645 17.6695 7.20933 17.6595 7.21482C17.1962 7.46591 16.7032 7.65756 16.192 7.78522C16.1742 7.79067 16.1552 7.79115 16.1372 7.78663C16.1191 7.78211 16.1026 7.77275 16.0894 7.75955C16.0496 7.71213 16.0068 7.66735 15.9612 7.62551C15.7527 7.43854 15.5162 7.28552 15.2602 7.17204C14.9147 7.03017 14.5416 6.96873 14.1689 6.99236C13.8073 7.01522 13.4542 7.1123 13.1317 7.27756C12.8141 7.4518 12.5349 7.6885 12.311 7.97345C12.0755 8.26674 11.9055 8.6071 11.8124 8.97165C11.7356 9.31841 11.7269 9.67681 11.7867 10.0269C11.7867 10.0868 11.7867 10.0953 11.7354 10.0868C9.70377 9.78733 8.03683 9.06577 6.67478 7.51713C6.61494 7.44868 6.5836 7.44868 6.53516 7.51713C5.94247 8.41836 6.23026 9.84437 6.97113 10.5488C7.07086 10.6429 7.17344 10.7342 7.28172 10.8198C6.94204 10.7956 6.61065 10.7035 6.3072 10.5488C6.25021 10.5117 6.21886 10.5317 6.21602 10.6001C6.20794 10.695 6.20794 10.7905 6.21602 10.8853C6.27547 11.3401 6.45454 11.7709 6.7349 12.1337C7.01527 12.4965 7.38688 12.7783 7.81172 12.9502C7.91529 12.9946 8.0232 13.0281 8.13371 13.05C7.81925 13.112 7.49673 13.1216 7.17914 13.0785C7.11075 13.0643 7.0851 13.1014 7.11075 13.1669C7.52962 14.3078 8.4386 14.6557 9.10538 14.8496C9.19656 14.8639 9.28775 14.8639 9.39033 14.8867C9.39033 14.8867 9.39033 14.8867 9.37323 14.9038C9.17662 15.2632 8.38161 15.5056 8.01688 15.6311C7.35115 15.8704 6.64136 15.9619 5.93677 15.8992C5.82564 15.8821 5.79999 15.8849 5.7715 15.8992C5.743 15.9134 5.7715 15.9448 5.80284 15.9733C5.94532 16.0674 6.08779 16.1501 6.23596 16.23C6.67707 16.4708 7.14342 16.6621 7.6265 16.8004C10.1283 17.4906 12.9436 16.9829 14.8214 15.1149C16.2974 13.6489 16.816 11.6269 16.816 9.60194C16.816 9.52494 16.9101 9.47931 16.9642 9.43938C17.3376 9.14816 17.6669 8.80424 17.9416 8.41836C17.9892 8.36084 18.0136 8.28761 18.01 8.21302C18.01 8.17024 18.01 8.17879 17.9558 8.20161Z" fill="#33CCFF"/>
</svg>
