<svg width="24" height="24" viewBox="0 0 24 24" fill="none" xmlns="http://www.w3.org/2000/svg">
<path d="M6.44466 9.77778V7.55556C6.44466 4.48731 8.93197 2 12.0002 2C14.2783 2 16.2362 3.37122 17.0935 5.33333M12.0002 14.7778V17M8.44466 22H15.5558C17.4226 22 18.356 22 19.0691 21.6367C19.6963 21.3171 20.2062 20.8072 20.5258 20.18C20.8891 19.4669 20.8891 18.5335 20.8891 16.6667V15.1111C20.8891 13.2443 20.8891 12.3108 20.5258 11.5978C20.2062 10.9706 19.6963 10.4607 19.0691 10.1411C18.356 9.77778 17.4226 9.77778 15.5558 9.77778H8.44466C6.57782 9.77778 5.6444 9.77778 4.93136 10.1411C4.30415 10.4607 3.79422 10.9706 3.47464 11.5978C3.11133 12.3108 3.11133 13.2443 3.11133 15.1111V16.6667C3.11133 18.5335 3.11133 19.4669 3.47464 20.18C3.79422 20.8072 4.30415 21.3171 4.93136 21.6367C5.6444 22 6.57782 22 8.44466 22Z" stroke="#272727" stroke-width="1.5" stroke-linecap="round" stroke-linejoin="round"/>
</svg>
