<svg width="24" height="24" viewBox="0 0 24 24" fill="none" xmlns="http://www.w3.org/2000/svg">
<path fill-rule="evenodd" clip-rule="evenodd" d="M11.9999 3.40002C7.25025 3.40002 3.3999 7.25037 3.3999 12C3.3999 16.7497 7.25025 20.6 11.9999 20.6C16.7495 20.6 20.5999 16.7497 20.5999 12C20.5999 11.0076 20.4322 10.0565 20.1244 9.17218C19.9429 8.65058 20.2186 8.08058 20.7402 7.89905C21.2618 7.71753 21.8318 7.99321 22.0133 8.51481C22.3937 9.60764 22.5999 10.7808 22.5999 12C22.5999 17.8542 17.8541 22.6 11.9999 22.6C6.14568 22.6 1.3999 17.8542 1.3999 12C1.3999 6.14581 6.14568 1.40002 11.9999 1.40002C13.3695 1.40002 14.6807 1.66027 15.885 2.13491C16.3988 2.33742 16.6512 2.91811 16.4487 3.43193C16.2462 3.94575 15.6655 4.19812 15.1517 3.99562C14.177 3.61151 13.1144 3.40002 11.9999 3.40002Z" fill="#0C0F0F"/>
<path fill-rule="evenodd" clip-rule="evenodd" d="M13.1166 9.93456V11.3056L13.1181 11.3071C15.6195 11.4243 17.5 11.9303 17.5 12.5342C17.5 13.1396 15.6195 13.6441 13.1181 13.7613V18.1564H10.8892V13.7613C8.38484 13.6426 6.5 13.1381 6.5 12.5327C6.5 11.9273 8.38338 11.4228 10.8892 11.3056V9.93456H7.80612V7.84387H16.1997V9.93456H13.1166ZM13.1166 13.3855V13.387V13.3885C15.3251 13.2876 16.9738 12.8959 16.9738 12.427C16.9738 11.9581 15.3266 11.5664 13.1166 11.4655V12.9968C13.0525 13.0027 12.7085 13.0324 12.0204 13.0324C11.4475 13.0324 11.0321 13.0072 10.8878 12.9968V11.464C8.67495 11.5634 7.02189 11.9566 7.02189 12.4255C7.02189 12.8959 8.6735 13.2876 10.8878 13.387V13.3855C11.0306 13.3929 11.4344 13.4093 12.0102 13.4093C12.7303 13.4093 13.054 13.39 13.1166 13.3855Z" fill="#0C0F0F"/>
</svg>
