<svg width="24" height="24" viewBox="0 0 24 24" fill="none" xmlns="http://www.w3.org/2000/svg">
<path d="M12 1.75012C17.6609 1.75012 22.25 6.3392 22.25 12.0001C22.25 17.661 17.6609 22.2501 12 22.2501C6.33908 22.2501 1.75 17.661 1.75 12.0001C1.75 6.3392 6.33908 1.75012 12 1.75012Z" stroke="#222727" stroke-width="1.5"/>
<path d="M18.132 19.7695C18.132 17.5873 15.3405 15.8182 11.897 15.8182C8.45358 15.8182 5.66211 17.5873 5.66211 19.7695" stroke="#222727" stroke-width="1.5" stroke-linecap="round"/>
<path d="M12 6.75012C13.7949 6.75012 15.25 8.2052 15.25 10.0001C15.25 11.795 13.7949 13.2501 12 13.2501C10.2051 13.2501 8.75 11.795 8.75 10.0001C8.75 8.2052 10.2051 6.75012 12 6.75012Z" stroke="#222727" stroke-width="1.5"/>
</svg>
