<svg width="24" height="24" viewBox="0 0 24 24" fill="none" xmlns="http://www.w3.org/2000/svg">
<path d="M7.38938 16.5397C5.33894 15.0912 4 12.7025 4 10.0011C4 5.58282 7.58172 2.0011 12 2.0011C16.4183 2.0011 20 5.58282 20 10.0011C20 12.7025 18.6611 15.0912 16.6106 16.5397L18.6936 21.3007C18.8043 21.5537 18.6889 21.8485 18.4359 21.9592C18.3727 21.9868 18.3045 22.0011 18.2355 22.0011H5.76451C5.48837 22.0011 5.26451 21.7772 5.26451 21.5011C5.26451 21.4321 5.27878 21.3639 5.30643 21.3007L7.38938 16.5397ZM8.11851 10.9715C8.55217 12.7117 10.1255 14.0011 12 14.0011C13.8745 14.0011 15.4478 12.7117 15.8815 10.9715L13.9407 10.4863C13.7239 11.3564 12.9372 12.0011 12 12.0011C11.0628 12.0011 10.2761 11.3564 10.0593 10.4863L8.11851 10.9715Z" fill="black"/>
</svg>
