<svg width="24" height="24" viewBox="0 0 24 24" fill="none" xmlns="http://www.w3.org/2000/svg">
<path d="M11.9956 22.0001C17.5185 22.0001 21.9956 17.523 21.9956 12.0001C21.9956 6.47727 17.5185 2.00012 11.9956 2.00012C6.47276 2.00012 1.99561 6.47727 1.99561 12.0001C1.99561 17.523 6.47276 22.0001 11.9956 22.0001Z" stroke="#0C0F0F" stroke-width="1.5"/>
<path d="M18.1276 19.7695C18.1276 17.5873 15.3361 15.8182 11.8926 15.8182C8.44919 15.8182 5.65771 17.5873 5.65771 19.7695" stroke="#0C0F0F" stroke-width="1.5" stroke-linecap="round"/>
<path d="M11.9956 6.75012C13.7905 6.75012 15.2456 8.2052 15.2456 10.0001C15.2456 11.795 13.7905 13.2501 11.9956 13.2501C10.2007 13.2501 8.74561 11.795 8.74561 10.0001C8.74561 8.2052 10.2007 6.75012 11.9956 6.75012Z" stroke="#0C0F0F" stroke-width="1.5"/>
</svg>
