<svg width="24" height="24" viewBox="0 0 24 24" fill="none" xmlns="http://www.w3.org/2000/svg">
<path fill-rule="evenodd" clip-rule="evenodd" d="M12 4.64012C14.2534 4.64012 15.7734 5.61346 16.64 6.42679L20.0267 3.12012C17.9467 1.18679 15.24 0.00012207 12 0.00012207C7.3067 0.00012207 3.25336 2.69346 1.28003 6.61346L5.16003 9.62679C6.13336 6.73346 8.8267 4.64012 12 4.64012Z" fill="#EA4335"/>
<path fill-rule="evenodd" clip-rule="evenodd" d="M23.52 12.2668C23.52 11.2801 23.44 10.5601 23.2667 9.81345H12V14.2668H18.6133C18.48 15.3734 17.76 17.0401 16.16 18.1601L19.9467 21.0934C22.2133 19.0001 23.52 15.9201 23.52 12.2668Z" fill="#4285F4"/>
<path fill-rule="evenodd" clip-rule="evenodd" d="M5.17333 14.3734C4.92 13.6268 4.77333 12.8268 4.77333 12.0001C4.77333 11.1734 4.92 10.3734 5.16 9.62677L1.28 6.61343C0.466667 8.2401 0 10.0668 0 12.0001C0 13.9334 0.466667 15.7601 1.28 17.3868L5.17333 14.3734Z" fill="#FBBC05"/>
<path fill-rule="evenodd" clip-rule="evenodd" d="M11.9999 24.0001C15.2399 24.0001 17.9599 22.9334 19.9466 21.0934L16.1599 18.1601C15.1466 18.8668 13.7866 19.3601 11.9999 19.3601C8.82661 19.3601 6.13327 17.2668 5.17327 14.3734L1.29327 17.3868C3.26661 21.3068 7.30661 24.0001 11.9999 24.0001Z" fill="#34A853"/>
</svg>
