<svg width="24" height="24" viewBox="0 0 24 24" fill="none" xmlns="http://www.w3.org/2000/svg">
<rect y="0.00012207" width="24" height="24" rx="12" fill="black"/>
<path d="M19.6654 8.14897C19.4811 7.46013 18.9397 6.9188 18.2509 6.73441C17.0036 6.39987 12 6.39987 12 6.39987C12 6.39987 6.99637 6.39987 5.74909 6.73441C5.06026 6.9188 4.51893 7.46013 4.33454 8.14897C4 9.39624 4 12.0001 4 12.0001C4 12.0001 4 14.604 4.33454 15.8513C4.51893 16.5401 5.06026 17.0815 5.74909 17.2658C6.99637 17.6004 12 17.6004 12 17.6004C12 17.6004 17.0036 17.6004 18.2509 17.2658C18.9397 17.0815 19.4811 16.5401 19.6654 15.8513C20 14.604 20 12.0001 20 12.0001C20 12.0001 19.9986 9.39624 19.6654 8.14897Z" fill="white"/>
<path d="M10.3984 14.4001L14.5552 12.0003L10.3984 9.6006V14.4001Z" fill="black"/>
</svg>
