<svg width="24" height="24" viewBox="0 0 24 24" fill="none" xmlns="http://www.w3.org/2000/svg">
<rect y="0.00012207" width="24" height="24" rx="12" fill="#FE0000"/>
<path d="M12.0557 6.64987C12.0924 6.64995 12.1466 6.65052 12.2158 6.65085C12.3546 6.6515 12.5551 6.65215 12.7988 6.65475C13.2864 6.65997 13.9491 6.67102 14.6504 6.69186C15.352 6.71272 16.0902 6.74384 16.7295 6.7905C17.2142 6.82588 17.6304 6.86946 17.9287 6.92136L18.1865 6.97604C18.7511 7.1273 19.2025 7.55316 19.3896 8.10202L19.4238 8.21335C19.5829 8.80867 19.666 9.74742 19.708 10.5551C19.7288 10.9552 19.7388 11.3169 19.7441 11.5786C19.7468 11.7094 19.7483 11.8153 19.749 11.8882C19.7494 11.9246 19.7499 11.9531 19.75 11.9721V12.0288C19.7499 12.0477 19.7493 12.0757 19.749 12.1118C19.7484 12.1846 19.7477 12.2906 19.7451 12.4214C19.7399 12.683 19.7297 13.0448 19.709 13.4448C19.6724 14.1516 19.6039 14.9589 19.4805 15.5483L19.4238 15.7866C19.2727 16.3514 18.8469 16.8035 18.2979 16.9907L18.1865 17.0239C17.9007 17.1006 17.3759 17.1623 16.7295 17.2094C16.0902 17.2561 15.352 17.2882 14.6504 17.3091C13.9491 17.3299 13.2864 17.34 12.7988 17.3452C12.5551 17.3478 12.3546 17.3494 12.2158 17.3501H11.7842C11.6454 17.3494 11.4449 17.3478 11.2012 17.3452C10.7136 17.34 10.0509 17.3299 9.34961 17.3091C8.64799 17.2882 7.9098 17.2561 7.27051 17.2094C6.78576 17.1741 6.36956 17.1305 6.07129 17.0786L5.81348 17.0239C5.24879 16.8726 4.79748 16.4469 4.61035 15.8979L4.57617 15.7866L4.51953 15.5483C4.39611 14.9589 4.32765 14.1516 4.29102 13.4448C4.27029 13.0448 4.26007 12.683 4.25488 12.4214C4.25229 12.2906 4.25162 12.1846 4.25098 12.1118C4.25066 12.0757 4.25008 12.0477 4.25 12.0288V11.9712C4.25008 11.9522 4.25066 11.9242 4.25098 11.8882C4.25162 11.8153 4.25229 11.7094 4.25488 11.5786C4.26007 11.3169 4.27028 10.9552 4.29102 10.5551C4.32765 9.84821 4.39607 9.04107 4.51953 8.45163L4.57617 8.21335C4.72742 7.64872 5.15327 7.19742 5.70215 7.01022L5.81348 6.97604C6.09929 6.89939 6.62409 6.83768 7.27051 6.7905C7.90979 6.74384 8.648 6.71272 9.34961 6.69186C10.0509 6.67102 10.7136 6.65997 11.2012 6.65475C11.4449 6.65215 11.6454 6.6515 11.7842 6.65085C11.8534 6.65052 11.9077 6.64995 11.9443 6.64987H12.0557Z" fill="#FF0000" stroke="white" stroke-width="0.5"/>
<path d="M10.3984 14.4L14.5552 12.0003L10.3984 9.60059V14.4Z" fill="white"/>
</svg>
